<svg width="720" height="581" viewBox="0 0 720 581" fill="none" xmlns="http://www.w3.org/2000/svg">
<path opacity="0.12" d="M487.418 580.39L486.057 580.388L447.582 564.948L410.497 579.831C410.631 580.009 410.757 580.196 410.869 580.388H395.292V579.436L374.829 571.225L357.974 577.99V580.388H354.418V579.417L351.998 580.388L350.629 580.388L354.418 578.868V563.033L344.984 559.247C343.683 560.674 341.457 561.527 339.031 561.527C336.604 561.527 334.378 560.674 333.077 559.246L305.358 570.371L330.323 580.388L328.954 580.388L304.675 570.646L280.395 580.388L268.952 580.388L231.928 565.529L230.458 566.118V580.388H227.545V567.288L194.9 580.388L193.53 580.388L222.205 568.88L227.545 566.738V563.771L217.089 559.574C215.618 561.207 213.087 562.182 210.318 562.182C207.551 562.182 205.02 561.207 203.547 559.574L162.455 576.066L173.225 580.388L171.855 580.388L161.769 576.341L154.97 579.07C155.299 579.493 155.565 579.937 155.762 580.388L136.163 580.388C136.359 579.937 136.627 579.494 136.957 579.07L89.0227 559.833L62.7123 570.391V580.388H59.7974V571.561L37.7992 580.388L36.4324 580.388L59.7974 571.011V565.61L22.9735 580.388L21.8559 580.388L59.7974 565.162V514.745L24.1075 500.422L-1.21357 510.584L-4.9992 512.102V509.248L-2.99161 508.444L20.5518 498.995L-4.9992 488.74V486.401L23.4667 497.826L43.348 489.847L19.9911 480.472C19.3659 481.096 18.3421 481.469 17.253 481.469C15.4139 481.469 13.9173 480.429 13.9173 479.151C13.9173 478.566 14.232 478.007 14.8037 477.577C15.3733 477.149 16.1439 476.888 16.9733 476.841V462.652L10.8046 465.128L-4.9992 471.47V470.921L16.9733 462.102V460.656C16.6834 460.006 16.5367 459.329 16.5367 458.644C16.5367 457.959 16.6834 457.282 16.9733 456.631V428.577C16.2187 428.484 15.6708 428.029 15.6708 427.495C15.6708 426.889 16.3807 426.397 17.253 426.397C17.7162 426.397 18.1559 426.538 18.459 426.785L25.9382 423.783V399.728C23.5383 399.633 21.4684 398.553 20.6656 396.978L-4.9992 407.277V404.938L17.9417 395.733L-4.9992 386.527V383.672L20.7766 394.017C20.8405 393.91 20.9016 393.818 20.9627 393.736L-4.9992 383.317V382.769L21.3016 393.325C22.4107 392.155 24.272 391.457 26.2803 391.457C26.9022 391.457 27.5157 391.524 28.103 391.655L59.7974 378.935V312.782L32.1057 301.668L-4.9992 286.778V284.44L19.5239 294.282L61.2538 311.029L95.164 297.419L33.4741 272.664C31.8991 274.387 29.2093 275.416 26.2803 275.416C24.6973 275.416 23.1544 275.113 21.8189 274.539C20.8216 275.633 19.1139 276.286 17.253 276.286C15.7086 276.286 14.2336 275.825 13.2073 275.022L0.421356 280.154L-4.9992 282.328V281.78L12.7832 274.642C12.1706 274.018 11.847 273.287 11.847 272.529C11.847 270.458 14.2722 268.773 17.253 268.773C17.4408 268.773 17.6353 268.78 17.8311 268.793C18.0687 267.408 19.0146 266.119 20.494 265.165C21.9793 264.206 23.913 263.647 25.9382 263.591V253.183L-4.9992 265.599V262.746L25.9382 250.33V210.023C23.246 209.9 21.1364 208.331 21.1364 206.453C21.1364 205.899 21.3136 205.369 21.663 204.876L8.88062 199.745L-4.9992 205.315V202.977L5.96693 198.576L-4.9992 194.175V193.627L6.64952 198.303L47.3053 181.987V181.504L20.3316 170.679C19.6345 171.386 18.4836 171.809 17.253 171.809C15.1976 171.809 13.5253 170.647 13.5253 169.22C13.5253 167.87 15.0396 166.735 16.9733 166.636V148.841L10.4753 146.232L-4.9992 140.024V137.17L16.9733 145.987V119.52C15.5204 119.421 14.4246 118.579 14.4246 117.564C14.4246 116.481 15.6933 115.6 17.253 115.6C18.1579 115.6 19.0166 115.906 19.5501 116.418L73.9755 94.5743C73.307 93.7069 72.954 92.7255 72.954 91.7372C72.954 90.1301 73.8541 88.6194 75.4882 87.4831C77.1223 86.3471 79.2959 85.7215 81.609 85.7215C86.3804 85.7215 90.2625 88.42 90.2625 91.7372C90.2625 92.7249 89.9091 93.706 89.241 94.5743L142.103 115.789C142.965 114.886 144.409 114.347 145.963 114.347C147.438 114.347 148.791 114.819 149.673 115.641V37.7632L57.9888 0.965332H65.0989L153.23 36.3362V118.504L255.603 159.587V187.063L314.333 210.633V277.953L316.533 278.837L333.769 271.919C333.215 271.181 332.923 270.345 332.923 269.503C332.923 266.606 336.311 264.249 340.476 264.249C344.642 264.249 348.031 266.606 348.031 269.503C348.031 270.343 347.738 271.179 347.184 271.919L411.542 297.748C413.174 295.951 415.972 294.879 419.026 294.879C423.902 294.879 427.868 297.636 427.868 301.025C427.868 302.626 426.987 304.142 425.388 305.292C423.797 306.44 421.657 307.106 419.364 307.167V357.355C421.875 357.415 424.223 358.141 425.972 359.398C427.727 360.658 428.693 362.318 428.693 364.073C428.693 365.868 427.688 367.556 425.862 368.825C424.036 370.094 421.608 370.793 419.026 370.793C417.359 370.793 415.715 370.494 414.271 369.926C412.87 369.374 411.679 368.583 410.826 367.637L398.204 372.703V380.103L342.031 402.647L397.983 425.102C399.166 423.811 401.186 423.04 403.385 423.04C405.585 423.04 407.606 423.81 408.791 425.101L462.247 403.649C461.787 403.033 461.555 402.366 461.555 401.668C461.555 399.296 464.331 397.366 467.743 397.366C471.155 397.366 473.931 399.296 473.931 401.668C473.931 402.357 473.692 403.042 473.239 403.649L525.969 424.811C527.306 423.338 529.597 422.46 532.097 422.46C536.093 422.46 539.344 424.718 539.344 427.495C539.344 428.806 538.622 430.048 537.312 430.992C536.004 431.933 534.251 432.478 532.377 432.528V473.647C534.435 473.697 536.359 474.292 537.792 475.321C539.229 476.354 540.02 477.714 540.02 479.151C540.02 482.187 536.466 484.656 532.097 484.656C529.351 484.656 526.839 483.689 525.379 482.07L485.152 498.214L560.938 528.629L663.307 487.546L719.5 510.096V512.95L663.307 490.398L562.715 530.769V580.388H559.16V530.769L481.597 499.641L470.528 504.084C470.712 504.359 470.809 504.669 470.809 504.978C470.809 505.515 470.522 506.027 470.001 506.42C469.484 506.812 468.781 507.054 468.021 507.101V550.1C470.473 550.149 472.769 550.85 474.484 552.076C476.201 553.303 477.146 554.922 477.146 556.633C477.146 557.715 476.759 558.786 476.025 559.732L526.915 580.157C528.052 578.922 529.989 578.185 532.097 578.185C534.333 578.185 536.395 579.029 537.479 580.388H526.375L475.744 560.068C474.916 560.998 473.755 561.776 472.389 562.317C470.979 562.875 469.373 563.17 467.743 563.17C466.113 563.17 464.506 562.875 463.097 562.317C461.729 561.776 460.568 560.998 459.74 560.068L448.261 564.675L487.419 580.388L487.418 580.39ZM258.161 555.001L232.485 565.305L254.756 574.242L269.464 580.145C270.61 578.904 272.558 578.163 274.676 578.163C276.793 578.163 278.74 578.904 279.885 580.144L304.115 570.419L265.693 555.001C264.842 555.866 263.434 556.383 261.927 556.383C260.421 556.383 259.014 555.866 258.161 555.001ZM403.385 576.863C404.774 576.863 406.144 577.113 407.347 577.586C408.512 578.043 409.505 578.703 410.217 579.493L447.023 564.723L425.913 556.253C424.404 557.901 421.829 558.886 419.026 558.886C416.22 558.886 413.646 557.902 412.138 556.253L398.76 561.622L398.206 561.845V578.176C399.654 577.329 401.494 576.863 403.385 576.863ZM395.292 563.014L375.39 571L376.18 571.318L395.292 578.987V563.014ZM153.231 572.914V577.445C153.79 577.837 154.28 578.271 154.689 578.734L161.212 576.117L153.231 572.914ZM95.7731 557.123L89.5799 559.609L95.5078 561.986L137.238 578.734C138.139 577.715 139.403 576.865 140.893 576.274C142.429 575.664 144.182 575.341 145.963 575.341C147.241 575.341 148.489 575.504 149.675 575.824V571.487L113.886 557.124C112.946 558.174 111.632 559.052 110.086 559.662C108.489 560.292 106.671 560.624 104.828 560.624C102.985 560.624 101.168 560.291 99.5727 559.661C98.0271 559.051 96.7134 558.173 95.7731 557.123ZM357.974 564.461V577.442L373.768 571.103L374.147 570.951L357.974 564.461ZM209.25 508.287L153.231 530.769V572.365L161.894 575.842L203.268 559.238C202.658 558.442 202.336 557.541 202.336 556.634C202.336 555.186 203.134 553.815 204.583 552.774C206.027 551.737 207.964 551.138 210.037 551.087V508.363C209.768 508.352 209.503 508.327 209.25 508.287ZM105.17 512.908V545.809C107.946 545.87 110.542 546.668 112.477 548.055C114.418 549.444 115.487 551.277 115.487 553.215C115.487 554.436 115.052 555.645 114.228 556.713L136.202 565.531L149.675 570.938V530.769L105.17 512.908ZM395.292 515.792L357.974 530.769V564.01L374.708 570.725L395.292 562.465V515.792ZM272.474 497.883L262.269 501.978V550.053C263.415 550.113 264.478 550.469 265.263 551.054C266.052 551.642 266.487 552.41 266.487 553.214C266.487 553.697 266.335 554.159 266.037 554.59L281.865 560.943L304.799 570.146L332.796 558.91C332.269 558.213 331.991 557.426 331.991 556.634C331.991 555.361 332.69 554.155 333.96 553.238C335.227 552.324 336.928 551.793 338.75 551.743V524.481L272.474 497.883ZM78.2829 558.192L62.7123 564.44V569.843L69.4241 567.149L88.3385 559.558L84.9352 558.192C84.1855 558.962 82.9409 559.421 81.6074 559.421C80.274 559.421 79.0314 558.962 78.2829 558.192ZM230.458 564.939V565.57L231.242 565.254L230.458 564.939ZM261.587 502.253L230.458 514.745V564.492L231.801 565.03L257.819 554.588C257.52 554.157 257.369 553.695 257.369 553.214C257.369 552.408 257.804 551.641 258.593 551.054C259.378 550.468 260.441 550.113 261.587 550.053V502.253ZM444.71 495.959L419.364 506.131V547.549C421.47 547.609 423.438 548.225 424.905 549.283C426.374 550.346 427.184 551.742 427.184 553.214C427.184 554.129 426.862 555.038 426.254 555.842L447.703 564.449L459.461 559.732C458.726 558.786 458.338 557.714 458.338 556.633C458.338 554.921 459.283 553.303 461.001 552.076C462.716 550.852 465.011 550.15 467.462 550.1V507.101C466.702 507.053 465.999 506.81 465.483 506.419C464.962 506.026 464.675 505.514 464.675 504.978C464.675 504.666 464.77 504.366 464.956 504.086L444.71 495.959ZM80.2229 507.717L62.7123 514.745V563.992L78.0019 557.855C77.7334 557.471 77.5971 557.06 77.5971 556.634C77.5971 555.174 79.236 553.952 81.328 553.851V507.875C80.951 507.857 80.5787 507.804 80.2229 507.717ZM211.435 508.278C211.161 508.324 210.879 508.352 210.596 508.363V551.087C212.669 551.136 214.608 551.736 216.055 552.773C217.505 553.814 218.303 555.185 218.303 556.634C218.303 557.542 217.981 558.443 217.37 559.238L227.545 563.322V514.745L211.435 508.28V508.278ZM339.308 524.705V551.743C341.129 551.792 342.831 552.322 344.099 553.237C345.371 554.153 346.072 555.36 346.072 556.634C346.072 557.426 345.792 558.214 345.264 558.911L354.418 562.583V530.769L339.308 524.705ZM418.684 506.403L398.206 514.622V561.295L411.794 555.841C411.188 555.037 410.868 554.129 410.868 553.214C410.868 551.739 411.677 550.344 413.145 549.284C414.61 548.225 416.577 547.609 418.684 547.549V506.403ZM86.2296 505.306L85.7126 505.514C85.3625 506.815 83.7899 507.786 81.8884 507.875V553.852C83.9804 553.952 85.6194 555.174 85.6194 556.634C85.6194 557.062 85.4831 557.473 85.2146 557.856L88.8957 559.334L95.4306 556.712C94.6057 555.643 94.1699 554.434 94.1699 553.215C94.1699 551.277 95.2388 549.444 97.18 548.055C99.1173 546.668 101.712 545.87 104.487 545.809V512.634L86.2296 505.306ZM355.271 498.685L343.577 503.378C343.942 503.878 344.127 504.417 344.127 504.978C344.127 506.86 342.01 508.413 339.308 508.514V521.851L356.196 528.629L393.04 513.841L355.271 498.685ZM143.288 482.407L105.17 497.705V510.054L151.453 528.629L206.11 506.694C205.914 506.459 205.759 506.211 205.649 505.958L161.33 488.171L147.7 482.701C147.142 482.833 146.557 482.9 145.963 482.9C145.026 482.9 144.101 482.729 143.288 482.407ZM296.632 488.187L285.509 492.651L276.028 496.456L338.75 521.627V508.514C336.049 508.411 333.933 506.857 333.933 504.978C333.933 504.416 334.118 503.878 334.482 503.378L323.772 499.079L296.632 488.187ZM252.183 491.056L214.976 505.988C214.804 506.372 214.538 506.727 214.187 507.045L229.003 512.991L229.154 512.931L261.587 499.914V496.993C259.256 496.938 257.023 496.305 255.301 495.211C253.587 494.122 252.48 492.646 252.183 491.056ZM46.9021 491.273L27.0208 499.251L61.2554 512.991L77.8974 506.312C77.5927 505.903 77.4319 505.441 77.4319 504.978C77.4319 504.529 77.5758 504.098 77.8588 503.699L46.9021 491.273ZM396.308 482.214L358.184 497.515L395.954 512.672L418.684 503.551V495.38C416.751 495.32 414.946 494.751 413.605 493.778C412.258 492.802 411.517 491.52 411.517 490.168C411.517 489.322 411.799 488.514 412.356 487.766L405.047 484.832C404.503 484.908 403.945 484.947 403.387 484.947C401.947 484.947 400.526 484.687 399.28 484.196C398.073 483.72 397.046 483.035 396.308 482.214ZM104.487 497.98L89.7837 503.879L104.487 509.779V497.98ZM458.567 490.398L445.271 495.734L465.237 503.747C465.814 503.184 466.751 502.847 467.743 502.847C468.736 502.847 469.672 503.184 470.248 503.747L481.038 499.417L458.567 490.398ZM150.49 481.19C150.41 481.275 150.342 481.343 150.28 481.399L174.155 490.981L205.81 503.683C205.867 503.59 205.915 503.517 205.961 503.454L150.49 481.19ZM49.0833 490.398L47.4629 491.049L78.1398 503.36C78.4574 503.032 78.8614 502.757 79.3398 502.542L49.0833 490.398ZM426.146 488.509C426.403 489.044 426.533 489.602 426.533 490.168C426.533 491.521 425.792 492.804 424.445 493.779C423.104 494.752 421.3 495.32 419.364 495.38V503.277L441.156 494.533L426.146 488.509ZM176.112 461.834L146.584 473.684V475.427C149.305 475.643 151.358 477.245 151.358 479.151C151.358 479.752 151.16 480.325 150.771 480.854L206.242 503.117C207.148 502.159 208.672 501.587 210.318 501.587C211.965 501.587 213.489 502.158 214.396 503.114L225.346 498.722L252.046 488.005V486.477L190.644 461.835C189.057 463.576 186.341 464.616 183.38 464.616C180.416 464.616 177.699 463.576 176.112 461.834ZM339.031 501.434C340.757 501.434 342.352 502.035 343.296 503.041L354.712 498.459L312.875 481.669L297.195 487.963L334.763 503.041C335.713 502.035 337.308 501.434 339.031 501.434ZM50.861 468.782V488.259L82.4633 500.942L86.7836 502.675L104.487 495.571V495.408C102.543 495.349 100.73 494.776 99.3818 493.798C98.0279 492.817 97.2826 491.528 97.2826 490.168C97.2826 489.326 97.5748 488.491 98.1272 487.753L84.8146 482.41L50.861 468.782ZM267.394 495.845C265.871 496.554 264.099 496.951 262.269 496.993V499.639L269.561 496.713L267.394 495.845ZM458.566 487.546L484.594 497.99L525.101 481.734C524.497 480.944 524.178 480.051 524.178 479.151C524.178 477.713 524.969 476.352 526.407 475.32C527.839 474.291 529.761 473.697 531.82 473.647V432.528C529.943 432.478 528.19 431.932 526.886 430.992C525.576 430.049 524.854 428.807 524.854 427.495C524.854 426.679 525.143 425.867 525.689 425.147L472.959 403.985C471.815 405.228 469.864 405.971 467.743 405.971C465.622 405.971 463.672 405.228 462.526 403.985L409.074 425.438C409.546 426.069 409.795 426.78 409.795 427.495C409.795 428.651 409.16 429.747 408.009 430.581C406.861 431.412 405.318 431.897 403.664 431.946V473.357C405.833 473.408 407.861 474.033 409.374 475.116C410.89 476.204 411.725 477.637 411.725 479.151C411.725 480.102 411.386 481.046 410.746 481.88L418.432 484.964C418.612 484.953 418.812 484.948 419.026 484.948C420.47 484.948 421.873 485.234 423.083 485.775C424.262 486.303 425.204 487.046 425.806 487.923L441.715 494.307L458.566 487.546ZM330.711 462.837L314.333 469.41V479.916L357.624 497.29L396.026 481.879C395.811 481.598 395.627 481.299 395.478 480.992L350.242 462.838C349.23 463.972 347.814 464.921 346.147 465.58C344.429 466.261 342.468 466.621 340.476 466.621C338.486 466.621 336.525 466.261 334.805 465.58C333.14 464.921 331.725 463.973 330.711 462.837ZM282.088 482.35L270.606 486.959C271.358 487.939 271.754 489.049 271.754 490.168C271.754 491.564 271.155 492.904 270.02 494.045L273.116 495.286L293.719 487.017L282.088 482.35ZM143.67 474.853L143.065 475.097L111.531 487.752C112.085 488.493 112.378 489.328 112.378 490.168C112.378 491.103 112.021 492.02 111.345 492.819L141.158 480.854C140.768 480.322 140.571 479.749 140.571 479.151C140.571 478.425 140.869 477.722 141.434 477.116C141.983 476.526 142.756 476.056 143.67 475.756V474.853ZM18.0156 462.234L17.534 462.429V476.841C18.3654 476.889 19.1352 477.151 19.7008 477.578C20.2721 478.007 20.5868 478.566 20.5868 479.151C20.5868 479.491 20.4771 479.831 20.2688 480.135L43.9068 489.622L47.3053 488.259V467.355L34.5454 462.236C33.6847 463.19 32.4836 463.988 31.073 464.543C29.6201 465.115 27.9627 465.417 26.2803 465.417C24.6016 465.417 22.9445 465.114 21.4881 464.542C20.0771 463.987 18.8763 463.189 18.0156 462.234ZM410.463 482.216C409.426 483.37 407.835 484.238 405.983 484.659L412.698 487.355C413.791 486.17 415.553 485.33 417.531 485.051L410.463 482.216ZM76.0844 404.108L50.861 414.232V468.234L67.1447 474.769L98.4693 487.341C99.8646 485.825 102.242 484.92 104.828 484.92C107.411 484.92 109.789 485.824 111.189 487.34L143.67 474.304V429.513C142.776 429.022 142.263 428.286 142.263 427.495C142.263 427.107 142.386 426.733 142.628 426.381L87.1305 404.108C85.9217 405.428 83.857 406.216 81.609 406.216C79.3619 406.216 77.2968 405.428 76.0844 404.108ZM311.418 470.579L300.163 475.097L282.648 482.126L294.279 486.793L311.418 479.915V470.579ZM268.461 481.866L264.301 483.536C265.538 483.75 266.69 484.125 267.722 484.649C268.742 485.168 269.598 485.806 270.264 486.547L276.282 484.132C275.753 484.213 275.212 484.254 274.676 484.254C272.138 484.254 269.815 483.362 268.461 481.867L268.461 481.866ZM204.424 404.257L183.719 412.567V452.674C185.942 452.734 188.018 453.382 189.565 454.498C191.117 455.616 191.972 457.089 191.972 458.644C191.972 459.611 191.631 460.572 190.986 461.422L237.907 480.253L252.046 485.928V418.638L216.214 404.257C214.925 405.67 212.721 406.513 210.318 406.513C207.915 406.513 205.712 405.67 204.424 404.257ZM255.603 420.065V484.939C257.369 483.905 259.615 483.336 261.927 483.336C262.452 483.336 262.972 483.365 263.472 483.42L268.181 481.531C267.626 480.804 267.333 479.98 267.333 479.151C267.333 477.821 268.064 476.562 269.392 475.606C270.716 474.652 272.493 474.099 274.395 474.049V429.59C273.647 429.543 272.953 429.304 272.442 428.917C271.929 428.528 271.647 428.023 271.647 427.495C271.647 427.186 271.74 426.891 271.923 426.615L255.603 420.065ZM280.89 481.87C280.651 482.133 280.376 482.382 280.072 482.609L281.405 482.076L280.89 481.87ZM310.433 413.369L277.429 426.615C277.612 426.892 277.705 427.188 277.705 427.495C277.705 428.023 277.422 428.529 276.908 428.918C276.398 429.304 275.704 429.543 274.954 429.59V474.049C276.856 474.099 278.633 474.652 279.957 475.605C281.287 476.562 282.019 477.821 282.019 479.151C282.019 479.979 281.725 480.803 281.169 481.533L281.962 481.851L302.241 473.713L311.418 470.031V413.763L310.433 413.369ZM341.751 402.982C341.501 403.23 341.186 403.44 340.816 403.606V450.669C343.812 450.73 346.613 451.587 348.704 453.081C350.799 454.578 351.953 456.553 351.953 458.644C351.953 459.964 351.48 461.272 350.584 462.427L395.225 480.34C395.108 479.956 395.049 479.556 395.049 479.151C395.049 477.637 395.884 476.204 397.399 475.116C398.913 474.033 400.94 473.408 403.107 473.357V431.946C401.456 431.898 399.913 431.413 398.764 430.582C397.613 429.748 396.979 428.652 396.979 427.495C396.979 426.781 397.229 426.07 397.703 425.438L341.751 402.982ZM183.036 412.842L149.296 426.381C149.538 426.729 149.661 427.104 149.661 427.495C149.661 428.107 149.347 428.699 148.777 429.164C148.214 429.623 147.436 429.931 146.585 430.031L146.584 473.134L175.769 461.422C175.125 460.571 174.784 459.609 174.784 458.644C174.784 457.09 175.639 455.618 177.19 454.499C178.736 453.383 180.812 452.735 183.036 452.674V412.842ZM338.753 403.962L314.333 413.763V468.861L330.367 462.424C329.473 461.27 329.001 459.962 329.001 458.644C329.001 456.553 330.155 454.578 332.25 453.081C334.341 451.587 337.141 450.73 340.134 450.669V403.84C339.779 403.926 339.407 403.97 339.031 403.97C338.934 403.97 338.84 403.967 338.753 403.962ZM47.3053 415.659L26.6208 423.96V451.875C29.1506 451.934 31.5172 452.665 33.2827 453.933C35.0507 455.202 36.0244 456.875 36.0244 458.644C36.0244 459.752 35.6312 460.852 34.8871 461.823L47.3053 466.807V415.659ZM25.9382 424.234L18.74 427.123C18.8019 427.24 18.8333 427.366 18.8333 427.495C18.8333 428.027 18.287 428.482 17.534 428.576V455.659C19.1239 453.411 22.3448 451.961 25.9382 451.875V424.234ZM229.003 380.689L210.654 388.052L255.603 406.09V419.617L272.203 426.278C272.77 425.723 273.695 425.391 274.676 425.391C275.657 425.391 276.581 425.722 277.148 426.277L309.874 413.145L229.003 380.689ZM181.552 399.73L146.584 413.763V424.958C147.566 425.074 148.453 425.47 149.017 426.044L183.036 412.392V399.913C182.536 399.894 182.037 399.832 181.552 399.73ZM89.4818 392.017L81.8884 395.065V397.123C83.5768 397.173 85.1531 397.667 86.3261 398.515C87.5036 399.367 88.152 400.487 88.152 401.667C88.152 402.4 87.8959 403.127 87.4119 403.771L118.653 416.309L142.911 426.044C143.117 425.832 143.373 425.641 143.67 425.476V413.763L89.4818 392.017ZM27.6423 399.626C27.3062 399.68 26.9625 399.714 26.6208 399.728V423.511L47.3053 415.209V407.517L27.6423 399.626ZM210.596 390.882V396.824C212.402 396.873 214.087 397.4 215.34 398.305C216.6 399.213 217.293 400.407 217.293 401.668C217.293 402.453 217.017 403.232 216.493 403.921L252.046 418.189V407.517L210.596 390.882ZM81.328 395.289L50.861 407.517V413.782L75.8046 403.771C75.3202 403.128 75.0645 402.4 75.0645 401.667C75.0645 400.487 75.7129 399.367 76.8904 398.515C78.0638 397.667 79.6396 397.173 81.328 397.123V395.289ZM207.098 389.478L189.441 396.564C188.828 398.432 186.474 399.81 183.719 399.913V412.117L204 403.978L204.146 403.92C203.625 403.232 203.35 402.453 203.35 401.668C203.35 400.408 204.041 399.215 205.298 398.307C206.551 397.401 208.234 396.875 210.037 396.824V390.657L207.098 389.478ZM131.628 375.103L101.156 387.332L92.3971 390.848L103.919 395.472L145.128 412.009L178.777 398.505C177.734 397.708 177.16 396.674 177.16 395.597C177.16 394.909 177.384 394.252 177.828 393.644L131.628 375.103ZM253.29 367.815L230.458 376.977V378.935L271.666 395.472L312.788 411.975L336.034 402.646C335.825 402.339 335.719 402.01 335.719 401.668C335.719 400.399 337.205 399.366 339.031 399.366C339.411 399.366 339.782 399.41 340.134 399.497V398.188C339.207 398.13 338.349 397.834 337.718 397.356C337.083 396.875 336.732 396.25 336.732 395.597C336.732 395.218 336.848 394.85 337.076 394.506L270.565 367.815C269.665 368.815 268.411 369.651 266.938 370.231C265.418 370.83 263.686 371.147 261.927 371.147C260.169 371.147 258.437 370.83 256.918 370.231C255.445 369.651 254.19 368.815 253.29 367.815ZM62.6833 381.261L31.5996 393.736C32.0205 394.318 32.2339 394.944 32.2339 395.595C32.2339 396.518 31.807 397.39 30.999 398.119L49.0833 405.376L81.328 392.436V388.744L62.6833 381.261ZM395.292 373.871L343.876 394.506C344.104 394.852 344.22 395.219 344.22 395.597C344.22 396.25 343.869 396.875 343.233 397.356C342.601 397.834 341.743 398.13 340.816 398.188V399.728C341.212 399.905 341.543 400.133 341.8 400.403L395.292 378.935V373.871ZM203.203 387.915L188.929 393.644C189.081 393.855 189.208 394.07 189.305 394.28L204.184 388.308L203.203 387.915ZM314.303 280.28L268.867 298.514C269.445 299.283 269.75 300.152 269.75 301.025C269.75 302.437 268.976 303.774 267.569 304.791C266.169 305.805 264.287 306.397 262.269 306.458V357.003C264.915 357.063 267.389 357.825 269.235 359.149C271.086 360.475 272.105 362.223 272.105 364.073C272.105 365.233 271.691 366.384 270.91 367.402L337.42 394.093C338.12 393.405 339.263 392.994 340.476 392.994C341.691 392.994 342.833 393.405 343.532 394.093L395.292 373.323V312.782L314.303 280.28ZM61.2554 380.689L30.808 392.908C30.9684 393.038 31.1188 393.178 31.2559 393.323L61.9975 380.987L61.8431 380.924L61.2554 380.689ZM183.38 391.273C185.485 391.273 187.431 392.005 188.585 393.232L202.517 387.64L151.453 367.146L132.312 374.828L178.172 393.232C179.326 392.005 181.273 391.273 183.38 391.273ZM81.8884 388.969V392.212L85.9277 390.59L81.8884 388.969ZM97.2456 367.39L81.8884 373.553V386.629L88.841 389.421L108.255 381.629L128.074 373.676L112.415 367.392C110.761 369.213 107.924 370.301 104.828 370.301C101.731 370.301 98.897 369.212 97.2456 367.39ZM210.037 385.172L206.756 386.488L207.739 386.883L210.037 385.96V385.172ZM81.328 373.778L65.5966 380.092L81.328 386.405V373.778ZM153.23 327.326V365.007L206.074 386.214L210.037 384.622V352.936C207.832 352.834 206.104 351.55 206.104 350.012C206.104 349.557 206.249 349.122 206.536 348.719L153.23 327.326ZM227.546 378.145L210.596 384.948V385.736L227.546 378.935V378.145ZM210.318 347.082C212.642 347.082 214.532 348.397 214.532 350.012C214.532 351.551 212.803 352.836 210.596 352.936V384.399L227.546 377.596V312.783L154.858 283.612L153.23 284.265V321.53C153.846 322.342 154.172 323.261 154.172 324.185C154.172 325.109 153.846 326.027 153.23 326.839V326.876L206.815 348.383C207.602 347.568 208.912 347.082 210.318 347.082ZM98.0773 298.589L62.7139 312.783V378.935L64.9124 379.815L81.328 373.228V354.721C79.5777 354.672 77.942 354.16 76.7235 353.28C75.5023 352.397 74.8297 351.237 74.8297 350.012C74.8297 347.413 77.87 345.299 81.6074 345.299C83.941 345.299 86.0813 346.118 87.3331 347.49L104.487 340.606V303.584C103.572 303.525 102.726 303.233 102.105 302.762C101.478 302.287 101.132 301.67 101.132 301.025C101.132 300.649 101.246 300.288 101.471 299.95L98.0773 298.589ZM254.674 303.064L230.458 312.783V376.427L252.946 367.402C252.164 366.384 251.751 365.233 251.751 364.073C251.751 362.223 252.77 360.475 254.62 359.149C256.465 357.825 258.94 357.063 261.587 357.003V306.458C258.534 306.365 255.82 305.033 254.674 303.064ZM139 327.202L105.17 340.78V357.848C107.491 357.909 109.661 358.584 111.278 359.747C112.899 360.913 113.791 362.45 113.791 364.074C113.791 365.087 113.433 366.091 112.757 366.978L128.759 373.401L149.673 365.007V329.274C148.514 329.683 147.266 329.891 145.963 329.891C144.548 329.891 143.151 329.635 141.925 329.152C140.735 328.683 139.724 328.009 139 327.202ZM104.487 341.054L87.6157 347.826C88.1214 348.498 88.3884 349.255 88.3884 350.012C88.3884 351.237 87.7154 352.398 86.4929 353.28C85.2725 354.161 83.6371 354.672 81.8884 354.721V373.004L96.9019 366.978C96.2261 366.091 95.8691 365.086 95.8691 364.074C95.8691 362.452 96.7612 360.915 98.3812 359.747C99.9989 358.584 102.167 357.909 104.487 357.848V341.054ZM334.112 272.33L317.215 279.11L398.204 311.612V372.154L410.484 367.225C409.746 366.263 409.356 365.172 409.356 364.073C409.356 362.318 410.322 360.658 412.077 359.398C413.828 358.141 416.174 357.415 418.684 357.356V307.167C416.394 307.106 414.255 306.44 412.66 305.292C411.062 304.141 410.182 302.626 410.182 301.025C410.182 300.028 410.534 299.036 411.2 298.158L346.841 272.331C345.444 273.847 343.064 274.752 340.476 274.752C337.887 274.752 335.508 273.846 334.112 272.33ZM148.474 283.783L108.186 299.95C108.412 300.289 108.526 300.651 108.526 301.025C108.526 301.67 108.182 302.287 107.555 302.762C106.933 303.233 106.086 303.525 105.17 303.584V340.331L138.72 326.866C138.091 326.049 137.758 325.122 137.758 324.185C137.758 321.04 141.439 318.48 145.963 318.48C147.269 318.48 148.517 318.687 149.673 319.095V284.265L148.474 283.783ZM183.043 272.301L157.771 282.443L229.003 311.029L254.105 300.953C254.122 300.091 254.419 299.271 254.989 298.514L186.695 271.108C185.939 271.862 184.7 272.312 183.38 272.312C183.28 272.312 183.173 272.308 183.043 272.301ZM104.829 298.455C106.025 298.455 107.152 298.861 107.845 299.54L147.791 283.509L141.722 281.074L98.7615 298.315L101.813 299.54C102.506 298.861 103.634 298.455 104.829 298.455ZM312.876 279.707L268.093 297.679C268.244 297.813 268.385 297.952 268.525 298.103L313.618 280.005L312.876 279.707ZM255.603 189.401V243.182L187.04 270.697L255.331 298.103C256.777 296.528 259.243 295.588 261.927 295.588C263.269 295.588 264.59 295.827 265.749 296.28L311.125 278.07L311.418 277.954V211.802L255.603 189.401ZM49.0833 243.895L37.1986 248.665L26.6208 252.909V263.591C28.8206 263.651 30.876 264.293 32.4076 265.397C33.9436 266.507 34.7894 267.964 34.7894 269.503C34.7894 270.46 34.4522 271.411 33.8146 272.252L95.8466 297.146L138.809 279.905L49.0833 243.895ZM229.003 178.724L146.584 211.802V277.953L154.109 280.974L179.718 270.695C179.464 270.318 179.336 269.916 179.336 269.5C179.336 267.952 181.15 266.692 183.38 266.692C184.746 266.692 186.008 267.165 186.757 267.957L252.046 241.756V187.975L229.003 178.724ZM50.861 182.931V241.755L142.364 278.478L143.67 277.953V211.802L92.0469 191.083L86.8704 193.16C87.3001 193.739 87.5272 194.392 87.5272 195.047C87.5272 197.315 84.8717 199.161 81.6074 199.161C78.3432 199.161 75.6876 197.315 75.6876 195.047C75.6876 194.383 75.9087 193.748 76.3445 193.159L50.861 182.931ZM26.2803 202.877C29.118 202.877 31.4263 204.481 31.4263 206.453C31.4263 208.333 29.3154 209.901 26.6208 210.023V250.057L35.1042 246.652L47.3053 241.755V184.324L9.56321 199.473L22.0051 204.465C22.9622 203.471 24.561 202.877 26.2803 202.877ZM139.808 171.915L94.9602 189.913L145.128 210.049L229.003 176.386L252.046 185.636V161.012L151.451 120.644L146.245 122.734V164.167C148.128 164.215 149.888 164.763 151.199 165.708C152.514 166.654 153.238 167.901 153.238 169.22C153.238 172.008 149.975 174.277 145.963 174.277C143.452 174.277 141.151 173.394 139.808 171.915ZM81.6074 190.932C83.6299 190.932 85.492 191.639 86.5894 192.824L91.4877 190.858L61.2554 178.724L51.3783 182.69L76.6271 192.823C77.7217 191.639 79.5838 190.932 81.6074 190.932ZM61.2546 176.386L94.3998 189.689L139.528 171.578C138.972 170.844 138.69 170.05 138.69 169.22C138.69 167.902 139.414 166.655 140.729 165.708C142.043 164.762 143.803 164.215 145.686 164.167V122.96L101.156 140.828L50.861 161.014V180.559L61.2554 176.387L61.2546 176.386ZM17.534 149.066V166.636C18.4675 166.684 19.3358 166.975 19.9782 167.453C20.6234 167.935 20.9788 168.563 20.9788 169.22C20.9788 169.613 20.855 169.99 20.6109 170.343L47.3053 181.056V161.014L17.534 149.066ZM74.2565 94.9116L19.8274 116.754C19.9939 117.013 20.0779 117.286 20.0779 117.564C20.0779 118.579 18.9845 119.42 17.534 119.52V146.211L49.0849 158.874L90.9692 142.063L144.441 120.602C142.583 120.152 141.335 118.931 141.335 117.564C141.335 117.061 141.499 116.577 141.823 116.125L88.96 94.9102C88.197 95.7637 87.1293 96.4764 85.8746 96.9711C84.5818 97.4817 83.1069 97.7513 81.609 97.7513C80.1104 97.7513 78.6347 97.4817 77.3418 96.9711C76.0856 96.4758 75.0187 95.7636 74.2565 94.9116ZM345.008 580.388H345.005H335.944C337.269 579.72 338.836 579.367 340.476 579.367C342.116 579.367 343.682 579.72 345.005 580.387L345.008 580.388ZM191.413 580.388H191.412H175.342C177.29 578.654 180.22 577.66 183.38 577.66C186.538 577.66 189.465 578.654 191.412 580.387L191.413 580.388ZM16.1238 580.388H14.7586L-4.9992 572.46V571.911L16.1238 580.387V580.388ZM17.253 324.599C16.9242 324.599 16.6569 324.414 16.6569 324.185C16.6569 323.957 16.9242 323.772 17.253 323.772C17.5807 323.772 17.8472 323.957 17.8472 324.185C17.8472 324.414 17.5807 324.599 17.253 324.599ZM81.6074 249.94C79.0391 249.94 76.9499 248.487 76.9499 246.701C76.9499 244.916 79.0391 243.463 81.6074 243.463C84.1774 243.463 86.2682 244.916 86.2682 246.701C86.2682 248.487 84.1774 249.94 81.6074 249.94ZM-4.9992 19.0951L-5 19.0938L-4.99879 19.0934L-4.9992 16.2426L33.0661 0.965332H40.1762L-4.9992 19.0951Z" fill="url(#paint0_linear_1_2780)"/>
<defs>
<linearGradient id="paint0_linear_1_2780" x1="-5" y1="594.47" x2="671.168" y2="594.47" gradientUnits="userSpaceOnUse">
<stop stop-opacity="0"/>
<stop offset="1"/>
</linearGradient>
</defs>
</svg>
