<svg width="640" height="580" viewBox="0 0 640 580" fill="none" xmlns="http://www.w3.org/2000/svg">
<path opacity="0.12" d="M232.242 580L233.604 579.999L272.106 564.543L309.216 579.441C309.082 579.618 308.956 579.807 308.844 579.999H324.431V579.046L344.909 570.826L361.776 577.598V579.999H365.334V579.027L367.756 579.999L369.125 579.999L365.334 578.477V562.626L374.774 558.836C376.076 560.265 378.304 561.118 380.732 561.118C383.16 561.118 385.388 560.265 386.69 558.835L414.428 569.971L389.446 579.999L390.815 579.999L415.111 570.247L439.408 579.999L450.859 579.999L487.909 565.124L489.38 565.714V579.999H492.295V566.885L524.962 579.999L526.333 579.999L497.639 568.479L492.295 566.335V563.365L502.757 559.164C504.23 560.799 506.763 561.775 509.533 561.775C512.302 561.775 514.835 560.799 516.309 559.164L557.43 575.672L546.652 579.999L548.023 579.999L558.116 575.947L564.919 578.679C564.591 579.103 564.324 579.547 564.127 579.999L583.739 579.999C583.543 579.547 583.276 579.103 582.945 578.679L630.912 559.423L657.241 569.992V579.999H660.158V571.163L682.171 579.999L683.539 579.999L660.158 570.612V565.206L697.007 579.999L698.126 579.999L660.158 564.757V514.29L695.872 499.953L721.211 510.125L724.999 511.645V508.788L722.99 507.983L699.431 498.525L724.999 488.259V485.918L696.514 497.354L676.619 489.368L699.992 479.983C700.617 480.608 701.642 480.981 702.732 480.981C704.572 480.981 706.07 479.94 706.07 478.661C706.07 478.075 705.755 477.516 705.183 477.085C704.613 476.657 703.841 476.395 703.012 476.348V462.145L709.185 464.624L724.999 470.973V470.422L703.012 461.595V460.148C703.302 459.496 703.448 458.819 703.448 458.133C703.448 457.448 703.302 456.77 703.012 456.119V428.036C703.767 427.943 704.315 427.488 704.315 426.953C704.315 426.347 703.605 425.854 702.732 425.854C702.268 425.854 701.828 425.995 701.525 426.242L694.04 423.238V399.159C696.442 399.064 698.513 397.983 699.317 396.406L724.999 406.715V404.374L702.042 395.16L724.999 385.945V383.087L699.206 393.442C699.142 393.335 699.081 393.243 699.019 393.161L724.999 382.732V382.183L698.68 392.749C697.57 391.579 695.708 390.88 693.698 390.88C693.076 390.88 692.462 390.946 691.874 391.077L660.158 378.345V312.126L687.869 301.002L724.999 286.097V283.756L700.459 293.608L658.7 310.372L624.767 296.748L686.499 271.969C688.075 273.694 690.767 274.724 693.698 274.724C695.282 274.724 696.826 274.42 698.163 273.846C699.161 274.94 700.869 275.594 702.732 275.594C704.277 275.594 705.753 275.133 706.78 274.329L719.575 279.466L724.999 281.642V281.093L707.205 273.949C707.818 273.324 708.141 272.592 708.141 271.834C708.141 269.761 705.714 268.074 702.732 268.074C702.544 268.074 702.349 268.081 702.153 268.094C701.915 266.708 700.969 265.417 699.488 264.462C698.002 263.502 696.067 262.943 694.04 262.887V252.468L724.999 264.896V262.041L694.04 249.613V209.266C696.734 209.142 698.846 207.572 698.846 205.692C698.846 205.138 698.668 204.607 698.319 204.113L711.11 198.977L724.999 204.553V202.212L714.026 197.807L724.999 193.401V192.853L713.342 197.533L672.659 181.201V180.718L699.651 169.882C700.349 170.59 701.5 171.013 702.732 171.013C704.788 171.013 706.462 169.851 706.462 168.422C706.462 167.071 704.947 165.934 703.012 165.835V148.023L709.514 145.411L724.999 139.197V136.34L703.012 145.166V118.673C704.465 118.573 705.562 117.731 705.562 116.714C705.562 115.63 704.292 114.748 702.732 114.748C701.826 114.748 700.967 115.055 700.433 115.568L645.97 93.702C646.639 92.8337 646.992 91.8513 646.992 90.862C646.992 89.2533 646.092 87.7411 644.456 86.6038C642.821 85.4666 640.646 84.8404 638.331 84.8404C633.557 84.8404 629.672 87.5416 629.672 90.862C629.672 91.8507 630.025 92.8328 630.694 93.702L577.796 114.938C576.933 114.034 575.488 113.494 573.932 113.494C572.456 113.494 571.103 113.966 570.22 114.789V36.8344L661.968 0H654.853L566.661 35.406V117.656L464.218 158.779V186.283L405.447 209.876V277.263L403.245 278.147L385.997 271.222C386.551 270.484 386.844 269.647 386.844 268.804C386.844 265.905 383.453 263.546 379.285 263.546C375.117 263.546 371.725 265.905 371.725 268.804C371.725 269.646 372.018 270.482 372.573 271.222L308.17 297.077C306.537 295.279 303.737 294.205 300.681 294.205C295.802 294.205 291.833 296.965 291.833 300.358C291.833 301.961 292.715 303.477 294.315 304.629C295.907 305.778 298.048 306.445 300.343 306.506V356.744C297.831 356.804 295.481 357.531 293.73 358.789C291.974 360.05 291.008 361.711 291.008 363.468C291.008 365.266 292.014 366.955 293.841 368.226C295.668 369.496 298.098 370.195 300.681 370.195C302.349 370.195 303.995 369.895 305.44 369.328C306.841 368.775 308.033 367.983 308.887 367.035L321.518 372.107V379.514L377.73 402.081L321.739 424.558C320.555 423.266 318.534 422.494 316.333 422.494C314.132 422.494 312.109 423.265 310.923 424.557L257.431 403.084C257.891 402.467 258.123 401.799 258.123 401.101C258.123 398.726 255.345 396.794 251.931 396.794C248.516 396.794 245.739 398.726 245.739 401.101C245.739 401.791 245.978 402.476 246.431 403.084L193.665 424.266C192.327 422.793 190.034 421.913 187.532 421.913C183.533 421.913 180.281 424.174 180.281 426.953C180.281 428.266 181.003 429.509 182.313 430.454C183.622 431.396 185.377 431.942 187.252 431.991V473.151C185.193 473.201 183.268 473.797 181.833 474.827C180.396 475.861 179.604 477.222 179.604 478.661C179.604 481.699 183.16 484.171 187.532 484.171C190.28 484.171 192.794 483.204 194.255 481.582L234.509 497.742L158.672 528.188L56.2315 487.064L2.06828e-05 509.637V512.493L56.2315 489.919L156.893 530.33V579.999H160.451V530.33L238.067 499.171L249.144 503.619C248.96 503.894 248.863 504.204 248.863 504.513C248.863 505.051 249.15 505.564 249.671 505.957C250.189 506.349 250.892 506.591 251.653 506.638V549.681C249.199 549.729 246.901 550.431 245.185 551.658C243.467 552.887 242.521 554.507 242.521 556.219C242.521 557.302 242.908 558.375 243.643 559.322L192.718 579.767C191.581 578.531 189.642 577.793 187.532 577.793C185.294 577.793 183.231 578.638 182.147 579.999H193.258L243.924 559.658C244.753 560.589 245.914 561.368 247.281 561.91C248.692 562.468 250.3 562.763 251.931 562.763C253.562 562.763 255.17 562.468 256.58 561.91C257.949 561.368 259.111 560.589 259.939 559.658L271.426 564.269L232.241 579.999L232.242 580ZM461.658 554.586L487.351 564.9L465.065 573.846L450.346 579.755C449.2 578.513 447.25 577.771 445.131 577.771C443.012 577.771 441.064 578.513 439.919 579.754L415.672 570.02L454.12 554.586C454.972 555.452 456.381 555.97 457.889 555.97C459.396 555.97 460.804 555.452 461.658 554.586ZM316.333 576.469C314.943 576.469 313.572 576.72 312.368 577.193C311.202 577.651 310.209 578.312 309.496 579.103L272.665 564.318L293.789 555.84C295.3 557.489 297.876 558.475 300.681 558.475C303.489 558.475 306.065 557.49 307.574 555.84L320.962 561.214L321.516 561.437V577.784C320.067 576.936 318.226 576.469 316.333 576.469ZM324.431 562.607L344.347 570.601L343.557 570.919L324.431 578.596V562.607ZM566.66 572.517V577.053C566.101 577.445 565.61 577.879 565.201 578.342L558.674 575.723L566.66 572.517ZM624.157 556.71L630.355 559.198L624.423 561.578L582.664 578.342C581.762 577.323 580.497 576.472 579.006 575.881C577.47 575.27 575.715 574.947 573.932 574.947C572.654 574.947 571.405 575.109 570.218 575.43V571.089L606.032 556.711C606.973 557.763 608.288 558.641 609.835 559.252C611.432 559.882 613.252 560.215 615.097 560.215C616.941 560.215 618.759 559.881 620.355 559.251C621.902 558.64 623.216 557.761 624.157 556.71ZM361.776 564.055V577.049L345.971 570.704L345.592 570.552L361.776 564.055ZM510.602 507.826L566.66 530.33V571.968L557.991 575.447L516.589 558.827C517.199 558.03 517.521 557.129 517.521 556.221C517.521 554.771 516.722 553.399 515.272 552.357C513.827 551.319 511.889 550.719 509.814 550.668V507.901C510.084 507.891 510.349 507.865 510.602 507.826ZM614.754 512.451V545.385C611.976 545.446 609.379 546.245 607.442 547.633C605.499 549.024 604.43 550.858 604.43 552.798C604.43 554.02 604.865 555.231 605.69 556.3L583.7 565.127L570.218 570.539V530.33L614.754 512.451ZM324.431 515.338L361.776 530.33V563.604L345.03 570.325L324.431 562.058V515.338ZM447.334 497.411L457.546 501.51V549.633C456.4 549.693 455.336 550.049 454.55 550.635C453.761 551.224 453.326 551.992 453.326 552.797C453.326 553.28 453.478 553.744 453.776 554.174L437.937 560.534L414.987 569.746L386.971 558.499C387.498 557.801 387.776 557.013 387.776 556.221C387.776 554.947 387.077 553.739 385.806 552.821C384.538 551.906 382.836 551.375 381.013 551.325V524.036L447.334 497.411ZM641.66 557.78L657.241 564.035V569.442L650.525 566.746L631.597 559.147L635.003 557.78C635.753 558.551 636.998 559.011 638.333 559.011C639.667 559.011 640.911 558.551 641.66 557.78ZM489.38 564.534V565.165L488.595 564.849L489.38 564.534ZM458.229 501.785L489.38 514.29V564.086L488.036 564.625L462 554.173C462.299 553.741 462.45 553.278 462.45 552.797C462.45 551.991 462.015 551.223 461.225 550.635C460.44 550.049 459.376 549.693 458.229 549.633V501.785ZM274.979 495.486L300.343 505.668V547.127C298.236 547.187 296.266 547.803 294.799 548.862C293.328 549.926 292.518 551.324 292.518 552.797C292.518 553.713 292.84 554.623 293.448 555.428L271.985 564.044L260.219 559.322C260.954 558.374 261.342 557.301 261.342 556.219C261.342 554.506 260.396 552.886 258.678 551.658C256.961 550.432 254.665 549.73 252.212 549.68V506.639C252.972 506.59 253.676 506.347 254.192 505.956C254.713 505.563 255.001 505.05 255.001 504.513C255.001 504.201 254.906 503.901 254.719 503.62L274.979 495.486ZM639.718 507.255L657.241 514.29V563.586L641.941 557.443C642.21 557.058 642.346 556.647 642.346 556.221C642.346 554.759 640.706 553.536 638.612 553.435V507.413C638.99 507.395 639.362 507.342 639.718 507.255ZM508.416 507.817C508.69 507.863 508.972 507.891 509.255 507.901V550.668C507.181 550.718 505.241 551.317 503.792 552.356C502.341 553.398 501.542 554.771 501.542 556.221C501.542 557.13 501.865 558.031 502.476 558.828L492.295 562.915V514.29L508.416 507.818V507.817ZM380.454 524.26V551.325C378.632 551.374 376.929 551.905 375.66 552.82C374.387 553.737 373.686 554.945 373.686 556.221C373.686 557.014 373.966 557.802 374.495 558.5L365.334 562.176V530.33L380.454 524.26ZM301.023 505.94L321.516 514.167V560.887L307.918 555.427C308.525 554.623 308.845 553.713 308.845 552.797C308.845 551.321 308.036 549.924 306.566 548.864C305.1 547.804 303.132 547.187 301.023 547.127V505.94ZM633.707 504.842L634.225 505.05C634.575 506.352 636.149 507.324 638.052 507.413V553.435C635.958 553.536 634.318 554.76 634.318 556.221C634.318 556.649 634.454 557.061 634.723 557.444L631.04 558.923L624.5 556.298C625.326 555.229 625.762 554.018 625.762 552.798C625.762 550.858 624.692 549.023 622.749 547.633C620.811 546.245 618.214 545.446 615.437 545.385V512.177L633.707 504.842ZM364.48 498.214L376.182 502.912C375.817 503.413 375.632 503.952 375.632 504.513C375.632 506.397 377.75 507.952 380.454 508.053V521.403L363.555 528.188L326.685 513.385L364.48 498.214ZM576.61 481.92L614.754 497.233V509.595L568.439 528.188L513.744 506.231C513.941 505.996 514.096 505.748 514.205 505.494L558.555 487.689L572.195 482.214C572.753 482.346 573.338 482.413 573.932 482.413C574.871 482.413 575.796 482.243 576.61 481.92ZM423.16 487.706L434.291 492.174L443.778 495.983L381.013 521.179V508.053C383.716 507.95 385.833 506.395 385.833 504.513C385.833 503.951 385.648 503.413 385.283 502.912L396.002 498.609L423.16 487.706ZM467.639 490.578L504.872 505.525C505.045 505.909 505.311 506.264 505.662 506.582L490.835 512.534L490.685 512.474L458.229 499.445V496.52C460.562 496.466 462.796 495.832 464.52 494.737C466.235 493.646 467.343 492.17 467.639 490.578ZM673.062 490.794L692.957 498.781L658.699 512.534L642.045 505.849C642.35 505.439 642.511 504.977 642.511 504.513C642.511 504.064 642.367 503.633 642.084 503.233L673.062 490.794ZM323.415 481.727L361.565 497.043L323.769 512.215L301.023 503.085V494.906C302.958 494.846 304.764 494.276 306.106 493.302C307.454 492.326 308.196 491.042 308.196 489.689C308.196 488.842 307.913 488.033 307.356 487.284L314.67 484.348C315.214 484.424 315.773 484.462 316.332 484.462C317.773 484.462 319.194 484.202 320.441 483.71C321.649 483.234 322.677 482.548 323.415 481.727ZM615.437 497.508L630.151 503.414L615.437 509.319V497.508ZM261.114 489.919L274.418 495.26L254.438 503.281C253.861 502.717 252.924 502.38 251.931 502.38C250.937 502.38 250 502.717 249.424 503.281L238.627 498.947L261.114 489.919ZM569.403 480.702C569.482 480.787 569.551 480.855 569.612 480.911L545.722 490.503L514.045 503.218C513.988 503.124 513.939 503.051 513.893 502.988L569.403 480.702ZM670.879 489.919L672.501 490.57L641.803 502.894C641.485 502.566 641.081 502.29 640.602 502.075L670.879 489.919ZM293.556 488.028C293.299 488.563 293.169 489.122 293.169 489.689C293.169 491.043 293.911 492.327 295.258 493.303C296.6 494.277 298.406 494.846 300.343 494.906V502.811L278.536 494.058L293.556 488.028ZM543.763 461.326L573.312 473.188V474.933C570.588 475.149 568.534 476.752 568.534 478.661C568.534 479.263 568.732 479.836 569.122 480.366L513.612 502.65C512.705 501.692 511.18 501.119 509.533 501.119C507.885 501.119 506.36 501.691 505.453 502.648L494.495 498.251L467.776 487.524V485.994L529.221 461.327C530.809 463.071 533.527 464.111 536.49 464.111C539.456 464.111 542.175 463.07 543.763 461.326ZM380.732 500.966C379.004 500.966 377.409 501.567 376.463 502.574L365.04 497.988L406.906 481.181L422.597 487.482L385.002 502.574C384.052 501.567 382.455 500.966 380.732 500.966ZM669.1 468.282V487.777L637.476 500.473L633.153 502.208L615.437 495.097V494.934C617.383 494.874 619.197 494.302 620.546 493.323C621.901 492.34 622.647 491.05 622.647 489.689C622.647 488.846 622.354 488.01 621.802 487.272L635.123 481.923L669.1 468.282ZM452.418 495.371C453.942 496.081 455.715 496.478 457.546 496.521V499.169L450.25 496.24L452.418 495.371ZM261.114 487.064L235.069 497.518L194.533 481.246C195.137 480.456 195.457 479.562 195.457 478.661C195.457 477.221 194.665 475.859 193.226 474.826C191.794 473.796 189.87 473.201 187.81 473.151V431.991C189.688 431.942 191.442 431.395 192.747 430.454C194.058 429.509 194.78 428.266 194.78 426.953C194.78 426.137 194.491 425.324 193.944 424.603L246.711 403.42C247.856 404.665 249.808 405.408 251.931 405.408C254.054 405.408 256.005 404.665 257.151 403.42L310.641 424.894C310.168 425.526 309.919 426.238 309.919 426.953C309.919 428.11 310.554 429.207 311.706 430.042C312.855 430.874 314.399 431.36 316.054 431.409V472.861C313.883 472.912 311.854 473.537 310.34 474.622C308.823 475.711 307.987 477.146 307.987 478.661C307.987 479.613 308.326 480.558 308.968 481.393L301.276 484.48C301.096 484.469 300.896 484.463 300.681 484.463C299.236 484.463 297.832 484.75 296.621 485.291C295.441 485.82 294.499 486.563 293.897 487.441L277.977 493.832L261.114 487.064ZM389.057 462.33L405.447 468.91V479.426L362.126 496.817L323.697 481.391C323.912 481.11 324.096 480.811 324.245 480.503L369.513 462.331C370.526 463.467 371.943 464.416 373.611 465.076C375.33 465.758 377.293 466.118 379.285 466.118C381.277 466.118 383.239 465.758 384.96 465.076C386.626 464.417 388.043 463.467 389.057 462.33ZM437.714 481.863L449.203 486.476C448.452 487.457 448.055 488.568 448.055 489.689C448.055 491.086 448.655 492.428 449.79 493.57L446.692 494.812L426.075 486.535L437.714 481.863ZM576.227 474.358L576.833 474.603L608.388 487.27C607.834 488.012 607.541 488.848 607.541 489.689C607.541 490.624 607.899 491.542 608.574 492.343L578.741 480.366C579.131 479.833 579.329 479.259 579.329 478.661C579.329 477.934 579.03 477.23 578.464 476.624C577.916 476.033 577.142 475.563 576.227 475.263V474.358ZM701.968 461.727L702.45 461.922V476.348C701.618 476.397 700.848 476.659 700.282 477.086C699.711 477.515 699.396 478.075 699.396 478.661C699.396 479.001 699.505 479.341 699.714 479.646L676.059 489.142L672.659 487.777V466.853L685.427 461.729C686.289 462.684 687.491 463.483 688.902 464.039C690.356 464.611 692.015 464.913 693.698 464.913C695.378 464.913 697.036 464.61 698.494 464.037C699.906 463.482 701.107 462.683 701.968 461.727ZM309.25 481.729C310.288 482.884 311.88 483.753 313.733 484.174L307.013 486.873C305.92 485.686 304.157 484.846 302.177 484.567L309.25 481.729ZM643.86 403.544L669.1 413.677V467.733L652.805 474.274L621.459 486.859C620.063 485.341 617.684 484.435 615.097 484.435C612.511 484.435 610.132 485.341 608.731 486.857L576.227 473.809V428.973C577.122 428.482 577.635 427.746 577.635 426.953C577.635 426.565 577.512 426.19 577.27 425.839L632.806 403.544C634.016 404.865 636.082 405.653 638.331 405.653C640.58 405.653 642.646 404.865 643.86 403.544ZM408.364 470.081L419.627 474.603L437.153 481.639L425.514 486.311L408.364 479.425V470.081ZM451.35 481.379L455.513 483.05C454.275 483.264 453.123 483.639 452.09 484.164C451.069 484.684 450.213 485.323 449.546 486.064L443.524 483.646C444.053 483.728 444.594 483.769 445.131 483.769C447.671 483.769 449.995 482.876 451.351 481.38L451.35 481.379ZM515.431 403.693L536.151 412.01V452.157C533.926 452.217 531.849 452.866 530.301 453.983C528.748 455.103 527.892 456.577 527.892 458.133C527.892 459.102 528.233 460.063 528.879 460.915L481.925 479.764L467.776 485.444V418.088L503.633 403.693C504.923 405.106 507.129 405.951 509.533 405.951C511.938 405.951 514.143 405.106 515.431 403.693ZM464.218 419.516V484.454C462.45 483.42 460.202 482.85 457.889 482.85C457.363 482.85 456.843 482.878 456.343 482.934L451.63 481.044C452.186 480.315 452.479 479.491 452.479 478.661C452.479 477.329 451.747 476.069 450.419 475.112C449.093 474.157 447.315 473.604 445.412 473.554V429.051C446.161 429.004 446.855 428.764 447.367 428.377C447.88 427.988 448.162 427.482 448.162 426.953C448.162 426.644 448.069 426.348 447.886 426.073L464.218 419.516ZM438.913 481.382C439.152 481.645 439.427 481.894 439.731 482.123L438.397 481.589L438.913 481.382ZM409.349 412.813L442.376 426.073C442.193 426.349 442.1 426.646 442.1 426.953C442.1 427.482 442.383 427.988 442.897 428.378C443.407 428.765 444.102 429.004 444.853 429.051V473.554C442.949 473.604 441.171 474.157 439.846 475.111C438.516 476.069 437.783 477.33 437.783 478.661C437.783 479.49 438.077 480.314 438.633 481.045L437.84 481.363L417.547 473.218L408.364 469.532V413.208L409.349 412.813ZM378.009 402.416C378.26 402.665 378.575 402.875 378.945 403.04V450.151C375.948 450.212 373.144 451.069 371.052 452.565C368.955 454.063 367.801 456.041 367.801 458.133C367.801 459.455 368.274 460.764 369.17 461.92L324.499 479.851C324.616 479.467 324.674 479.066 324.674 478.661C324.674 477.145 323.839 475.711 322.323 474.622C320.809 473.537 318.78 472.912 316.611 472.861V431.409C318.263 431.361 319.807 430.875 320.957 430.043C322.11 429.209 322.744 428.111 322.744 426.953C322.744 426.239 322.493 425.527 322.019 424.894L378.009 402.416ZM536.834 412.286L570.598 425.839C570.355 426.187 570.233 426.562 570.233 426.953C570.233 427.566 570.546 428.159 571.116 428.624C571.68 429.084 572.459 429.392 573.31 429.491L573.312 472.638L544.106 460.915C544.751 460.062 545.092 459.1 545.092 458.133C545.092 456.578 544.237 455.104 542.684 453.985C541.137 452.868 539.059 452.219 536.834 452.157V412.286ZM381.01 403.397L405.447 413.208V468.361L389.401 461.917C390.296 460.762 390.769 459.453 390.769 458.133C390.769 456.041 389.614 454.063 387.518 452.565C385.425 451.069 382.623 450.212 379.628 450.151V403.275C379.983 403.361 380.355 403.405 380.732 403.405C380.829 403.405 380.922 403.402 381.01 403.397ZM672.659 415.105L693.357 423.415V451.357C690.826 451.417 688.458 452.149 686.691 453.417C684.922 454.688 683.947 456.362 683.947 458.133C683.947 459.243 684.341 460.344 685.085 461.316L672.659 466.304V415.105ZM694.04 423.689L701.244 426.581C701.182 426.699 701.15 426.824 701.15 426.953C701.15 427.486 701.697 427.941 702.45 428.035V455.145C700.859 452.895 697.636 451.444 694.04 451.357V423.689ZM490.835 380.101L509.197 387.472L464.218 405.527V419.068L447.606 425.735C447.038 425.179 446.113 424.847 445.131 424.847C444.149 424.847 443.225 425.179 442.658 425.734L409.908 412.589L490.835 380.101ZM538.319 399.161L573.312 413.208V424.414C572.329 424.53 571.441 424.927 570.877 425.501L536.834 411.836V399.344C537.334 399.325 537.834 399.263 538.319 399.161ZM630.453 391.441L638.052 394.491V396.551C636.362 396.601 634.785 397.096 633.611 397.945C632.433 398.798 631.784 399.918 631.784 401.1C631.784 401.833 632.04 402.561 632.524 403.206L601.262 415.756L576.987 425.501C576.781 425.289 576.524 425.097 576.227 424.933V413.208L630.453 391.441ZM692.335 399.057C692.671 399.111 693.015 399.145 693.357 399.159V422.965L672.659 414.655V406.956L692.335 399.057ZM509.255 390.304V396.252C507.448 396.301 505.761 396.828 504.508 397.735C503.247 398.643 502.553 399.839 502.553 401.101C502.553 401.887 502.83 402.667 503.354 403.356L467.776 417.638V406.956L509.255 390.304ZM638.612 394.715L669.1 406.956V413.227L644.14 403.206C644.624 402.562 644.88 401.833 644.88 401.1C644.88 399.918 644.231 398.798 643.053 397.945C641.879 397.096 640.302 396.601 638.612 396.551V394.715ZM512.755 388.899L530.425 395.992C531.038 397.862 533.393 399.241 536.151 399.344V411.561L515.856 403.414L515.71 403.355C516.231 402.667 516.507 401.887 516.507 401.101C516.507 399.84 515.814 398.645 514.557 397.736C513.303 396.83 511.619 396.303 509.814 396.252V390.078L512.755 388.899ZM588.278 374.51L618.771 386.75L627.536 390.27L616.006 394.898L574.768 411.452L541.096 397.935C542.14 397.137 542.715 396.102 542.715 395.023C542.715 394.335 542.49 393.678 542.046 393.069L588.278 374.51ZM466.532 367.214L489.38 376.385V378.345L448.143 394.898L406.993 411.418L383.731 402.08C383.94 401.772 384.046 401.443 384.046 401.101C384.046 399.83 382.559 398.796 380.732 398.796C380.351 398.796 379.98 398.84 379.628 398.927V397.618C380.555 397.559 381.414 397.263 382.045 396.784C382.681 396.303 383.032 395.677 383.032 395.023C383.032 394.644 382.916 394.276 382.688 393.931L449.245 367.214C450.145 368.215 451.4 369.052 452.874 369.632C454.395 370.232 456.129 370.55 457.889 370.55C459.648 370.55 461.381 370.232 462.901 369.632C464.376 369.052 465.631 368.215 466.532 367.214ZM657.27 380.674L688.375 393.161C687.954 393.743 687.74 394.37 687.74 395.022C687.74 395.945 688.168 396.819 688.976 397.549L670.879 404.813L638.612 391.86V388.163L657.27 380.674ZM324.431 373.276L375.883 393.931C375.655 394.278 375.539 394.646 375.539 395.023C375.539 395.677 375.89 396.303 376.526 396.784C377.159 397.263 378.018 397.559 378.945 397.618V399.159C378.549 399.336 378.218 399.564 377.961 399.835L324.431 378.345V373.276ZM516.653 387.334L530.938 393.069C530.785 393.28 530.658 393.495 530.561 393.706L515.671 387.728L516.653 387.334ZM405.477 279.592L450.944 297.844C450.366 298.614 450.06 299.483 450.06 300.358C450.06 301.771 450.835 303.11 452.243 304.127C453.644 305.142 455.527 305.735 457.546 305.796V356.391C454.898 356.451 452.423 357.214 450.576 358.539C448.724 359.866 447.704 361.617 447.704 363.468C447.704 364.629 448.118 365.782 448.9 366.801L382.344 393.519C381.643 392.829 380.5 392.418 379.285 392.418C378.069 392.418 376.926 392.829 376.227 393.519L324.431 372.727V312.126L405.477 279.592ZM658.699 380.101L689.167 392.332C689.007 392.462 688.856 392.602 688.719 392.748L657.956 380.399L658.111 380.336L658.699 380.101ZM536.49 390.695C534.383 390.695 532.436 391.428 531.281 392.656L517.339 387.059L568.439 366.545L587.593 374.234L541.702 392.656C540.547 391.428 538.598 390.695 536.49 390.695ZM638.052 388.389V391.635L634.01 390.012L638.052 388.389ZM622.684 366.788L638.052 372.958V386.047L631.094 388.841L611.667 381.042L591.835 373.081L607.504 366.791C609.159 368.614 611.998 369.702 615.097 369.702C618.195 369.702 621.031 368.613 622.684 366.788ZM509.814 384.588L513.098 385.906L512.114 386.301L509.814 385.377V384.588ZM638.612 373.183L654.355 379.503L638.612 385.823V373.183ZM566.661 326.685V364.403L513.781 385.632L509.814 384.038V352.32C512.021 352.218 513.75 350.933 513.75 349.394C513.75 348.938 513.605 348.502 513.318 348.099L566.661 326.685ZM492.293 377.555L509.255 384.364V385.152L492.293 378.345V377.555ZM509.533 346.461C507.208 346.461 505.316 347.776 505.316 349.394C505.316 350.934 507.046 352.22 509.255 352.32V383.815L492.293 377.004V312.127L565.032 282.928L566.661 283.582V320.883C566.044 321.696 565.718 322.616 565.718 323.541C565.718 324.466 566.044 325.385 566.661 326.198V326.235L513.039 347.763C512.251 346.947 510.94 346.461 509.533 346.461ZM621.852 297.919L657.239 312.128V378.345L655.039 379.227L638.612 372.633V354.107C640.364 354.058 642.001 353.546 643.22 352.664C644.442 351.781 645.115 350.62 645.115 349.394C645.115 346.792 642.073 344.675 638.333 344.675C635.998 344.675 633.856 345.495 632.603 346.868L615.437 339.978V302.919C616.353 302.86 617.2 302.568 617.821 302.096C618.449 301.621 618.795 301.004 618.795 300.358C618.795 299.982 618.68 299.62 618.456 299.281L621.852 297.919ZM465.146 302.399L489.38 312.128V375.835L466.876 366.801C467.658 365.782 468.072 364.629 468.072 363.468C468.072 361.617 467.052 359.867 465.201 358.539C463.354 357.214 460.878 356.451 458.229 356.391V305.796C461.284 305.703 464 304.369 465.146 302.399ZM580.901 326.561L614.754 340.152V357.237C612.431 357.298 610.26 357.974 608.642 359.138C607.02 360.306 606.127 361.844 606.127 363.469C606.127 364.483 606.485 365.489 607.162 366.377L591.148 372.806L570.22 364.403V328.635C571.38 329.045 572.629 329.252 573.932 329.252C575.349 329.252 576.746 328.996 577.974 328.513C579.164 328.043 580.176 327.368 580.901 326.561ZM615.437 340.426L632.32 347.205C631.814 347.878 631.547 348.635 631.547 349.394C631.547 350.62 632.221 351.782 633.444 352.664C634.665 353.546 636.302 354.058 638.052 354.107V372.409L623.028 366.377C623.704 365.488 624.061 364.482 624.061 363.469C624.061 361.845 623.169 360.307 621.547 359.138C619.929 357.974 617.759 357.298 615.437 357.237V340.426ZM385.654 271.634L402.562 278.421L321.518 310.955V371.557L309.229 366.624C309.968 365.661 310.358 364.569 310.358 363.468C310.358 361.711 309.391 360.05 307.635 358.789C305.883 357.53 303.535 356.804 301.023 356.744V306.506C303.315 306.445 305.456 305.778 307.052 304.629C308.651 303.477 309.531 301.96 309.531 300.358C309.531 299.36 309.179 298.367 308.513 297.488L372.917 271.635C374.314 273.153 376.696 274.059 379.285 274.059C381.876 274.059 384.257 273.152 385.654 271.634ZM571.42 283.099L611.736 299.281C611.51 299.621 611.395 299.984 611.395 300.358C611.395 301.004 611.74 301.621 612.367 302.096C612.99 302.568 613.838 302.86 614.754 302.919V339.703L581.181 326.225C581.811 325.407 582.143 324.479 582.143 323.541C582.143 320.392 578.46 317.831 573.932 317.831C572.626 317.831 571.377 318.038 570.22 318.446V283.582L571.42 283.099ZM536.828 271.606L562.116 281.757L490.835 310.372L465.716 300.285C465.7 299.423 465.402 298.602 464.831 297.844L533.173 270.411C533.929 271.165 535.169 271.616 536.49 271.616C536.59 271.616 536.697 271.613 536.828 271.606ZM615.095 297.786C613.898 297.786 612.77 298.191 612.077 298.871L572.103 282.825L578.176 280.387L621.167 297.645L618.113 298.871C617.42 298.192 616.291 297.786 615.095 297.786ZM406.904 279.019L451.719 297.008C451.568 297.142 451.426 297.282 451.286 297.433L406.162 279.317L406.904 279.019ZM464.218 188.623V242.457L532.827 269.999L464.489 297.433C463.043 295.856 460.575 294.915 457.889 294.915C456.546 294.915 455.224 295.155 454.064 295.608L408.656 277.38L408.364 277.264V211.046L464.218 188.623ZM670.879 243.171L682.772 247.946L693.357 252.194V262.887C691.156 262.947 689.099 263.589 687.567 264.695C686.029 265.805 685.183 267.264 685.183 268.804C685.183 269.762 685.521 270.714 686.159 271.556L624.084 296.475L581.092 279.216L670.879 243.171ZM490.835 177.936L573.312 211.046V277.263L565.781 280.286L540.154 269.998C540.408 269.62 540.537 269.218 540.537 268.801C540.537 267.252 538.722 265.991 536.49 265.991C535.123 265.991 533.86 266.464 533.11 267.257L467.776 241.03V187.195L490.835 177.936ZM669.1 182.147V241.029L577.534 277.788L576.227 277.263V211.046L627.886 190.306L633.066 192.386C632.636 192.966 632.409 193.619 632.409 194.274C632.409 196.545 635.066 198.392 638.333 198.392C641.599 198.392 644.257 196.545 644.257 194.274C644.257 193.61 644.035 192.974 643.599 192.385L669.1 182.147ZM693.698 202.113C690.858 202.113 688.549 203.718 688.549 205.692C688.549 207.573 690.661 209.143 693.357 209.266V249.339L684.868 245.931L672.659 241.029V183.541L710.427 198.704L697.976 203.702C697.018 202.707 695.419 202.113 693.698 202.113ZM580.092 171.119L624.971 189.135L574.768 209.291L490.835 175.595L467.776 184.854V160.206L568.441 119.798L573.651 121.89V163.363C571.767 163.412 570.005 163.96 568.693 164.906C567.377 165.853 566.653 167.102 566.653 168.422C566.653 171.213 569.919 173.484 573.932 173.484C576.446 173.484 578.748 172.6 580.092 171.119ZM638.333 190.155C636.309 190.155 634.446 190.863 633.347 192.05L628.446 190.081L658.699 177.936L668.583 181.905L643.317 192.048C642.221 190.863 640.358 190.155 638.333 190.155ZM658.7 175.595L625.532 188.911L580.372 170.783C580.929 170.048 581.211 169.253 581.211 168.422C581.211 167.103 580.486 165.854 579.17 164.906C577.855 163.96 576.094 163.412 574.21 163.363V122.115L618.771 140.002L669.1 160.207V179.772L658.699 175.596L658.7 175.595ZM702.45 148.248V165.835C701.516 165.884 700.647 166.174 700.005 166.653C699.359 167.136 699.003 167.764 699.003 168.422C699.003 168.815 699.127 169.193 699.371 169.546L672.659 180.27V160.207L702.45 148.248ZM645.689 94.0396L700.155 115.904C699.989 116.163 699.905 116.436 699.905 116.714C699.905 117.73 700.999 118.572 702.45 118.673V145.39L670.878 158.065L628.965 141.238L575.456 119.756C577.315 119.306 578.564 118.083 578.564 116.714C578.564 116.211 578.4 115.726 578.075 115.274L630.975 94.0382C631.739 94.8926 632.807 95.606 634.063 96.1012C635.356 96.6123 636.832 96.8822 638.331 96.8822C639.831 96.8822 641.308 96.6123 642.601 96.1012C643.858 95.6053 644.926 94.8924 645.689 94.0396ZM374.75 579.999H374.753H383.821C382.495 579.33 380.927 578.977 379.285 578.977C377.645 578.977 376.078 579.33 374.753 579.998L374.75 579.999ZM528.451 579.999H528.453H544.534C542.585 578.262 539.652 577.267 536.49 577.267C533.33 577.267 530.4 578.262 528.453 579.998L528.451 579.999ZM703.862 579.999H705.228L724.999 572.062V571.513L703.862 579.998V579.999ZM702.732 323.955C703.061 323.955 703.328 323.77 703.328 323.541C703.328 323.313 703.061 323.127 702.732 323.127C702.404 323.127 702.137 323.313 702.137 323.541C702.137 323.77 702.404 323.955 702.732 323.955ZM638.333 249.222C640.903 249.222 642.994 247.767 642.994 245.98C642.994 244.193 640.903 242.739 638.333 242.739C635.761 242.739 633.669 244.193 633.669 245.98C633.669 247.767 635.761 249.222 638.333 249.222ZM724.999 18.1478L725 18.1465L724.999 18.1461L724.999 15.2924L686.908 0H679.793L724.999 18.1478Z" fill="url(#paint0_linear_1_2780)"/>
<defs>
<linearGradient id="paint0_linear_1_2780" x1="725" y1="594.095" x2="48.3658" y2="594.095" gradientUnits="userSpaceOnUse">
<stop stop-opacity="0"/>
<stop offset="1"/>
</linearGradient>
</defs>
</svg>
