<svg width="124" height="124" viewBox="0 0 124 124" fill="none" xmlns="http://www.w3.org/2000/svg">
<path d="M7.52579 89.9957C8.04008 88.1589 8.55437 86.3222 9.10541 84.4854C9.80338 82.1711 10.6483 79.8934 11.1993 77.5424C11.383 76.7709 11.0891 75.6321 10.5748 75.0443C9.32583 73.5749 7.8564 72.3259 6.46046 71.0402C5.1747 69.8646 3.77875 68.7993 2.60321 67.5136C-0.482575 64.2074 -0.482575 60.644 2.67668 57.3745C4.21957 55.7582 5.98288 54.3622 7.70946 52.8928C11.8606 49.3295 12.0443 48.6315 10.2442 43.4517C9.47276 41.2109 8.59111 38.97 8.04008 36.6557C7.1217 32.8352 8.70131 29.8596 12.4483 28.6473C14.9464 27.8391 17.6281 27.5085 20.1996 26.9575C25.0119 25.9289 25.416 25.7819 26.5915 20.6389C27.0324 18.5817 27.1426 16.4511 27.6936 14.4306C29.0896 9.2509 32.3958 7.34065 37.5387 8.69988C39.3755 9.17744 41.1389 9.98562 42.9756 10.6101C44.0042 10.9775 45.0696 11.3081 46.0982 11.602C47.7513 12.0795 49.2207 11.602 50.3595 10.3897C51.5718 9.10396 52.6371 7.63454 53.8494 6.31206C55.0617 4.98958 56.2372 3.63036 57.5964 2.52829C60.425 0.250683 63.4374 0.213948 66.3028 2.45483C67.6987 3.52016 68.8742 4.91611 70.0865 6.20185C71.3723 7.63454 72.5478 9.1407 73.8703 10.5734C74.7887 11.602 75.9642 12.0428 77.3602 11.6387C79.3806 11.051 81.3643 10.3897 83.3848 9.7652C84.9277 9.28764 86.4338 8.7366 87.9767 8.40599C91.6503 7.63455 94.6259 9.17744 95.8014 12.7408C96.6096 15.2388 97.0504 17.8838 97.528 20.492C98.3729 25.2676 99.2546 26.1125 104.067 26.9575C106.124 27.3248 108.218 27.6187 110.275 28.133C115.492 29.4922 117.292 32.6882 115.786 37.8679C115.198 39.9619 114.353 42.019 113.655 44.0763C112.112 48.4845 112.332 49.3662 115.896 52.3785C117.586 53.8112 119.349 55.0969 120.892 56.6765C124.639 60.4971 124.639 64.3176 120.892 68.1381C119.055 69.9748 116.998 71.6279 114.977 73.2443C112.883 74.8974 112.296 76.8444 113.214 79.3057C114.059 81.5833 114.941 83.8609 115.565 86.1753C116.006 87.8283 116.373 89.6284 116.153 91.2815C115.786 94.1101 113.728 95.7265 111.083 96.4245C108.696 97.049 106.234 97.3796 103.81 97.8939C99.1076 98.9225 98.6668 99.0694 97.528 104.176C97.0872 106.233 96.977 108.364 96.4259 110.384C95.03 115.6 91.687 117.511 86.4706 116.115C84.6705 115.637 82.944 114.866 81.1807 114.241C80.1888 113.911 79.1969 113.58 78.1683 113.249C76.3683 112.698 74.7887 113.213 73.5396 114.572C72.3274 115.894 71.2988 117.364 70.0865 118.649C68.764 120.045 67.4783 121.515 65.9354 122.617C63.4741 124.417 60.7557 124.49 58.2577 122.654C56.678 121.478 55.2821 119.972 53.9229 118.503C52.7106 117.217 51.682 115.747 50.433 114.425C49.2574 113.176 47.7513 112.662 46.0247 113.213C44.2981 113.764 42.6083 114.498 40.845 115.013C38.8245 115.6 36.8041 116.262 34.7468 116.445C32.0284 116.703 29.8243 115.417 28.7589 112.919C27.8406 110.715 27.4365 108.29 26.812 105.976C26.7385 105.755 26.812 105.498 26.7752 105.278C25.6732 99.1062 25.1589 98.7756 19.8322 97.747C17.3342 97.2694 14.7627 96.8286 12.3381 96.0571C9.25234 95.2857 7.74619 93.008 7.52579 89.9957ZM62.0047 25.3044C42.9022 25.2309 25.0487 38.6394 24.6813 62.8114C24.3507 83.1262 41.5062 99.8776 61.9679 99.9143C82.5031 99.9511 99.7321 83.1629 99.3648 62.8114C98.924 38.4924 80.997 25.2309 62.0047 25.3044Z" fill="#95A5B8"/>
<path d="M62.0415 95.3227C45.1431 95.3594 29.4938 83.604 29.053 62.3341C28.6856 44.4439 43.784 29.5659 61.8211 29.4925C79.9685 29.419 95.177 44.15 94.9566 62.1137C94.6627 83.2366 79.197 95.2859 62.0415 95.3227ZM56.1638 71.1139C52.8209 67.7709 49.5882 64.5382 46.3187 61.3055C45.0697 60.0932 43.8207 59.983 42.8288 61.0116C41.8737 61.9667 41.9839 63.2157 43.1594 64.3913C46.833 68.1016 50.5433 71.7751 54.2536 75.4487C55.5761 76.7712 56.7148 76.7712 58.0373 75.4487C65.6049 67.8811 73.2091 60.3136 80.7767 52.7093C82.0257 51.4604 82.1359 50.2113 81.1073 49.2195C80.1154 48.2644 78.8664 48.3746 77.6174 49.6236C75.45 51.791 73.2826 53.9584 71.1152 56.1258C66.1559 61.0851 61.1966 66.0444 56.1638 71.1139Z" fill="#95A5B8"/>
</svg>
