<svg width="20" height="19" viewBox="0 0 20 19" fill="none" xmlns="http://www.w3.org/2000/svg">
<path d="M0.754799 15.4953C0.783615 15.38 0.807625 15.2648 0.836433 15.1495C1.27822 13.4736 3.27106 12.7581 4.67326 13.7713C4.77891 13.8482 4.84614 13.853 4.95658 13.7905C5.42718 13.5072 5.90738 13.2383 6.39238 12.9598C5.78252 11.7161 5.7345 10.4627 6.36357 9.22381C6.99264 7.98489 8.03468 7.28379 9.40326 7.04369C9.40326 6.64511 9.40326 6.24655 9.40326 5.85279C7.86661 5.44461 7.29036 4.02322 7.52087 2.92835C7.77537 1.72304 8.83662 0.901889 10.0755 0.94511C11.2664 0.98833 12.2557 1.90552 12.4141 3.14924C12.5534 4.25851 11.8811 5.49263 10.4981 5.84799C10.4981 6.24655 10.4981 6.64511 10.4981 7.04369C13.1777 7.40384 14.8776 10.3763 13.4802 13.0174C13.9988 13.3199 14.5174 13.6177 15.036 13.9154C16.2269 12.9454 17.6724 13.2431 18.4647 14.0691C19.2858 14.9286 19.3915 16.2492 18.7 17.2192C18.0085 18.194 16.7263 18.5349 15.6459 18.0452C14.6855 17.6082 13.7971 16.3548 14.3926 14.7894C13.8788 14.4916 13.3601 14.1939 12.8319 13.8866C12.0204 14.6741 11.0552 15.0919 9.92188 15.0823C8.7934 15.0727 7.8426 14.6453 7.03106 13.8338C6.52204 14.1267 6.00822 14.4244 5.50401 14.7173C5.56644 14.967 5.64326 15.2071 5.68169 15.452C5.87857 16.7342 4.99979 17.9635 3.70805 18.2228C2.42591 18.4821 1.12936 17.6562 0.822021 16.3884C0.798019 16.2828 0.77401 16.182 0.75 16.0763C0.754799 15.8794 0.754799 15.6874 0.754799 15.4953ZM9.9603 14.0018C11.5834 14.0018 12.9039 12.6861 12.9087 11.0582C12.9135 9.4207 11.593 8.09534 9.9651 8.09054C8.3372 8.08573 7.00704 9.40628 7.00704 11.0246C7.00224 12.6765 8.3132 14.0018 9.9603 14.0018ZM9.9651 2.01596C9.19197 2.01116 8.55811 2.64023 8.55811 3.41336C8.55811 4.17688 9.18237 4.81075 9.94109 4.81556C10.7142 4.82035 11.3529 4.19609 11.3577 3.42777C11.3625 2.65464 10.7382 2.02076 9.9651 2.01596ZM4.63484 15.7786C4.63004 15.0055 3.99618 14.3764 3.22304 14.3812C2.45952 14.386 1.83526 15.0151 1.83046 15.7786C1.83046 16.5517 2.45952 17.1856 3.23264 17.1856C4.01057 17.1856 4.63965 16.5517 4.63484 15.7786ZM16.6831 17.1856C17.4563 17.1856 18.0853 16.5517 18.0805 15.7786C18.0757 15.0151 17.4515 14.386 16.6831 14.386C15.91 14.3812 15.2761 15.0151 15.2761 15.7882C15.2761 16.5565 15.91 17.1856 16.6831 17.1856Z" fill="white"/>
</svg>
