<svg width="21" height="22" viewBox="0 0 21 22" fill="none" xmlns="http://www.w3.org/2000/svg">
<path d="M0.774414 5.3318C0.803589 4.78906 0.780243 4.17043 0.879448 3.57516C1.11289 2.15702 1.93578 1.29913 3.35976 1.07737C4.59115 0.884773 5.84589 0.884773 7.07728 1.07737C8.49543 1.29913 9.32997 2.13367 9.55173 3.55183C9.74432 4.78322 9.74432 6.03796 9.55173 7.26934C9.32997 8.69332 8.47791 9.53956 7.05393 9.74381C5.81087 9.91888 4.53863 9.93055 3.28972 9.7263C1.90659 9.4987 1.01952 8.51826 0.856102 7.12346C0.791916 6.55154 0.803589 5.97376 0.774414 5.3318ZM5.20392 8.45406C5.20392 8.44238 5.20392 8.43071 5.20392 8.41904C5.64745 8.41904 6.091 8.43655 6.53454 8.41321C7.51498 8.36067 8.10442 7.88213 8.18612 6.91919C8.26782 5.93291 8.27366 4.92328 8.19779 3.937C8.12192 2.97407 7.65504 2.50718 6.69212 2.42548C5.71749 2.34377 4.72537 2.34377 3.75077 2.42548C2.78199 2.50135 2.30344 2.98574 2.23341 3.94868C2.16338 4.94663 2.18089 5.95625 2.25092 6.9542C2.3151 7.80627 2.81117 8.26147 3.65155 8.37234C4.17096 8.44238 4.69035 8.43071 5.20392 8.45406Z" fill="black"/>
<path d="M16.2563 9.86053C15.7603 9.82553 15.1067 9.83134 14.4705 9.7263C13.1633 9.50455 12.2995 8.65248 12.0836 7.33939C11.8794 6.09048 11.8911 4.82407 12.0661 3.57517C12.2703 2.15118 13.1225 1.29913 14.5464 1.07737C15.7778 0.884773 17.0325 0.884773 18.2639 1.07737C19.6938 1.29913 20.5517 2.16869 20.7443 3.5985C20.9135 4.83574 20.9252 6.10215 20.7209 7.33939C20.4933 8.72251 19.5186 9.61543 18.1239 9.77299C17.5578 9.83134 16.98 9.82553 16.2563 9.86053ZM19.4078 5.40767C19.4137 5.40767 19.4137 5.40767 19.4195 5.40767C19.4195 4.96997 19.437 4.53228 19.4137 4.10041C19.3611 3.11412 18.8884 2.5247 17.9079 2.43716C16.9217 2.34961 15.9121 2.34961 14.9257 2.43132C13.9686 2.50717 13.5018 2.98573 13.426 3.94283C13.35 4.91161 13.35 5.89207 13.426 6.86082C13.5017 7.82961 13.9803 8.30231 14.9433 8.38402C15.9121 8.45989 16.8925 8.45989 17.8613 8.38402C18.8358 8.30815 19.2794 7.81793 19.3961 6.84332C19.4487 6.37061 19.4078 5.88622 19.4078 5.40767Z" fill="black"/>
<path d="M5.30281 12.1366C5.83389 12.1658 6.45834 12.1424 7.06528 12.2475C8.48927 12.4868 9.33549 13.3096 9.55724 14.7395C9.744 15.965 9.744 17.2139 9.55724 18.4395C9.33549 19.8693 8.50093 20.7097 7.06528 20.9256C5.83389 21.1124 4.57916 21.1182 3.34776 20.9198C1.9296 20.6922 1.07755 19.8284 0.879129 18.4103C0.709886 17.173 0.698213 15.9066 0.896646 14.6694C1.12423 13.2747 2.1047 12.3876 3.51116 12.2299C4.07726 12.16 4.64917 12.1658 5.30281 12.1366ZM8.27334 16.6011C8.26165 16.6011 8.24999 16.6011 8.23832 16.6011C8.23832 16.181 8.24999 15.7549 8.23832 15.3348C8.19747 14.3018 7.71307 13.7006 6.6976 13.6131C5.72301 13.5314 4.73089 13.5314 3.75627 13.6131C2.79334 13.689 2.32646 14.1617 2.2506 15.1188C2.17471 16.0934 2.17471 17.0856 2.2506 18.0601C2.32646 19.0173 2.79917 19.49 3.75627 19.5658C4.73672 19.6417 5.73467 19.6358 6.72096 19.56C7.60219 19.49 8.07491 19.0173 8.1858 18.2294C8.25581 17.6925 8.24414 17.1439 8.27334 16.6011Z" fill="black"/>
<path d="M11.9561 16.5135C11.9852 15.9708 11.9619 15.3522 12.0611 14.7569C12.2946 13.3388 13.1174 12.4809 14.5414 12.2591C15.7728 12.0665 17.0276 12.0665 18.259 12.2591C19.6771 12.4809 20.5116 13.3155 20.7334 14.7336C20.926 15.9649 20.926 17.2198 20.7334 18.4511C20.5116 19.8751 19.6595 20.7213 18.2356 20.9256C16.9926 21.1007 15.7203 21.1124 14.4714 20.908C13.0883 20.6805 12.2012 19.7 12.0436 18.3052C11.9794 17.7391 11.9852 17.1614 11.9561 16.5135ZM16.409 13.5898C16.409 13.584 16.409 13.584 16.409 13.578C15.9712 13.578 15.5335 13.5605 15.1017 13.584C14.1154 13.6364 13.5259 14.1091 13.4384 15.0896C13.3508 16.0759 13.3508 17.0855 13.4326 18.0718C13.5084 19.0289 13.987 19.4958 14.9441 19.5717C15.9129 19.6475 16.8933 19.6475 17.8621 19.5717C18.8308 19.4958 19.3036 19.0231 19.3853 18.0543C19.4612 17.0855 19.4612 16.105 19.3853 15.1362C19.3094 14.1616 18.8134 13.7123 17.8446 13.6014C17.3719 13.5431 16.8875 13.5898 16.409 13.5898Z" fill="black"/>
</svg>
