<svg width="23" height="13" viewBox="0 0 23 13" fill="none" xmlns="http://www.w3.org/2000/svg">
<path d="M21.6447 12.7876H7.14554C7.10074 12.7822 7.05543 12.7743 7.01545 12.7674L7.01229 12.7669C6.95065 12.7563 6.88079 12.7442 6.81303 12.74C6.19577 12.6872 5.65437 12.6148 5.15787 12.5186C4.5739 12.4056 4.04691 12.2597 3.54678 12.0726C2.7526 11.7754 2.20822 11.478 1.78167 11.1082C1.2412 10.6395 0.903733 10.0551 0.75 9.32144C0.763025 7.40781 0.763025 5.4726 0.763025 3.6011C0.913232 2.87304 1.2491 2.2914 1.78983 1.82292C2.32756 1.35696 3.00775 1.06183 3.54027 0.856758C4.55486 0.466313 5.6851 0.232413 6.99556 0.1417C7.03639 0.138022 7.13412 0.120646 7.24727 0.100525L7.25473 0.0992257L7.25913 0.0984312L7.26148 0.0980624L7.26268 0.0978467C7.49502 0.0565533 7.81321 0 7.95695 0C7.99943 0 8.02438 0.0050535 8.03111 0.0150158C8.03323 0.0181398 8.03358 0.0218115 8.03217 0.0259258C8.02689 0.0369578 8.03006 0.0521183 8.03487 0.0750648L8.03516 0.0766112C8.03628 0.0819428 8.03745 0.0877653 8.03868 0.0940162C8.21519 0.107591 8.40875 0.118969 8.53683 0.126499L8.53783 0.126624C8.80864 0.142676 9.08867 0.159272 9.36866 0.189383C10.219 0.283813 10.9518 0.431667 11.6089 0.641389C12.3843 0.888818 13.0611 1.22211 13.678 1.66032C13.6993 1.67569 13.7203 1.68966 13.7499 1.70923C13.816 1.75287 13.8847 1.79829 13.9322 1.85779C13.9893 1.93111 14.0515 1.98935 14.1223 2.03584C14.2478 2.16821 14.425 2.36294 14.5564 2.5389C14.6551 2.67103 14.7406 2.80847 14.8106 2.94739H14.8058C14.9229 3.18268 14.9961 3.44019 15.0299 3.73452C15.0601 3.99726 15.0568 4.26552 15.0537 4.52495L15.0536 4.52674C15.0601 5.33717 15.0601 6.15798 15.0601 7.02647H15.3535H21.1818C21.4977 7.02647 21.7304 7.06866 21.9141 7.15923C21.8747 7.11659 21.832 7.07127 21.7872 7.02464L21.8128 7.02253L21.9646 7.16125C21.9704 7.16283 22.1086 7.20168 22.2098 7.32925L22.3601 7.76059C22.3595 7.76875 22.3589 7.77769 22.3579 7.78952C22.3544 7.83509 22.3504 7.88669 22.3576 7.94342C22.3607 7.89044 22.3643 7.83856 22.3683 7.78922L22.3666 7.77965L22.3799 7.81765V7.99993C22.3757 8.0002 22.3719 8.0003 22.3684 8.0003C22.3636 7.98169 22.36 7.96257 22.3576 7.94342C22.3429 8.19113 22.3433 8.39424 22.3436 8.54254C22.3439 8.67547 22.3441 8.75617 22.3325 8.76824C22.3315 8.7693 22.3304 8.76984 22.3293 8.76984V9.05581C22.3293 9.29642 22.3276 9.54138 22.3259 9.77828L22.3259 9.7797L22.3257 9.80299V9.80452V9.80752C22.3217 10.3808 22.3175 10.9734 22.3358 11.5551C22.346 11.862 22.3001 12.1071 22.1956 12.3041C22.0831 12.5162 21.9029 12.6744 21.6447 12.7876ZM19.917 7.78922V12.0182H21.3839C21.4663 12.0182 21.5244 11.9959 21.5616 11.95C21.5955 11.9081 21.6121 11.8457 21.6121 11.7593V8.06158C21.6121 7.87292 21.536 7.78879 21.3653 7.78879C21.359 7.78879 21.3525 7.78892 21.3448 7.78922C21.2554 7.79124 21.1573 7.79222 21.0449 7.79222C20.9454 7.79222 20.838 7.79143 20.7451 7.79069C20.6431 7.78991 20.5435 7.78922 20.4451 7.78922H19.917ZM14.2647 10.6085C14.3737 10.6085 14.4656 10.653 14.5304 10.737C14.5954 10.8215 14.6298 10.9419 14.6298 11.0852V12.0045H16.527V11.7185V9.52572C16.527 9.39372 16.5599 9.2854 16.6223 9.21247C16.6832 9.14118 16.772 9.10349 16.879 9.10349C16.9878 9.10349 17.0791 9.14058 17.143 9.21075C17.207 9.28104 17.2442 9.38525 17.2506 9.51211C17.2549 9.5526 17.2535 9.58918 17.2521 9.6279L17.252 9.63113L17.2519 9.63339C17.2513 9.65036 17.2506 9.66959 17.2506 9.68917V11.7253C17.2506 11.8086 17.2563 11.8912 17.2623 11.9787L17.2636 11.9977H19.1608V7.78922H18.887C16.1209 7.78922 13.2607 7.78922 10.4443 7.78241C10.2917 7.78155 10.1392 7.78076 9.98662 7.78002C8.9454 7.77488 7.86825 7.76956 6.81303 7.72793C6.33908 7.70813 5.85102 7.64682 5.36242 7.54571C4.90141 7.4504 4.42654 7.31694 3.951 7.14905C3.82747 7.10602 3.73532 7.03685 3.68449 6.94901C3.63464 6.86268 3.62535 6.75996 3.65762 6.65194C3.70731 6.48574 3.83142 6.39422 4.00709 6.39422C4.06065 6.39422 4.11856 6.40302 4.17918 6.42039C4.18568 6.42372 4.19408 6.42728 4.20083 6.43013L4.202 6.43062L4.20346 6.43124C4.21054 6.43422 4.21857 6.43759 4.22483 6.44086C5.35587 6.83034 6.55008 7.01967 7.87569 7.01967C9.59061 7.01967 11.0535 6.73455 12.348 6.14802C13.0777 5.81656 13.5663 5.46161 13.9322 4.99713C14.5101 4.26873 14.4726 3.4311 13.8344 2.81114C13.484 2.47172 13.0602 2.17502 12.6088 1.9531C11.4526 1.3642 10.2141 1.13427 9.26434 0.999745C8.73809 0.926786 8.21053 0.889794 7.69632 0.889794C6.31782 0.889794 4.96779 1.1559 3.68373 1.68073C2.95596 1.97546 2.39937 2.35414 1.98217 2.83841C1.36977 3.55361 1.3605 4.33477 1.95606 5.03802C2.11533 5.22578 2.31017 5.38665 2.49859 5.54223L2.49985 5.54328L2.50557 5.54802C2.55374 5.58776 2.60355 5.62885 2.65364 5.67131C2.69544 5.71099 2.74434 5.74176 2.79163 5.7715L2.79258 5.77207L2.79399 5.77293C2.82778 5.79428 2.86271 5.81635 2.89485 5.84157C3.05365 5.97418 3.08607 6.15072 2.98615 6.33869C2.92408 6.45536 2.81522 6.52501 2.69495 6.52501C2.62776 6.52501 2.55939 6.50297 2.49721 6.46127C2.30741 6.33066 2.12624 6.18573 1.95103 6.04557L1.94954 6.04438L1.94814 6.04328L1.94649 6.04199L1.94532 6.04101C1.86728 5.97851 1.77017 5.90072 1.67577 5.82797C1.63967 5.80097 1.60389 5.77012 1.55859 5.73107L1.55695 5.72966L1.55337 5.72654L1.54202 5.71681L1.53536 5.71109C1.52808 5.70484 1.52057 5.6984 1.51277 5.69172C1.51277 5.93338 1.51313 6.1825 1.51347 6.39704L1.51359 6.49185V6.49455V6.49639L1.51359 6.49769C1.51482 7.2946 1.51599 8.04799 1.50626 8.81066C1.49933 9.36156 1.6726 9.79918 2.02124 10.1114C2.28274 10.3462 2.57796 10.5504 2.86346 10.7479L2.86505 10.749L2.86593 10.7496L2.86816 10.7511L2.87179 10.7536L2.87792 10.7579C2.99307 10.8375 3.11248 10.9202 3.22736 11.0035C3.25608 11.0235 3.2951 11.0324 3.3445 11.0437L3.34647 11.0442L3.34858 11.0447L3.3496 11.0449C3.36655 11.0488 3.38408 11.0529 3.40338 11.0579C3.40338 10.9645 3.40262 10.8692 3.40186 10.7883V10.7855L3.40184 10.7835C3.40044 10.6153 3.39912 10.4564 3.40338 10.2953C3.40661 10.1605 3.43841 10.0545 3.49791 9.9803C3.55671 9.90692 3.64116 9.86624 3.74892 9.85937C3.75259 9.8592 3.75682 9.85913 3.76306 9.85913C3.87143 9.85913 3.96234 9.89789 4.02598 9.97122C4.09012 10.0451 4.12731 10.1548 4.13353 10.2884C4.14004 10.5708 4.14678 10.8637 4.13353 11.1533C4.12989 11.2511 4.1412 11.3162 4.1702 11.3644C4.203 11.4188 4.25971 11.4534 4.34869 11.4734C4.48609 11.5028 4.62002 11.5462 4.74954 11.5881L4.75214 11.5889C4.86385 11.6251 4.97924 11.6625 5.09844 11.6912C5.3782 11.7561 5.66716 11.8093 5.97308 11.8656L6.02421 11.8751V11.5551V9.51891C6.02421 9.19643 6.15155 9.01505 6.38277 9.00819C6.38699 9.00807 6.39116 9.00801 6.39532 9.00801C6.50897 9.00801 6.598 9.0529 6.65995 9.14144C6.72259 9.23076 6.75435 9.36005 6.75435 9.52572V11.5142V11.9773H8.64497V11.0784C8.64808 10.9371 8.68324 10.8186 8.74665 10.7355C8.81022 10.6523 8.89947 10.6083 9.00476 10.6083C9.00869 10.6083 9.01262 10.6084 9.01661 10.6085C9.1282 10.6085 9.21978 10.6521 9.28147 10.7345C9.34277 10.8164 9.37517 10.9377 9.37517 11.0852V11.9977H11.2723V9.55979C11.2723 9.27834 11.4063 9.1103 11.6309 9.1103C11.6354 9.11018 11.6398 9.11012 11.6443 9.11012C11.7553 9.11012 11.8466 9.15178 11.9083 9.23061C11.9699 9.3093 12.0025 9.42549 12.0025 9.5666V11.7321V12.0045H13.8996V11.0784C13.8996 10.933 13.934 10.8129 13.999 10.731C14.0627 10.6509 14.1546 10.6085 14.2647 10.6085ZM14.3104 5.80069C13.8465 6.10047 13.3787 6.39957 12.9263 6.68881L12.8991 6.70624L12.8854 6.715C12.7278 6.8157 12.5724 6.91517 12.4197 7.01287H14.3104L14.3104 5.80069ZM7.86917 5.88239C7.19422 5.87026 6.6494 5.82266 6.15458 5.7326C5.52823 5.6186 4.98017 5.43594 4.47907 5.1742C4.22806 5.04626 3.9824 4.86525 3.74892 4.6362C3.64552 4.5331 3.56602 4.42296 3.51264 4.30886C3.4603 4.197 3.4329 4.08101 3.4312 3.96411C3.42756 3.7193 3.53742 3.47132 3.74892 3.24697C3.93301 3.05143 4.14935 2.88247 4.39194 2.74476C4.61424 2.61854 4.86511 2.51486 5.13757 2.43661C5.61942 2.29346 6.09961 2.18405 6.56478 2.11141C7.04531 2.03641 7.52395 1.99839 7.9874 1.99839C8.53419 1.99839 9.07801 2.05126 9.60377 2.15553C10.1464 2.2632 10.6858 2.42878 11.2071 2.64768C11.5105 2.77448 11.8171 2.98641 12.0937 3.26057C12.3127 3.47564 12.4266 3.72039 12.4229 3.96834C12.4194 4.21018 12.3033 4.44347 12.0872 4.64301C11.7825 4.92162 11.415 5.16181 11.0246 5.33759C10.5625 5.54078 10.0609 5.68168 9.49088 5.76833C9.03123 5.83818 8.51592 5.87443 7.86917 5.88239ZM7.99145 2.75984C7.22738 2.75984 6.42293 2.86876 5.60046 3.08357C5.05075 3.22709 4.64264 3.43049 4.31613 3.72367C4.20516 3.82409 4.16128 3.89101 4.16469 3.95467C4.16785 4.01398 4.21456 4.07296 4.31613 4.14589C4.60266 4.35857 4.86495 4.5145 5.11798 4.6226C5.99892 5.00927 6.91117 5.09802 8.28641 5.12652C8.35992 5.11637 8.448 5.10519 8.55 5.09225L8.55766 5.09128L8.56074 5.09087C8.92665 5.04437 9.47961 4.97409 10.0141 4.86775C10.6144 4.74682 11.1189 4.51081 11.5135 4.1663C11.626 4.06776 11.6728 3.99659 11.6699 3.92832C11.6671 3.86352 11.6189 3.8004 11.5135 3.72367C11.2668 3.5406 10.999 3.35614 10.7117 3.24697C9.84383 2.92373 8.92861 2.75984 7.99145 2.75984Z" fill="white"/>
</svg>
