<svg width="14" height="18" viewBox="0 0 14 18" fill="none" xmlns="http://www.w3.org/2000/svg">
<path d="M3.95094 17.1163C3.54135 16.9026 3.46121 16.6978 3.62149 16.2615C4.38725 14.1245 5.1441 11.9786 5.90985 9.84164C5.98999 9.61903 6.09683 9.42314 6.36397 9.36971C6.74685 9.29849 7.0852 9.63685 6.96945 10.0108C6.83587 10.456 6.6667 10.8834 6.51533 11.3197C6.18588 12.2458 5.85643 13.1718 5.52697 14.0978C5.50917 14.1423 5.50026 14.178 5.50917 14.2403C7.43246 12.1567 9.35576 10.0731 11.3058 7.95396C11.2078 7.95396 11.1544 7.95396 11.0921 7.95396C9.87219 7.95396 8.64343 7.95396 7.42355 7.95396C7.0852 7.95396 6.8537 7.78478 6.81808 7.49095C6.80026 7.37519 6.83587 7.24163 6.8804 7.12588C7.34341 5.82588 7.80642 4.52586 8.26944 3.22587C8.28726 3.18134 8.30505 3.13682 8.29615 3.06559C6.37286 5.14915 4.44958 7.23274 2.50847 9.343C2.58859 9.35191 2.64203 9.35191 2.69546 9.35191C3.17627 9.35191 3.6571 9.343 4.12903 9.35191C4.53862 9.36082 4.79683 9.73478 4.64546 10.091C4.56534 10.269 4.43176 10.3848 4.23587 10.4115C4.17355 10.4204 4.11122 10.4204 4.0578 10.4204C3.16737 10.4204 2.28586 10.4204 1.39544 10.4204C1.29751 10.4204 1.19066 10.4115 1.10162 10.3848C0.772153 10.269 0.647504 9.87725 0.843396 9.58341C0.870114 9.53889 0.914624 9.49438 0.950253 9.45877C3.72833 6.44917 6.49753 3.43955 9.27562 0.429971C9.59616 0.0827117 10.0325 0.127222 10.2105 0.51011C10.2907 0.679285 10.2551 0.839548 10.1927 1.00874C9.72973 2.30874 9.26672 3.60874 8.80369 4.90875C8.57219 5.55876 8.34068 6.19985 8.10028 6.87657C8.1804 6.87657 8.24273 6.88548 8.30505 6.88548C9.66739 6.88548 11.0386 6.88548 12.401 6.89437C12.5434 6.89437 12.7126 6.92999 12.8373 7.00123C13.0777 7.14369 13.1222 7.46424 12.9708 7.70466C12.9352 7.75807 12.8907 7.8115 12.8462 7.85603C10.0681 10.8656 7.29889 13.8752 4.52081 16.8848C4.43176 16.9828 4.2982 17.0451 4.19134 17.1163C4.10232 17.1163 4.02218 17.1163 3.95094 17.1163Z" fill="white"/>
</svg>
