<svg width="73" height="68" viewBox="0 0 73 68" fill="none" xmlns="http://www.w3.org/2000/svg">
<path d="M0.0377274 23.6377C2.50903 23.6188 4.98033 23.6188 7.45163 23.6C7.69687 23.6 7.94212 23.6 8.31941 23.6C7.50822 21.7135 6.75363 19.959 5.98016 18.1291C8.28169 17.6009 10.5455 17.0916 12.8658 16.5634C12.6583 14.2241 12.4319 11.9226 12.2244 9.52676C14.5825 9.75314 16.8652 9.96066 19.2422 10.1682C19.7704 7.88552 20.2797 5.60287 20.8079 3.28249C22.9963 4.22572 25.1091 5.13125 27.2786 6.07449C28.4671 4.07482 29.6556 2.07513 30.8818 0C32.6551 1.54693 34.3907 3.07499 36.1828 4.65961C37.9561 3.11271 39.6917 1.58466 41.4839 0C42.6912 2.0374 43.8797 4.01822 45.0871 6.07449C47.2565 5.15012 49.3694 4.22572 51.5766 3.28249C52.1048 5.60287 52.6141 7.84779 53.1423 10.1682C55.4816 9.96066 57.7642 9.73428 60.1601 9.52676C59.9526 11.866 59.7451 14.1675 59.5187 16.5445C61.8013 17.0539 64.0463 17.5632 66.4044 18.1103C65.6309 19.9213 64.8763 21.6757 64.0651 23.5622C66.8571 23.5622 69.5548 23.5622 72.3091 23.5622C72.3091 30.2215 72.3091 36.7865 72.3091 43.4081C69.6114 43.4081 66.9137 43.4081 64.0463 43.4081C64.8575 45.2946 65.612 47.0679 66.4044 48.9166C64.084 49.4448 61.8202 49.9542 59.5187 50.4824C59.7262 52.8217 59.9526 55.1043 60.1601 57.5002C57.8209 57.2926 55.5193 57.0663 53.1424 56.8587C52.633 59.1414 52.1048 61.4052 51.5766 63.7444C49.3883 62.8012 47.2754 61.8957 45.0871 60.9524C43.8797 62.971 42.6912 64.9706 41.4839 67.0269C39.7106 65.4611 37.9561 63.9331 36.1828 62.3673C34.3907 63.9331 32.6551 65.4611 30.8818 67.0269C29.6556 64.9706 28.486 62.9898 27.2786 60.9713C26.9391 61.1033 26.6561 61.2165 26.3165 61.3486C26.0524 60.726 25.7694 60.1035 25.4865 59.4243C26.3731 59.0282 27.222 58.6698 28.1464 58.2736C29.2406 60.1035 30.297 61.8957 31.3912 63.7444C33.0135 62.3296 34.5605 60.9524 36.1828 59.5376C37.7864 60.9335 39.3521 62.3107 40.9745 63.7256C42.0687 61.8768 43.144 60.0846 44.2193 58.2547C46.1623 59.0848 48.0488 59.896 50.0674 60.7638C50.539 58.6886 51.0106 56.6512 51.4823 54.5572C53.5763 54.7459 55.6325 54.9345 57.802 55.142C57.6133 53.0292 57.4247 50.954 57.2172 48.8034C59.2546 48.3318 61.2731 47.8791 63.4237 47.3886C62.971 46.351 62.4994 45.3512 62.1409 44.3325C61.8768 43.5967 61.4806 43.3704 60.6883 43.4081C58.6886 43.4835 56.6889 43.4458 54.6893 43.427C54.2743 43.427 54.029 43.5401 53.8026 43.9174C49.5203 50.9163 43.1628 54.1988 35.0509 53.8592C27.7502 53.5574 22.0908 50.1995 18.2801 43.8797C18.148 43.6533 17.7896 43.4458 17.5255 43.4458C15.4126 43.4081 13.2809 43.4081 11.168 43.4458C10.9416 43.4458 10.5832 43.5967 10.5077 43.7665C9.96066 44.9361 9.47018 46.1246 8.92309 47.3886C11.0171 47.8602 13.0356 48.313 15.1296 48.7846C14.941 50.8786 14.7523 52.9537 14.5448 55.1232C16.6954 54.9345 18.7705 54.7459 20.8834 54.5384C21.3551 56.6135 21.8078 58.6321 22.2794 60.726C22.6945 60.5751 23.034 60.4431 23.4679 60.2733C23.732 60.8958 23.9961 61.5184 24.298 62.1975C23.1283 62.7069 21.9965 63.1974 20.7891 63.7256C20.2609 61.4052 19.7515 59.1414 19.2233 56.8399C16.8841 57.0474 14.5825 57.2738 12.1867 57.4813C12.4131 55.1232 12.6206 52.8217 12.8281 50.4447C10.5455 49.9165 8.26281 49.4071 5.94242 48.8789C6.73477 47.049 7.48935 45.2946 8.30055 43.3704C5.43309 43.3704 2.71655 43.3704 0 43.3704C0.0377274 36.8054 0.0377274 30.2215 0.0377274 23.6377ZM20.5061 43.4458C24.5055 49.2373 29.9197 51.9727 36.711 51.7841C43.0119 51.5954 47.9922 48.8412 51.652 43.427C49.011 43.427 46.5585 43.427 44.0872 43.427C44.0872 42.6724 44.0872 42.0121 44.0872 41.2764C52.8216 41.2764 61.4995 41.2764 70.1774 41.2764C70.1774 36.0696 70.1774 30.9384 70.1774 25.7694C47.5018 25.7694 24.8639 25.7694 2.18832 25.7694C2.18832 30.9573 2.18832 36.0885 2.18832 41.3141C15.4126 41.3141 28.5991 41.3141 41.7857 41.3141C41.7857 42.0687 41.7857 42.729 41.7857 43.4458C34.7302 43.4458 27.7314 43.4458 20.5061 43.4458ZM25.5053 18.1857C23.4679 19.6572 21.7512 21.3739 20.4307 23.5434C30.9384 23.5434 41.2952 23.5434 51.6898 23.5434C48.1997 17.0539 37.0695 11.6585 27.222 17.0727C26.9013 16.4879 26.5806 15.9031 26.241 15.2806C29.0896 13.677 32.0892 12.8093 35.2584 12.7904C43.4269 12.7527 49.7844 16.0917 54.0479 23.1661C54.1799 23.3736 54.5006 23.5622 54.7459 23.5811C56.9342 23.6188 59.1225 23.6 61.3108 23.5811C61.4995 23.5811 61.8013 23.449 61.8579 23.2981C62.405 22.1096 62.9144 20.9023 63.4615 19.6383C61.3486 19.1667 59.33 18.6951 57.2549 18.2423C57.4435 16.1295 57.6322 14.0543 57.8397 11.9037C55.6703 12.1113 53.614 12.2999 51.5011 12.4886C51.0295 10.3946 50.5767 8.37601 50.0863 6.28201C48.0866 7.13093 46.1812 7.96098 44.2381 8.79103C43.144 6.94228 42.0687 5.15012 40.9934 3.32023C39.371 4.75396 37.8052 6.11223 36.2017 7.52709C34.5793 6.11223 33.0324 4.73509 31.41 3.32022C30.297 5.18785 29.2406 6.98001 28.1653 8.79103C26.1844 7.94212 24.2791 7.13093 22.3172 6.282C21.8455 8.39487 21.3739 10.4323 20.9023 12.4886C18.7705 12.2999 16.7143 12.1113 14.5637 11.9037C14.7712 14.0732 14.9599 16.1483 15.1485 18.2423C13.0545 18.714 11.0359 19.1667 8.94195 19.6572C9.45131 20.8646 9.96066 21.9776 10.4134 23.0906C10.5832 23.5245 10.8284 23.6188 11.2623 23.6188C13.2431 23.6 15.224 23.5811 17.1859 23.6188C17.733 23.6377 18.016 23.449 18.2801 22.9774C19.7893 20.3741 21.7701 18.2235 24.298 16.4502C24.713 17.035 25.0903 17.5821 25.5053 18.1857Z" fill="white"/>
<path d="M44.9176 32.3533C44.9176 34.3719 44.9176 36.3904 44.9176 38.4467C44.2196 38.4467 43.5782 38.4467 42.8613 38.4467C42.8613 34.9567 42.8613 31.4667 42.8613 27.9012C43.4462 27.9012 43.9933 27.8446 44.5592 27.9201C44.7856 27.9578 45.0119 28.2031 45.144 28.4294C46.3513 30.3348 47.5587 32.2402 48.8981 34.1455C48.8981 32.1081 48.8981 30.0707 48.8981 28.0333C49.6716 28.0333 50.3318 28.0333 51.011 28.0333C51.011 31.5422 51.011 35.0133 51.011 38.5976C50.4073 38.5976 49.8036 38.6354 49.2188 38.5787C49.049 38.5599 48.8604 38.3146 48.7472 38.126C47.6342 36.3716 46.54 34.6171 45.4458 32.8815C45.3326 32.6929 45.2006 32.5043 45.0685 32.3156C45.0308 32.3345 44.9742 32.3345 44.9176 32.3533Z" fill="white"/>
<path d="M9.56472 38.6352C6.60293 38.6352 4.13162 36.2017 4.1505 33.2776C4.16936 30.1649 6.5086 27.8445 9.60245 27.8634C12.6586 27.8823 14.9789 30.2026 14.9789 33.2965C14.9978 36.2205 12.5265 38.6352 9.56472 38.6352ZM9.56472 36.5035C11.4512 36.5035 12.8849 35.0886 12.8849 33.2021C12.8849 31.41 11.3757 29.9574 9.56472 29.9574C7.77254 29.9574 6.30109 31.41 6.28223 33.1644C6.2445 35.0509 7.67822 36.4846 9.56472 36.5035Z" fill="white"/>
<path d="M16.1299 27.882C17.4882 27.882 18.8087 27.7877 20.1104 27.9009C21.5818 28.033 22.6571 29.2592 22.8835 30.7684C23.0722 32.1267 22.3176 33.4849 20.997 34.0886C20.8084 34.1829 20.6197 34.2584 20.3367 34.3904C21.1291 35.4091 21.8837 36.3901 22.676 37.4088C22.11 37.8616 21.5818 38.2766 21.0159 38.7105C20.1104 37.5597 19.2426 36.4656 18.2427 35.1828C18.2427 36.3901 18.2427 37.3899 18.2427 38.4275C17.4882 38.4275 16.8279 38.4275 16.1299 38.4275C16.1299 34.9375 16.1299 31.4475 16.1299 27.882ZM18.2616 32.3719C19.1671 32.3153 20.1292 32.5983 20.6008 31.655C20.7518 31.3532 20.714 30.7873 20.5065 30.4854C19.9406 29.6554 19.0539 29.9949 18.2427 29.9572C18.2616 30.7873 18.2616 31.5418 18.2616 32.3719Z" fill="white"/>
<path d="M32.4664 34.4847C32.4664 33.7113 32.4664 33.0699 32.4664 32.3719C34.0133 32.3719 35.5414 32.3719 37.0505 32.3719C37.5976 34.8055 36.2959 37.4277 34.1831 38.2011C31.9004 39.0501 29.2216 37.9748 28.052 35.7487C26.8635 33.4849 27.5049 30.7307 29.5612 29.278C31.4099 27.9764 33.8058 27.9198 35.3904 29.2026C35.0131 29.7497 34.6547 30.2968 34.2774 30.8438C32.108 29.9949 30.2781 30.674 29.7121 32.4851C29.2028 34.1641 30.1838 35.8619 31.9004 36.2958C33.2964 36.6353 34.5227 35.8996 34.7679 34.4847C34.0322 34.4847 33.2964 34.4847 32.4664 34.4847Z" fill="white"/>
<path d="M61.3678 38.2389C60.6698 38.4653 60.0661 38.6728 59.4059 38.8992C59.1984 38.2955 59.0286 37.7295 58.8022 37.2013C58.7267 37.0127 58.4626 36.824 58.274 36.8052C57.4062 36.7674 56.5384 36.7674 55.6706 36.8052C55.482 36.8052 55.2179 37.0127 55.1424 37.2013C54.8972 37.7295 54.7462 38.2955 54.5388 38.8992C53.8596 38.6728 53.237 38.4464 52.5391 38.22C53.1428 36.4279 53.7275 34.6923 54.2935 32.9756C54.8028 31.4853 55.3311 30.0138 55.8027 28.5046C55.9536 27.9953 56.1799 27.8066 56.7271 27.8255C57.9344 27.8632 57.9344 27.8255 58.3117 28.9574C59.2738 31.806 60.217 34.6546 61.1791 37.5032C61.2357 37.7107 61.2924 37.9371 61.3678 38.2389ZM57.9722 34.6357C57.6326 33.6547 57.3496 32.7681 56.9723 31.6928C56.595 32.8058 56.2931 33.6925 55.9913 34.6357C56.6705 34.6357 57.2741 34.6357 57.9722 34.6357Z" fill="white"/>
<path d="M62.9144 28.0332C63.6124 28.0332 64.2538 28.0332 64.9518 28.0332C64.9518 30.8441 64.9518 33.5984 64.9518 36.447C66.0271 36.447 67.0458 36.447 68.1211 36.447C68.1211 37.2015 68.1211 37.8618 68.1211 38.5598C66.3855 38.5598 64.6688 38.5598 62.8955 38.5598C62.9144 35.0698 62.9144 31.5798 62.9144 28.0332Z" fill="white"/>
<path d="M24.2979 38.4468C24.2979 34.9757 24.2979 31.5423 24.2979 28.0522C24.977 28.0522 25.6184 28.0522 26.3164 28.0522C26.3164 31.5045 26.3164 34.9568 26.3164 38.4468C25.6373 38.4468 24.977 38.4468 24.2979 38.4468Z" fill="white"/>
<path d="M38.8994 28.0332C39.5974 28.0332 40.22 28.0332 40.918 28.0332C40.918 31.4855 40.918 34.9189 40.918 38.4277C40.2766 38.4277 39.6163 38.4277 38.8994 38.4277C38.8994 34.9944 38.8994 31.5421 38.8994 28.0332Z" fill="white"/>
</svg>
