<svg width="70" height="77" viewBox="0 0 70 77" fill="none" xmlns="http://www.w3.org/2000/svg">
<path d="M34.4144 76.5126C23.7244 74.1041 11.3115 63.4882 6.01279 52.8723C3.4561 47.7219 1.65899 42.3491 1.28846 36.6058C0.992025 31.9185 1.04761 27.1942 0.973501 22.4884C0.936445 20.2466 0.973501 18.0049 0.973501 15.7631C0.973501 14.5218 1.28846 14.0957 2.4927 13.7808C10.6074 11.6317 18.4628 8.81557 26.0403 5.20285C28.6896 3.94302 31.2648 2.57204 33.8586 1.18253C34.6552 0.756411 35.3407 0.737887 36.1374 1.18253C45.0303 6.09213 54.3493 9.96424 64.0943 12.8174C65.2986 13.1694 66.5214 13.4843 67.7256 13.8178C68.6334 14.0772 69.041 14.5589 69.0225 15.4667C68.9854 22.0993 69.2078 28.7319 68.8187 35.346C68.1703 46.425 63.7053 55.9107 55.9981 63.8958C51.6629 68.3978 46.6977 72.0476 41.01 74.6414C39.287 75.438 37.3972 75.9012 35.6001 76.5126C35.211 76.5126 34.8035 76.5126 34.4144 76.5126ZM66.0212 16.4672C65.8544 16.4116 65.6692 16.3375 65.4839 16.2819C55.0533 13.4102 45.0858 9.40843 35.5631 4.23945C35.137 4.01713 34.822 4.03565 34.4144 4.25798C24.9657 9.42696 15.0354 13.4288 4.62328 16.2634C4.12306 16.393 3.91927 16.5783 3.91927 17.1341C3.93779 21.9326 3.91927 26.7495 3.93779 31.548C3.95632 38.3473 5.32731 44.8502 8.38423 50.9455C10.7742 55.7625 13.9979 59.9866 17.9441 63.6179C22.2052 67.5641 26.9666 70.7692 32.4135 72.8813C33.9883 73.4927 35.5445 73.715 37.1378 73.048C37.8789 72.7331 38.6571 72.4737 39.3981 72.1402C44.8821 69.6391 49.699 66.1746 53.8861 61.8393C61.056 54.3915 65.2615 45.5357 65.8729 35.1978C66.2435 29.0283 66.0212 22.8218 66.0768 16.6524C66.0582 16.6154 66.0397 16.5598 66.0212 16.4672Z" fill="#CB072B"/>
<path d="M6.16113 26.62C6.16113 24.3041 6.16113 21.9883 6.16113 19.6724C6.16113 18.5052 6.45757 18.0791 7.56917 17.7456C16.74 15.0407 25.5587 11.4836 33.9884 7.00006C34.6924 6.62954 35.3224 6.62954 36.0078 7.00006C44.4375 11.465 53.2193 15.0222 62.3715 17.7271C63.5387 18.0791 63.8351 18.4867 63.8351 19.6909C63.8351 23.6927 63.8722 27.676 63.8351 31.6778C63.724 45.0912 58.2585 55.8923 47.8835 64.3035C44.6413 66.9158 41.1212 69.0278 37.2862 70.6767C35.7114 71.3622 34.2478 71.3622 32.673 70.6582C22.2609 66.045 14.4056 58.801 9.60712 48.389C7.64328 44.1278 6.53167 39.6073 6.30935 34.9014C6.17966 32.1409 6.29082 29.3805 6.29082 26.62C6.25377 26.62 6.21672 26.62 6.16113 26.62ZM9.16248 20.4691C9.16248 24.897 9.08837 29.3619 9.18101 33.8269C9.25511 37.1802 9.84797 40.4965 10.9596 43.6832C14.9058 55.1513 22.8353 62.8955 33.7105 67.8792C34.6183 68.2868 35.415 68.2682 36.3228 67.8792C40.7878 65.9709 44.771 63.3216 48.3282 60.0423C56.4429 52.576 60.6856 43.3682 60.8708 32.3262C60.9264 28.5468 60.8708 24.7858 60.9079 21.0063C60.9079 20.4876 60.7411 20.3023 60.2595 20.1541C51.7371 17.5789 43.5112 14.2255 35.6188 10.1126C35.1741 9.87172 34.8407 9.92731 34.396 10.1311C29.6717 12.2987 24.9844 14.5405 20.2045 16.5228C16.6103 18.0235 12.8864 19.1537 9.16248 20.4691Z" fill="#CB072B"/>
<path d="M27.1701 31.6222C27.1701 29.9919 27.133 28.343 27.1701 26.6941C27.2442 23.1555 29.7268 20.0615 33.1357 19.2463C37.9341 18.0791 42.64 21.6177 42.8067 26.5644C42.8623 28.2318 42.8067 29.9178 42.8067 31.6408C43.0661 31.6963 43.2884 31.7519 43.5292 31.826C44.9002 32.1966 45.9192 33.3452 45.9377 34.7533C45.9748 38.6995 45.9933 42.6457 45.9377 46.5734C45.9192 48.2408 44.5668 49.5562 42.8993 49.5933C40.1944 49.6488 37.471 49.6303 34.7661 49.6303C32.3946 49.6303 30.0417 49.6303 27.6703 49.6303C25.2989 49.6118 24.0205 48.3334 24.0205 45.9805C24.0205 42.5716 24.0205 39.1812 24.0205 35.7723C24.0205 33.2341 24.6875 32.3448 27.1701 31.6222ZM34.9699 46.666C37.3598 46.666 39.7498 46.6475 42.1397 46.6845C42.7882 46.6845 43.0475 46.5178 43.0475 45.8138C43.0105 42.3863 43.0105 38.9589 43.0475 35.5314C43.0475 34.883 42.8808 34.6236 42.1768 34.6236C37.3969 34.6606 32.6169 34.6421 27.8371 34.6236C27.2071 34.6236 26.9663 34.7903 26.9848 35.4573C27.0033 38.9033 27.0033 42.3493 26.9848 45.8138C26.9848 46.4437 27.1516 46.6845 27.8185 46.666C30.1899 46.6475 32.5799 46.666 34.9699 46.666ZM39.8424 31.6593C39.8424 29.8992 39.9536 28.1948 39.8239 26.5088C39.6201 23.878 37.6007 22.0253 35.0625 21.9698C32.8022 21.9142 30.542 23.6372 30.3011 25.8974C30.0973 27.7872 30.2641 29.714 30.2641 31.6593C33.3951 31.6593 36.5817 31.6593 39.8424 31.6593Z" fill="#CB072B"/>
<path d="M31.5803 61.7652C31.2283 62.2284 31.0059 62.7101 30.6354 63.0065C30.1537 63.3771 29.5608 63.2844 29.0421 62.9324C27.9676 62.1913 26.893 61.4502 25.8555 60.6721C25.1514 60.1348 24.466 59.5605 23.799 58.9862C23.0765 58.3562 22.9653 57.4855 23.5026 56.8185C24.0213 56.1886 24.855 56.1145 25.6146 56.6703C27.3376 57.9487 29.0421 59.2271 30.728 60.5424C31.0615 60.8018 31.2468 61.265 31.5803 61.7652Z" fill="#CB072B"/>
<path d="M21.5939 53.2802C22.4091 53.2616 23.0946 53.9471 23.0946 54.7808C23.0946 55.5219 22.4462 56.1888 21.7051 56.2259C20.9084 56.263 20.1859 55.5775 20.1674 54.7623C20.1488 53.9656 20.7973 53.2986 21.5939 53.2802Z" fill="#CB072B"/>
<path d="M32.9326 39.9035C32.9512 38.9031 33.4699 38.162 34.248 37.8471C35.0262 37.5506 35.9155 37.7359 36.4898 38.3288C37.0826 38.9402 37.3049 39.848 36.8603 40.5705C36.5083 41.1448 36.4713 41.7006 36.4713 42.312C36.4713 43.4051 35.9155 44.0721 35.0262 44.0906C34.1184 44.1091 33.5255 43.4237 33.5255 42.312C33.5255 41.7006 33.5255 41.1078 33.1364 40.5705C32.9697 40.3667 32.9697 40.0332 32.9326 39.9035Z" fill="#CB072B"/>
</svg>
