<svg width="76" height="65" viewBox="0 0 76 65" fill="none" xmlns="http://www.w3.org/2000/svg">
<path d="M0 50.1751C0.395844 49.6012 0.930252 49.423 1.64278 49.423C5.22526 49.4428 8.80773 49.423 12.3902 49.4428C13.4788 49.4428 14.1716 50.3929 13.5976 51.1846C13.3601 51.521 12.7861 51.7783 12.3704 51.7981C10.7672 51.8773 9.16401 51.8179 7.50142 51.8179C7.50142 52.7086 7.50142 53.5399 7.50142 54.4503C7.69935 54.4702 7.87749 54.5097 8.07542 54.5097C9.9755 54.5097 11.8756 54.5097 13.7757 54.5097C14.1518 54.5097 14.3695 54.4503 14.5674 54.0545C15.9331 51.1054 18.2291 49.4824 21.4751 49.4824C24.7211 49.4824 27.017 51.1252 28.4223 54.0545C28.5213 54.2524 28.8379 54.4899 29.0359 54.4899C37.0123 54.5097 44.9888 54.5097 52.9652 54.5097C53.0048 54.5097 53.0642 54.4899 53.2225 54.4504C53.2225 54.2128 53.2225 53.9556 53.2225 53.6983C53.2225 51.1846 53.2225 48.6709 53.2225 46.1374C53.2225 45.9395 53.2027 45.7416 53.2225 45.5436C53.3017 44.8311 53.7767 44.3957 54.4299 44.3957C55.083 44.4155 55.5581 44.8707 55.5778 45.5832C55.5976 47.8 55.5778 50.0366 55.5778 52.2534C55.5778 52.9659 55.5778 53.6785 55.5778 54.391C56.132 54.6681 56.231 54.292 56.3894 53.9556C57.5175 51.5606 59.3582 50.0366 61.9709 49.5813C65.3753 48.9678 68.6806 50.7095 70.1057 53.8764C70.3234 54.3514 70.5609 54.5493 71.0755 54.5295C71.8277 54.4899 72.5996 54.5097 73.4309 54.5097C73.4309 52.7878 73.4309 51.1054 73.4309 49.2845C73.035 49.2845 72.5996 49.2845 72.1641 49.2845C70.0463 49.2449 68.4827 47.6813 68.4431 45.5832C68.4233 44.7915 68.4233 43.9998 68.4431 43.2081C68.4629 42.2778 68.8588 41.8622 69.8088 41.8622C70.9172 41.8424 72.0256 41.8622 73.3913 41.8622C72.9954 41.2486 72.7381 40.734 72.3621 40.3184C71.6495 39.5267 70.6995 39.1506 69.6505 39.1506C65.0784 39.1308 60.5062 39.1506 55.9539 39.1506C55.8549 39.1506 55.756 39.1902 55.5976 39.2298C55.5976 39.6652 55.6174 40.1007 55.5976 40.5361C55.5581 41.1893 55.083 41.6643 54.4497 41.6643C53.8361 41.6841 53.3215 41.2289 53.2423 40.5757C53.2027 40.3382 53.2225 40.0809 53.2225 39.8434C53.2225 33.1732 53.2225 26.5031 53.2225 19.8527C53.2225 19.5559 53.2225 19.2788 53.2225 18.9423C37.9624 18.9423 22.7616 18.9423 7.46185 18.9423C7.46185 19.2392 7.46185 19.5163 7.46185 19.8132C7.46185 26.4833 7.46185 33.1534 7.46185 39.8038C7.46185 40.0413 7.46185 40.2986 7.46185 40.5361C7.40247 41.209 7.02641 41.5653 6.39304 41.6445C5.77946 41.7237 5.24506 41.2882 5.1263 40.6351C5.08672 40.4174 5.10651 40.1996 5.10651 39.9621C5.10651 33.0941 5.10651 26.226 5.10651 19.3777C5.10651 17.3985 6.01698 16.488 8.01604 16.488C13.2809 16.488 18.5259 16.488 23.8502 16.3692C23.6523 16.2703 23.4543 16.1713 23.2564 16.0921C20.426 14.964 17.5759 13.816 14.7455 12.6878C14.5674 12.6086 14.3695 12.5493 14.1914 12.4701C13.4986 12.1534 13.2017 11.5398 13.4392 10.9262C13.6767 10.2731 14.3497 9.996 15.1018 10.2929C17.1998 11.1044 19.2781 11.9555 21.3563 12.7868C21.7917 12.9649 22.2074 13.1232 22.8012 13.341C21.2771 12.193 19.8718 11.1836 18.5259 10.1148C17.4967 9.30325 16.7248 8.29382 16.3883 7.0073C15.6758 4.35508 16.9821 1.6039 19.476 0.495515C21.9897 -0.632674 25.0378 0.198617 26.3639 2.65291C27.5712 4.86969 28.4223 7.2844 29.4119 9.61994C29.7682 10.471 30.0255 11.3815 30.4016 12.4107C30.6984 11.5596 30.9162 10.8273 31.1933 10.1148C32.1829 7.71984 33.0736 5.28534 34.2018 2.9696C35.1716 0.970544 36.9529 -0.0388859 39.2093 0.0204936C41.3667 0.0600749 42.9699 1.0893 43.9793 2.9894C45.1075 5.1072 44.7513 7.71984 42.9699 9.40222C41.7626 10.5304 40.3969 11.4607 39.0905 12.4701C38.7738 12.7076 38.4374 12.9055 38.1603 13.242C38.3582 13.1628 38.5759 13.0837 38.7738 13.0045C41.0302 12.094 43.3064 11.2034 45.5627 10.2731C46.1169 10.0554 46.6316 10.0158 47.067 10.471C47.7004 11.1044 47.4233 12.0742 46.4732 12.4701C44.4939 13.2816 42.4949 14.0733 40.4958 14.865C39.3083 15.34 38.1405 15.8151 36.9925 16.4484C37.2498 16.4484 37.5071 16.4484 37.7644 16.4484C42.772 16.4484 47.7795 16.4484 52.8069 16.4484C54.7466 16.4484 55.657 17.3391 55.657 19.2986C55.657 20.0111 55.657 20.7236 55.657 21.5153C55.9935 21.5153 56.2706 21.5153 56.5279 21.5153C59.1603 21.5153 61.8125 21.5153 64.445 21.5153C67.4535 21.5153 69.5515 23.6332 69.5713 26.6416C69.5713 26.8792 69.5713 27.1365 69.5713 27.374C69.5713 28.3042 69.5119 28.423 68.6608 28.9772C69.2744 31.4513 69.9077 33.9649 70.5609 36.4588C70.6005 36.6172 70.838 36.7755 71.0161 36.8349C74.3215 37.8443 75.9247 40.0017 75.9247 43.4456C75.9247 46.5135 75.9247 49.5616 75.9247 52.6294C75.9049 57.3401 76.4393 56.7661 71.8078 56.7859C71.511 56.7859 71.2338 56.7859 70.9568 56.7859C70.0463 61.7737 67.5722 64.2873 63.4751 64.3863C61.3771 64.4457 59.5562 63.6935 58.0519 62.2289C56.5477 60.7642 55.8747 58.9235 55.7758 56.8255C46.8493 56.8255 38.0019 56.8255 29.0754 56.8255C28.9567 59.3985 27.9473 61.5164 25.8492 63.0206C24.4637 64.0102 22.8803 64.4655 21.1782 64.3665C17.1602 64.1488 14.6466 61.5361 13.934 56.7859C12.6673 56.7859 11.4006 56.7859 10.1141 56.7859C9.30255 56.7859 8.49106 56.7859 7.65976 56.7859C6.17531 56.7661 5.16588 55.7765 5.1263 54.2722C5.10651 53.4607 5.1263 52.6492 5.1263 51.719C3.99812 51.719 2.88972 51.6794 1.78134 51.7388C1.04901 51.7783 0.475021 51.5804 0.0593719 50.9866C0 50.7689 0 50.472 0 50.1751ZM68.0076 36.7161C67.9681 36.4984 67.9681 36.3401 67.9285 36.1817C67.3941 34.0045 66.8201 31.8273 66.3055 29.6501C66.1867 29.1553 66.0086 28.9772 65.4742 28.997C62.3865 29.0167 59.2989 29.0167 56.231 29.0167C56.0133 29.0167 55.8154 29.0563 55.6372 29.0563C55.6372 31.669 55.6372 34.1826 55.6372 36.7161C59.7937 36.7161 63.871 36.7161 68.0076 36.7161ZM63.1584 62.0903C65.969 62.1695 68.3243 59.9329 68.4233 57.0828C68.5223 54.292 66.2263 51.8773 63.4158 51.8179C60.5458 51.7586 58.1905 53.9951 58.1113 56.8651C58.0321 59.6558 60.3281 62.0112 63.1584 62.0903ZM21.3563 62.0903C24.1867 62.1497 26.5024 59.9329 26.6014 57.063C26.7003 54.2722 24.3846 51.8575 21.5938 51.8179C18.7635 51.7586 16.3883 53.9951 16.3092 56.8057C16.23 59.6558 18.4864 62.031 21.3563 62.0903ZM32.4402 13.6576C32.4996 13.6972 32.559 13.7368 32.5985 13.7764C34.4195 12.6086 36.28 11.4804 38.0613 10.2533C39.1103 9.54076 40.1396 8.72926 41.0896 7.89797C42.099 7.00729 42.4157 5.81973 41.9605 4.5332C41.5448 3.32585 40.6937 2.61331 39.427 2.45498C38.0415 2.27684 36.9331 2.81124 36.2404 4.0186C34.5382 7.06667 33.5684 10.3918 32.4402 13.6576ZM28.1848 13.816C28.1452 13.5587 28.1254 13.4399 28.0858 13.3212C27.2545 11.045 26.4628 8.76884 25.5919 6.53227C25.2159 5.54263 24.7211 4.59258 24.1471 3.72171C23.3949 2.57373 21.9501 2.17788 20.6636 2.59352C19.3374 3.02896 18.4864 4.19673 18.4864 5.6218C18.4864 6.9875 19.2781 7.89797 20.2875 8.6105C22.4647 10.1345 24.7013 11.5992 26.8982 13.0837C27.2941 13.2816 27.69 13.4993 28.1848 13.816ZM55.6174 26.6021C59.477 26.6021 63.2772 26.6021 67.0972 26.6021C67.1368 25.078 66.0482 23.9696 64.5043 23.9696C61.9115 23.9498 59.3385 23.9696 56.7456 23.9696C56.3893 23.9696 56.0133 23.9696 55.6174 23.9696C55.6174 24.8603 55.6174 25.6916 55.6174 26.6021ZM73.4507 46.8302C73.4507 45.9791 73.4507 45.1478 73.4507 44.2769C72.56 44.2769 71.7287 44.2769 70.8776 44.2769C70.5609 46.5135 71.2339 47.1864 73.4507 46.8302Z" fill="#CB072B"/>
<path d="M23.9092 35.3506C23.9092 36.2215 23.929 36.9736 23.9092 37.7456C23.8894 38.6362 23.454 39.131 22.7217 39.1112C22.0091 39.0915 21.5539 38.6164 21.5539 37.7653C21.5341 34.4996 21.5341 31.2535 21.5539 27.9878C21.5539 27.0377 22.0091 26.6221 22.9988 26.6221C23.929 26.6221 24.8791 26.6221 25.8093 26.6221C27.749 26.6419 29.3324 27.7304 29.9856 29.492C30.619 31.214 30.1439 33.0349 28.6991 34.3214C28.5803 34.4204 28.4813 34.5193 28.3032 34.6579C28.8376 35.4694 29.372 36.2611 29.8866 37.0528C30.4012 37.8445 30.3419 38.5175 29.7085 38.9331C29.1147 39.329 28.422 39.1311 27.9074 38.3591C27.3928 37.607 26.8583 36.8549 26.4031 36.0632C26.0864 35.509 25.6906 35.2319 25.0374 35.3309C24.7009 35.3902 24.3447 35.3506 23.9092 35.3506ZM23.9488 32.9557C24.7009 32.9557 25.4333 33.0151 26.126 32.9359C27.1354 32.8172 27.8282 32.0057 27.848 31.0358C27.8678 30.066 27.1948 29.1753 26.2052 29.0566C25.4729 28.9576 24.7009 29.0368 23.929 29.0368C23.9488 30.3827 23.9488 31.6494 23.9488 32.9557Z" fill="#CB072B"/>
<path d="M34.1029 28.9969C34.1029 29.9074 34.1029 30.7387 34.1029 31.6887C34.954 31.6887 35.805 31.6689 36.6561 31.6887C37.2499 31.7085 37.6853 32.0054 37.8041 32.6388C37.9031 33.2127 37.7051 33.668 37.1707 33.9253C36.9332 34.0242 36.6363 34.044 36.379 34.044C35.6467 34.0638 34.9144 34.044 34.1227 34.044C34.1227 34.9545 34.1227 35.8056 34.1227 36.7556C35.1123 36.7556 36.1019 36.7556 37.0718 36.7556C37.3885 36.7556 37.7249 36.7359 38.0416 36.7754C38.7145 36.8546 39.15 37.3494 39.1302 37.963C39.1104 38.5766 38.675 39.0714 38.002 39.0912C37.0916 39.1307 36.1811 39.111 35.2707 39.111C34.4987 39.111 33.7466 39.1307 32.9747 39.111C32.1632 39.0912 31.7277 38.6755 31.7277 37.864C31.7079 34.5389 31.7079 31.1939 31.7277 27.8687C31.7277 27.077 32.183 26.6218 32.9747 26.6218C34.5977 26.602 36.2405 26.602 37.8635 26.6218C38.6354 26.6218 39.1302 27.0968 39.15 27.7698C39.1698 28.4625 38.6552 28.9771 37.8635 28.9771C36.5967 29.0167 35.3696 28.9969 34.1029 28.9969Z" fill="#CB072B"/>
<path d="M42.97 28.9969C42.97 29.9272 42.97 30.7584 42.97 31.6887C43.4055 31.6887 43.8211 31.6689 44.217 31.6887C44.9493 31.7283 45.4639 32.2429 45.4639 32.896C45.4441 33.569 44.9493 34.0242 44.1774 34.044C43.8014 34.0638 43.4451 34.044 43.0096 34.044C43.0096 34.9347 43.0096 35.766 43.0096 36.716C43.2471 36.7359 43.5044 36.7556 43.7617 36.7556C44.7909 36.7556 45.84 36.7359 46.8692 36.7754C47.5421 36.815 48.0172 37.3296 47.9974 37.9234C47.9776 38.537 47.6807 39.0516 47.0473 39.0516C45.2066 39.111 43.3461 39.111 41.5054 39.0516C40.9314 39.0318 40.5949 38.5568 40.5949 37.9828C40.5751 34.5784 40.5751 31.1741 40.5949 27.7697C40.5949 27.0572 41.0502 26.6218 41.7825 26.6218C43.4649 26.602 45.1274 26.602 46.8098 26.6218C47.5026 26.6416 47.9974 27.1562 47.9974 27.7895C47.9974 28.4427 47.5026 28.9573 46.7504 28.9771C45.5035 29.0167 44.2764 28.9969 42.97 28.9969Z" fill="#CB072B"/>
<path d="M15.0819 28.9969C15.0819 29.9074 15.0819 30.7386 15.0819 31.6887C15.834 31.6887 16.5862 31.6887 17.3383 31.6887C18.2883 31.6887 18.8029 32.1241 18.8029 32.8763C18.8029 33.6284 18.2883 34.044 17.3383 34.044C16.6059 34.044 15.8736 34.044 15.0621 34.044C15.0423 34.3805 15.0225 34.6378 15.0225 34.8951C15.0225 35.9045 15.0423 36.914 15.0027 37.9234C14.9632 38.6557 14.4881 39.0911 13.835 39.0911C13.1818 39.0911 12.6672 38.6557 12.6672 37.9234C12.6474 34.5388 12.6474 31.1741 12.6672 27.7896C12.6672 27.0374 13.1422 26.6218 13.9141 26.6218C15.5371 26.602 17.1799 26.602 18.8029 26.6218C19.5551 26.6218 20.0697 27.1166 20.0894 27.7697C20.1092 28.4625 19.5748 28.9771 18.7831 28.9771C17.5758 29.0167 16.3486 28.9969 15.0819 28.9969Z" fill="#CB072B"/>
<path d="M40.4561 51.8177C37.5664 51.8177 34.6766 51.8177 31.7869 51.8177C31.0348 51.8177 30.5202 51.4417 30.441 50.8281C30.3619 50.2145 30.6389 49.7791 31.2129 49.5416C31.4109 49.4624 31.6484 49.4624 31.8661 49.4624C37.6258 49.4624 43.3656 49.4624 49.1253 49.4624C49.9962 49.4624 50.5306 49.9176 50.5306 50.6302C50.5306 51.3427 49.9962 51.8177 49.1253 51.8177C46.2158 51.8177 43.326 51.8177 40.4561 51.8177Z" fill="#CB072B"/>
<path d="M11.341 44.376C13.7557 44.376 16.1704 44.376 18.5851 44.376C19.5747 44.376 20.1289 44.8312 20.1091 45.5833C20.0893 46.2959 19.5153 46.7511 18.6049 46.7511C13.7359 46.7511 8.88666 46.7511 4.01765 46.7511C3.10719 46.7511 2.5332 46.2761 2.5332 45.5635C2.5332 44.8312 3.06761 44.376 3.99786 44.376C6.45216 44.376 8.88666 44.376 11.341 44.376Z" fill="#CB072B"/>
<path d="M63.2372 59.3983C61.8715 59.3785 60.8028 58.29 60.8225 56.9441C60.8423 55.5982 61.9705 54.4897 63.2966 54.5095C64.6425 54.5293 65.7509 55.6575 65.7311 56.9837C65.6915 58.3493 64.6029 59.3983 63.2372 59.3983Z" fill="#CB072B"/>
<path d="M21.4357 59.3986C20.0898 59.3788 18.9815 58.2704 19.0012 56.9245C19.021 55.5984 20.169 54.4702 21.4951 54.49C22.841 54.5098 23.9098 55.5984 23.9098 56.9839C23.89 58.3496 22.8014 59.4183 21.4357 59.3986Z" fill="#CB072B"/>
</svg>
