<svg width="21" height="21" viewBox="0 0 21 21" fill="none" xmlns="http://www.w3.org/2000/svg">
<path d="M18.5559 20.7066C18.5402 20.6961 18.5244 20.6803 18.5086 20.6803C17.7035 20.4751 17.2668 19.9226 17.2668 19.086C17.2668 17.2654 17.2668 15.45 17.2668 13.6295C17.2668 13.5505 17.2668 13.4769 17.2668 13.3664C17.1563 13.3664 17.0563 13.3716 16.9616 13.3664C16.7617 13.3506 16.6617 13.2454 16.6617 13.0454C16.6564 12.656 16.6564 12.2719 16.6617 11.8825C16.6617 11.6616 16.7669 11.5563 16.9879 11.551C17.2773 11.5458 17.5615 11.551 17.8667 11.551C17.8719 11.4721 17.8772 11.409 17.8772 11.3458C17.8772 9.89358 17.8824 8.44658 17.8772 6.99433C17.8667 4.74753 16.367 2.8796 14.1729 2.45865C12.3365 2.10612 10.8158 2.727 9.63193 4.16874C9.60036 4.20557 9.57932 4.25293 9.54248 4.31081C10.3633 4.46866 11.121 4.75806 11.8051 5.21584C13.6993 6.48919 14.7201 8.26242 14.799 10.5513C14.8253 11.3301 14.8253 12.1141 14.7675 12.8928C14.6412 14.6029 13.1942 16.1183 11.4893 16.3709C9.25835 16.7024 7.30095 15.2974 6.91158 13.0717C6.86948 12.8402 6.85896 12.6034 6.85896 12.3666C6.85369 10.5934 6.85896 8.82017 6.85896 7.04694C6.85896 6.79964 6.85896 6.55234 6.85896 6.30503C5.00681 6.62074 3.45983 9.24637 3.81237 11.551C4.06494 11.551 4.32803 11.551 4.58586 11.551C4.92262 11.551 5.00681 11.63 5.00681 11.9667C5.00681 12.2877 5.00681 12.6087 5.00681 12.9296C5.00681 13.2769 4.92787 13.3611 4.5806 13.3664C4.52798 13.3664 4.47536 13.3716 4.4017 13.3769C4.4017 13.4506 4.4017 13.5242 4.4017 13.5926C4.4017 14.2609 4.4017 14.9344 4.4017 15.6026C4.4017 15.6605 4.40696 15.7237 4.39643 15.7815C4.37539 15.9657 4.24911 16.0709 4.08073 16.0604C3.91761 16.0499 3.81237 15.9341 3.81237 15.7342C3.80711 15.0396 3.81237 14.3451 3.81237 13.6452C3.81237 13.5611 3.81237 13.4769 3.81237 13.3821C3.19148 13.3821 2.59164 13.3821 1.96548 13.3821C1.96022 13.44 1.95496 13.5032 1.95496 13.5663C1.95496 15.4185 1.95496 17.2706 1.95496 19.1175C1.95496 19.8068 2.52323 20.2541 3.14413 20.0752C3.54929 19.9542 3.80711 19.6016 3.81237 19.1333C3.81763 18.4651 3.80711 17.7916 3.81763 17.1233C3.81763 17.0181 3.88078 16.876 3.96497 16.8076C4.14387 16.6655 4.38591 16.8181 4.4017 17.0707C4.41222 17.2759 4.40696 17.4758 4.40696 17.6811C4.40696 18.1494 4.40696 18.6124 4.40696 19.0807C4.4017 19.9173 3.97549 20.4698 3.16517 20.675C3.14939 20.6803 3.13361 20.6961 3.11781 20.7013C2.95996 20.7013 2.80211 20.7013 2.64426 20.7013C2.63373 20.6908 2.62846 20.6803 2.61269 20.675C1.74975 20.4277 1.36563 19.9226 1.36563 19.0281C1.36563 17.2233 1.36563 15.4185 1.36563 13.6137C1.36563 13.5347 1.36563 13.4611 1.36563 13.3664C1.12886 13.3559 0.892075 13.3979 0.75 13.1717C0.75 12.6981 0.75 12.2246 0.75 11.751C0.83419 11.5826 0.976265 11.53 1.15516 11.5405C1.42352 11.551 1.69186 11.5405 1.97074 11.5405C1.97074 11.4353 1.96548 11.3564 1.97074 11.2827C1.99706 10.7407 1.976 10.1882 2.04967 9.65153C2.41799 6.96276 4.56481 4.76333 7.24307 4.30028C7.37988 4.27398 7.46407 4.22661 7.53773 4.0898C8.87423 1.38524 11.9419 -0.0249198 14.8622 0.72225C17.672 1.43786 19.6662 3.96352 19.6978 6.86278C19.7135 8.34134 19.703 9.81464 19.703 11.2932C19.703 11.3721 19.703 11.4458 19.703 11.5405C20.0135 11.5405 20.3029 11.5353 20.587 11.5405C20.808 11.5458 20.9185 11.651 20.9185 11.8668C20.9238 12.2561 20.9238 12.6402 20.9185 13.0296C20.9132 13.2348 20.8027 13.3401 20.5975 13.3506C20.5081 13.3559 20.4186 13.3506 20.3029 13.3506C20.3029 13.4453 20.3029 13.5137 20.3029 13.5874C20.3029 13.882 20.3081 14.1767 20.3029 14.4713C20.2976 14.6766 20.1871 14.8028 20.024 14.8081C19.8504 14.8134 19.7241 14.6818 19.7188 14.4713C19.7135 14.2135 19.7188 13.961 19.7188 13.7031C19.7188 13.5874 19.7188 13.4769 19.7188 13.3664C19.0821 13.3664 18.4823 13.3664 17.8614 13.3664C17.8614 13.4558 17.8614 13.5347 17.8614 13.6137C17.8614 15.108 17.8614 16.6076 17.8614 18.102C17.8614 18.4493 17.8561 18.7966 17.8614 19.1438C17.8719 19.6858 18.2718 20.091 18.7875 20.0962C19.3084 20.0962 19.7083 19.6963 19.7135 19.1543C19.7241 18.3072 19.7135 17.4601 19.7188 16.6129C19.7188 16.3551 19.7135 16.1025 19.7188 15.8447C19.7241 15.6289 19.8451 15.5079 20.024 15.5132C20.1976 15.5185 20.3029 15.6395 20.3029 15.85C20.3029 16.9707 20.3134 18.0967 20.2976 19.2175C20.2871 19.8805 19.9293 20.333 19.3242 20.5908C19.2295 20.6329 19.1295 20.6592 19.0295 20.6908C18.8717 20.7066 18.7138 20.7066 18.5559 20.7066ZM3.202 11.5458C3.202 11.3721 3.19148 11.2248 3.202 11.0722C3.24936 10.5355 3.23883 9.9883 3.36512 9.47263C4.0281 6.6944 6.63796 5.00536 9.38462 5.54207C11.663 5.98406 13.452 8.03617 13.5572 10.3514C13.5888 11.0775 13.573 11.8089 13.5678 12.535C13.5678 12.6981 13.5467 12.8612 13.5151 13.0244C13.2573 14.3503 12.0261 15.2711 10.6317 15.187C9.32675 15.1133 8.18494 14.0031 8.12179 12.6929C8.07444 11.7142 8.106 10.7355 8.10075 9.76203C8.10075 9.44106 8.19546 9.29374 8.39541 9.29374C8.59536 9.29374 8.69006 9.44106 8.69533 9.75678C8.70059 10.7144 8.67954 11.6721 8.71638 12.6297C8.75847 13.7242 9.72138 14.5976 10.8369 14.6029C11.9576 14.6082 12.9258 13.7347 12.9732 12.6297C13.0048 11.8773 13.01 11.1196 12.9732 10.3671C12.889 8.48342 11.6683 6.87857 9.87923 6.27872C9.53196 6.16297 9.16364 6.10508 8.78477 6.01563C8.75847 6.23662 8.72164 6.39974 8.71638 6.55761C8.70585 7.11535 8.70059 7.6731 8.69533 8.23086C8.69006 8.46238 8.57957 8.59392 8.39541 8.58866C8.21651 8.58866 8.10075 8.45711 8.10601 8.24137C8.1218 7.55208 8.14285 6.86278 8.16389 6.17875C8.16389 6.13139 8.16389 6.07877 8.16389 6.02616C8.04813 6.03667 7.95868 6.04194 7.86922 6.05773C7.47459 6.12613 7.52195 6.05246 7.49038 6.45237C7.47985 6.57865 7.46407 6.69967 7.46407 6.82595C7.46407 8.72546 7.44829 10.6197 7.46407 12.5192C7.48512 14.3451 8.95842 15.8026 10.7843 15.8394C12.5259 15.871 14.0308 14.5608 14.1887 12.8297C14.2413 12.2298 14.2307 11.6247 14.215 11.0196C14.2044 10.525 14.1887 10.0199 14.0992 9.53052C13.5151 6.28399 10.0108 4.11086 6.83265 5.01589C4.41222 5.69993 2.72318 7.78361 2.57059 10.2935C2.54427 10.7092 2.56533 11.1301 2.56533 11.5511C2.78106 11.5458 2.97575 11.5458 3.202 11.5458ZM19.0979 11.5405C19.1032 11.4721 19.1084 11.4142 19.1084 11.3564C19.1084 9.88831 19.1137 8.41501 19.1032 6.94697C19.1032 6.6523 19.0821 6.35239 19.0295 6.06824C18.6086 3.74779 17.2879 2.14294 15.0516 1.42207C12.8153 0.701208 10.8158 1.24843 9.12679 2.87433C8.73215 3.25319 8.41645 3.69518 8.1481 4.20557C8.33752 4.20557 8.50064 4.18978 8.65849 4.21083C8.82687 4.23188 8.91632 4.16874 9.00578 4.03193C10.1792 2.28501 12.4049 1.41155 14.436 1.9009C16.8353 2.47444 18.456 4.52654 18.4665 7.00486C18.4718 8.43606 18.4665 9.86727 18.4665 11.2985C18.4665 11.3774 18.4665 11.4511 18.4665 11.5458C18.6875 11.5405 18.8874 11.5405 19.0979 11.5405ZM1.34985 12.7665C2.38116 12.7665 3.39143 12.7665 4.40696 12.7665C4.40696 12.5561 4.40696 12.3561 4.40696 12.1614C3.38091 12.1614 2.36538 12.1614 1.34985 12.1614C1.34985 12.3666 1.34985 12.5561 1.34985 12.7665ZM17.2615 12.7613C18.2981 12.7613 19.3084 12.7613 20.3186 12.7613C20.3186 12.5508 20.3186 12.3561 20.3186 12.1561C19.2979 12.1561 18.2823 12.1561 17.2615 12.1561C17.2615 12.3666 17.2615 12.5561 17.2615 12.7613Z" fill="white"/>
</svg>
