<svg width="23" height="18" viewBox="0 0 23 18" fill="none" xmlns="http://www.w3.org/2000/svg">
<path d="M0.75 9.51214C0.962511 9.17636 1.26853 9.04037 1.6638 9.07861C1.84656 9.09562 2.02932 9.08286 2.22483 9.08286C2.24608 8.99786 2.25883 8.91286 2.28008 8.83636C2.36933 8.54734 2.6371 8.33907 2.94311 8.32633C3.16838 8.31783 3.39364 8.32207 3.62315 8.32207C4.11618 8.32633 4.41369 8.61534 4.42644 9.10837C4.43069 9.42713 4.42644 9.74165 4.42644 10.0604C4.42644 10.1369 4.42644 10.2134 4.42644 10.3027C4.77496 10.3027 5.10648 10.3027 5.47625 10.3027C5.42525 10.2219 5.38699 10.1582 5.34449 10.0902C4.6262 8.98511 4.06942 7.8163 3.82716 6.51573C3.28313 3.61282 5.04272 0.896939 7.91587 0.314652C9.87948 -0.0848652 11.5541 0.518673 12.9099 1.9935C12.9524 2.04025 12.9906 2.09125 13.0331 2.138C13.0416 2.1465 13.0586 2.15075 13.0884 2.16775C13.1309 2.12525 13.1777 2.07425 13.2244 2.02325C15.1285 -0.203872 18.4947 -0.42913 20.6793 1.52597C20.7005 1.54298 20.7218 1.56422 20.743 1.58123C20.9131 1.74273 20.9343 1.92124 20.8068 2.06575C20.675 2.21026 20.4965 2.21026 20.3223 2.05299C19.8675 1.64073 19.3575 1.32196 18.7794 1.10945C16.9901 0.450669 14.9755 0.973446 13.7302 2.41427C13.7004 2.44826 13.6749 2.47802 13.6452 2.51202C13.3009 2.90304 12.8589 2.90729 12.5189 2.50777C11.9196 1.79799 11.1843 1.29646 10.296 1.02445C7.55035 0.182896 4.67295 2.09125 4.39669 4.93889C4.27343 6.18847 4.6007 7.34877 5.15323 8.44534C5.45499 9.04037 5.83751 9.59715 6.17753 10.1709C6.24554 10.2857 6.33054 10.3112 6.4538 10.3112C7.29534 10.3069 8.13689 10.3069 8.97843 10.3069C9.24619 10.3069 9.3907 10.4217 9.3907 10.6257C9.3907 10.8255 9.24194 10.9402 8.97418 10.9402C7.5461 10.9402 6.11803 10.9402 4.68995 10.9402C4.61345 10.9402 4.53695 10.9402 4.44769 10.9402C4.44769 11.3865 4.44769 11.8115 4.44769 12.2535C6.79806 12.2535 9.14419 12.2535 11.5031 12.2535C11.5031 11.82 11.5031 11.395 11.5031 10.9402C11.18 10.9402 10.8655 10.9445 10.551 10.9402C10.3002 10.936 10.1515 10.7575 10.211 10.5449C10.2577 10.3792 10.3768 10.3112 10.5425 10.3112C10.857 10.3112 11.1758 10.3112 11.5158 10.3112C11.5158 9.92442 11.5158 9.55888 11.5158 9.19337C11.5158 8.58559 11.7878 8.31783 12.3956 8.31783C12.5359 8.31783 12.6804 8.31783 12.8206 8.31783C13.3604 8.31783 13.5984 8.51759 13.7089 9.07861C13.9554 9.07861 14.2062 9.07861 14.457 9.07861C14.9245 9.08286 15.2263 9.38039 15.2263 9.8479C15.2305 11.0337 15.2305 12.2195 15.2263 13.4053C15.2263 13.8686 14.9202 14.1661 14.4527 14.1704C14.2062 14.1746 13.9597 14.1704 13.7132 14.1704C13.5729 14.7697 13.3647 14.9312 12.7484 14.9312C12.5869 14.9312 12.4211 14.9354 12.2596 14.9312C11.8261 14.9184 11.5286 14.6294 11.5158 14.1959C11.5073 13.8516 11.5116 13.5031 11.5116 13.1588C11.5116 13.0823 11.5116 13.0058 11.5116 12.9166C10.5298 12.9166 9.56921 12.9166 8.58741 12.9166C8.62991 12.9676 8.65541 13.0101 8.69366 13.0441C9.96873 14.2681 11.3458 15.3732 12.8036 16.3763C12.9906 16.5038 13.1649 16.5165 13.3519 16.3848C15.749 14.7102 17.9676 12.8401 19.7485 10.4982C20.6155 9.35489 21.3211 8.12231 21.6483 6.70698C21.9246 5.50418 21.8396 4.33962 21.2488 3.23455C21.1256 3.00504 21.1681 2.81804 21.3508 2.72878C21.5293 2.63953 21.6866 2.71178 21.8099 2.93705C22.5579 4.33112 22.5919 5.78045 22.1626 7.26802C21.7546 8.6876 21.0023 9.92442 20.1055 11.0805C18.7157 12.8741 17.0539 14.3914 15.2645 15.7685C14.7715 16.1467 14.2657 16.508 13.7599 16.8693C13.2882 17.2008 12.8844 17.1965 12.4084 16.8693C10.7508 15.7217 9.19094 14.4509 7.76711 13.0186C7.70336 12.9548 7.60136 12.8996 7.51635 12.8996C6.53455 12.8911 5.55275 12.8953 4.5667 12.8953C4.5327 12.8953 4.49869 12.8996 4.43069 12.9081C4.43069 13.1376 4.43494 13.3586 4.43069 13.5838C4.42644 13.8219 4.43919 14.0641 4.40944 14.3021C4.36269 14.6634 4.07367 14.9057 3.7124 14.9184C3.53389 14.9269 3.35963 14.9227 3.18112 14.9227C2.57334 14.9227 2.37358 14.7654 2.22482 14.1619C2.04207 14.1619 1.85081 14.1491 1.6638 14.1661C1.26853 14.2171 0.962511 14.0896 0.75 13.7496C0.75 12.3385 0.75 10.9232 0.75 9.51214ZM3.79316 11.65C3.79316 11.327 3.79316 10.9997 3.79316 10.6767C3.79316 10.1837 3.78466 9.69065 3.79741 9.19337C3.80166 9.00637 3.73366 8.93835 3.5509 8.95536C3.40214 8.96812 3.25338 8.96812 3.10462 8.95536C2.93886 8.94261 2.87511 9.00637 2.87936 9.17212C2.88786 9.51214 2.88361 9.8479 2.87936 10.1879C2.87511 10.3877 2.7476 10.5194 2.57335 10.5237C2.39909 10.528 2.26733 10.3962 2.25033 10.2007C2.24183 10.0944 2.24608 9.98817 2.24608 9.88191C2.25033 9.76715 2.20358 9.71191 2.08457 9.71191C1.89331 9.71616 1.70205 9.71616 1.51079 9.71191C1.39603 9.71191 1.34503 9.75441 1.34503 9.87341C1.34503 11.038 1.34503 12.2025 1.34503 13.3671C1.34503 13.4988 1.40028 13.5414 1.52354 13.5371C1.69355 13.5328 1.86356 13.5286 2.03357 13.5371C2.20783 13.5499 2.25033 13.4733 2.25033 13.3118C2.24183 12.8103 2.24608 12.3088 2.25033 11.8073C2.25033 11.7393 2.25033 11.6628 2.27158 11.599C2.31833 11.4332 2.43734 11.3525 2.6031 11.3695C2.76036 11.3865 2.85811 11.48 2.87936 11.6415C2.88786 11.7053 2.88361 11.769 2.88361 11.8328C2.88361 12.5595 2.88361 13.2863 2.88361 14.0131C2.88361 14.2894 2.88361 14.2894 3.16838 14.2894C3.28738 14.2894 3.41064 14.2766 3.52965 14.2936C3.73366 14.3149 3.80166 14.2341 3.79741 14.0301C3.78466 13.2481 3.79316 12.4491 3.79316 11.65ZM13.0501 11.6543C13.0501 11.5352 13.0501 11.4162 13.0501 11.293C13.0501 10.5959 13.0459 9.89466 13.0544 9.19762C13.0586 9.01061 12.9949 8.94261 12.8079 8.9596C12.6761 8.97237 12.5401 8.97237 12.4041 8.9596C12.2001 8.93835 12.1363 9.01912 12.1406 9.21887C12.1491 10.1837 12.1448 11.1527 12.1448 12.1175C12.1448 12.7721 12.1491 13.4308 12.1406 14.0854C12.1406 14.2511 12.1958 14.3191 12.3616 14.3064C12.5104 14.2936 12.6591 14.2936 12.8079 14.3064C12.9949 14.3234 13.0544 14.2511 13.0501 14.0641C13.0459 13.2608 13.0501 12.4575 13.0501 11.6543ZM14.5845 11.6288C14.5845 11.0592 14.5802 10.4854 14.5845 9.91591C14.5845 9.77565 14.542 9.70766 14.3932 9.71191C14.219 9.72041 14.0404 9.71616 13.8619 9.71191C13.7387 9.70766 13.6834 9.75015 13.6834 9.88191C13.6877 11.0465 13.6877 12.2068 13.6834 13.3713C13.6834 13.5031 13.7429 13.5456 13.8662 13.5414C14.0149 13.5371 14.1637 13.5286 14.3125 13.5414C14.5207 13.5626 14.5972 13.4946 14.593 13.2736C14.576 12.7296 14.5845 12.1813 14.5845 11.6288Z" fill="white"/>
<path d="M11.363 5.18965C11.2907 5.41492 11.2397 5.58069 11.1887 5.74645C10.904 6.68147 10.6192 7.62077 10.3345 8.55583C10.3132 8.62808 10.2962 8.72583 10.241 8.7641C10.1517 8.82785 10.0114 8.9001 9.93068 8.87459C9.82443 8.84058 9.70967 8.71733 9.67566 8.61109C9.45891 7.95656 9.26764 7.2935 9.06789 6.63472C8.97436 6.32446 8.86813 6.01845 8.78738 5.70394C8.74911 5.55516 8.68112 5.50418 8.52811 5.50841C7.68655 5.51694 6.84502 5.51267 6.00348 5.51267C5.92697 5.51267 5.84622 5.51694 5.7697 5.49993C5.60822 5.47016 5.50195 5.35541 5.52321 5.20665C5.54021 5.09613 5.64644 4.98566 5.73572 4.90489C5.78247 4.86238 5.88448 4.87514 5.96097 4.87514C6.91302 4.87514 7.86932 4.87514 8.82137 4.87514C9.14014 4.87514 9.20816 4.92615 9.30165 5.23641C9.52266 5.96321 9.74367 6.68997 9.98595 7.48055C10.0284 7.34877 10.0582 7.27652 10.0794 7.2C10.394 6.17145 10.7042 5.13864 11.0272 4.11009C11.0655 3.99108 11.1633 3.85935 11.2737 3.79984C11.4395 3.71057 11.6138 3.82961 11.6818 4.0506C11.8135 4.46712 11.9453 4.88364 12.06 5.30443C12.1025 5.46167 12.1705 5.51267 12.332 5.51267C13.1396 5.50418 13.9429 5.50841 14.7504 5.50841C14.8269 5.50841 14.9077 5.50841 14.9842 5.52117C15.1542 5.55516 15.2435 5.66994 15.235 5.83994C15.2265 6.00572 15.1329 6.11196 14.9587 6.13745C14.9034 6.14595 14.8439 6.14595 14.7887 6.14595C13.8706 6.14595 12.9526 6.14595 12.0345 6.14595C11.6903 6.14595 11.6435 6.11196 11.5415 5.77619C11.4905 5.59767 11.4353 5.42766 11.363 5.18965Z" fill="white"/>
</svg>
