<svg width="18" height="18" viewBox="0 0 18 18" fill="none" xmlns="http://www.w3.org/2000/svg">
<path d="M17.9759 9.29438C17.8787 9.50283 17.7692 9.70204 17.5349 9.78515C17.2503 9.88629 16.9913 9.83836 16.7736 9.62552C16.5986 9.45489 16.4319 9.27548 16.2204 9.11364C16.2204 9.17433 16.2204 9.23457 16.2204 9.29527C16.2204 10.0618 16.2235 10.8283 16.2191 11.5948C16.2164 12.0666 15.8594 12.3797 15.4069 12.3173C15.0638 12.2702 14.8194 11.9787 14.8171 11.5992C14.8132 11.0081 14.8158 10.4171 14.8158 9.82605C14.8158 9.15893 14.8136 8.49182 14.818 7.82472C14.8189 7.71256 14.7912 7.63034 14.709 7.54766C12.9952 5.82734 11.2846 4.10348 9.57304 2.38095C9.21552 2.02123 8.82546 2.02035 8.46749 2.37743C6.73617 4.10524 5.00396 5.83216 3.2766 7.56393C3.21195 7.62858 3.16401 7.74247 3.16358 7.83395C3.15742 10.239 3.1583 12.644 3.15917 15.049C3.15962 15.7878 3.55628 16.3217 4.24054 16.4998C4.35796 16.5301 4.48329 16.5411 4.6051 16.542C5.16096 16.5464 5.71681 16.5442 6.27266 16.5433C6.30608 16.5433 6.33951 16.5363 6.3892 16.5306C6.3892 16.4545 6.3892 16.3855 6.3892 16.3169C6.3892 14.5262 6.3892 12.7359 6.3892 10.9452C6.3892 10.3872 6.65657 10.1198 7.21945 10.1194C8.41912 10.1185 9.61878 10.1185 10.818 10.1194C11.3919 10.1198 11.6557 10.3841 11.6557 10.9553C11.6557 12.7399 11.6557 14.5249 11.6557 16.3094C11.6557 16.3789 11.6557 16.4483 11.6557 16.5169C11.6821 16.5284 11.6971 16.5403 11.7125 16.5403C12.3268 16.5372 12.9416 16.5491 13.5546 16.524C14.1575 16.4994 14.6936 15.987 14.7868 15.3881C14.8031 15.2843 14.8083 15.1788 14.8202 15.0741C14.8624 14.7012 15.1685 14.4321 15.5375 14.4426C15.9139 14.4536 16.2063 14.7487 16.2191 15.1308C16.2618 16.4255 15.2191 17.6938 13.9328 17.8934C13.6513 17.9369 13.3624 17.9435 13.0766 17.9466C12.4095 17.9541 11.7424 17.9501 11.0753 17.9484C10.5146 17.947 10.2511 17.6801 10.2511 17.1168C10.2511 15.3261 10.2511 13.5358 10.2511 11.7452C10.2511 11.6766 10.2511 11.6079 10.2511 11.5314C9.42528 11.5314 8.62009 11.5314 7.79335 11.5314C7.79335 11.6066 7.79335 11.6752 7.79335 11.7438C7.79335 13.5345 7.79335 15.3248 7.79335 17.1155C7.79335 17.6797 7.53038 17.9488 6.97055 17.9479C6.11038 17.9466 5.24979 17.9624 4.39051 17.9321C2.98019 17.882 1.80077 16.6885 1.76295 15.2724C1.73701 14.2957 1.75504 13.3182 1.75415 12.341C1.75328 11.2702 1.75415 10.1998 1.75415 9.09912C1.70402 9.13915 1.66928 9.16201 1.64025 9.19017C1.47227 9.35287 1.31396 9.52702 1.1363 9.67829C0.866729 9.90785 0.461272 9.88101 0.209724 9.63343C-0.0448923 9.38277 -0.0712785 8.99007 0.150355 8.70732C0.196979 8.6475 0.251506 8.59385 0.305152 8.54019C2.70666 6.14219 5.10863 3.74421 7.51102 1.34664C8.36063 0.49879 9.68474 0.500556 10.5317 1.35237C12.92 3.75521 15.3079 6.15891 17.6919 8.56614C17.8075 8.68268 17.8823 8.83967 17.9764 8.97776C17.9759 9.08375 17.9759 9.18928 17.9759 9.29438Z" fill="#CB072B"/>
</svg>
