<svg width="21" height="21" viewBox="0 0 21 21" fill="none" xmlns="http://www.w3.org/2000/svg">
<path d="M20.9479 6.23652C20.8994 5.13682 20.7215 4.38078 20.4668 3.72566C20.204 3.03027 19.7997 2.40769 19.27 1.89013C18.7524 1.36452 18.1257 0.956102 17.4384 0.697405C16.7795 0.442655 16.0274 0.26482 14.9277 0.216334C13.8198 0.163742 13.468 0.151581 10.658 0.151581C7.84805 0.151581 7.49635 0.163742 6.39254 0.212228C5.29284 0.260714 4.5368 0.438708 3.88184 0.693298C3.1863 0.956103 2.56371 1.36042 2.04616 1.89014C1.52056 2.40769 1.11229 3.03438 0.853439 3.72172C0.59869 4.38078 0.420856 5.13271 0.372371 6.23242C0.319778 7.34034 0.307617 7.69206 0.307617 10.5021C0.307617 13.3121 0.319778 13.6638 0.368264 14.7676C0.41675 15.8673 0.594743 16.6233 0.849491 17.2785C1.11229 17.9738 1.52056 18.5964 2.04617 19.114C2.56372 19.6396 3.19041 20.048 3.87774 20.3067C4.5368 20.5615 5.28873 20.7393 6.3886 20.7878C7.49225 20.8364 7.84413 20.8484 10.6541 20.8484C13.4641 20.8484 13.8158 20.8364 14.9196 20.7878C16.0193 20.7393 16.7753 20.5615 17.4303 20.3067C18.8212 19.7689 19.9209 18.6692 20.4587 17.2785C20.7133 16.6194 20.8913 15.8673 20.9398 14.7676C20.9883 13.6638 21.0004 13.3121 21.0004 10.5021C21.0004 7.69208 20.9963 7.34033 20.9479 6.23652ZM19.0841 14.6867C19.0395 15.6975 18.8697 16.2433 18.7282 16.6072C18.3805 17.5089 17.6649 18.2245 16.7632 18.5722C16.3993 18.7138 15.8496 18.8835 14.8427 18.9279C13.7511 18.9766 13.4237 18.9886 10.6622 18.9886C7.90071 18.9886 7.56919 18.9766 6.4815 18.9279C5.47072 18.8835 4.9249 18.7138 4.56101 18.5722C4.11232 18.4064 3.7039 18.1436 3.3724 17.7999C3.02873 17.4643 2.76592 17.06 2.60009 16.6113C2.45858 16.2474 2.2888 15.6975 2.24442 14.6908C2.19578 13.5992 2.18377 13.2716 2.18377 10.5101C2.18377 7.74863 2.19578 7.4171 2.24442 6.32958C2.2888 5.31879 2.45858 4.77297 2.60009 4.40908C2.76592 3.96023 3.02873 3.55197 3.3765 3.2203C3.71195 2.87663 4.11627 2.61383 4.56512 2.44815C4.929 2.30664 5.47893 2.13686 6.48561 2.09232C7.57726 2.04384 7.90482 2.03168 10.6661 2.03168C13.4317 2.03168 13.7591 2.04384 14.8468 2.09232C15.8576 2.13686 16.4034 2.30664 16.7673 2.44815C17.216 2.61383 17.6244 2.87663 17.9559 3.2203C18.2996 3.55592 18.5624 3.96023 18.7282 4.40908C18.8697 4.77297 19.0395 5.32274 19.0841 6.32958C19.1325 7.42123 19.1447 7.74863 19.1447 10.5101C19.1447 13.2716 19.1325 13.595 19.0841 14.6867Z" fill="white"/>
<path d="M10.6585 5.1853C7.7233 5.1853 5.3418 7.56664 5.3418 10.502C5.3418 13.4374 7.7233 15.8188 10.6585 15.8188C13.5939 15.8188 15.9753 13.4374 15.9753 10.502C15.9753 7.56664 13.5939 5.1853 10.6585 5.1853ZM10.6585 13.9509C8.7543 13.9509 7.20967 12.4064 7.20967 10.502C7.20967 8.59766 8.7543 7.05322 10.6585 7.05322C12.5629 7.05322 14.1073 8.59767 14.1073 10.502C14.1073 12.4064 12.5629 13.9509 10.6585 13.9509Z" fill="white"/>
<path d="M17.426 4.97509C17.426 5.66054 16.8702 6.21631 16.1846 6.21631C15.4992 6.21631 14.9434 5.66054 14.9434 4.97509C14.9434 4.28951 15.4992 3.73389 16.1846 3.73389C16.8702 3.73389 17.426 4.28951 17.426 4.97509Z" fill="white"/>
</svg>
