<svg width="21" height="22" viewBox="0 0 21 22" fill="none" xmlns="http://www.w3.org/2000/svg">
<path d="M4.16661 21.0087C3.98154 20.9676 3.79133 20.9367 3.61141 20.8853C1.60656 20.3404 0.44476 18.4538 0.820035 16.4078C1.28269 13.8889 1.70936 11.3648 2.16175 8.84072C2.27997 8.17758 2.32625 7.49387 2.61927 6.87185C3.27727 5.45817 4.39279 4.68193 5.95041 4.59453C6.64441 4.55341 7.34353 4.58426 8.04267 4.58426C8.11464 4.58426 8.19174 4.58426 8.30484 4.58426C7.74965 3.6795 7.61598 2.75419 8.01182 1.78773C8.25342 1.2017 8.6544 0.744184 9.19932 0.415178C10.2686 -0.232539 11.6617 -0.114306 12.5973 0.713338C13.1473 1.19656 13.4815 1.79802 13.574 2.52799C13.6717 3.25797 13.4918 3.92111 13.0805 4.56883C13.1833 4.57398 13.2553 4.57912 13.3221 4.57912C14.0058 4.57912 14.6895 4.5637 15.3732 4.5894C17.2136 4.65108 18.689 5.90541 19.018 7.71492C19.4138 9.88428 19.7891 12.0588 20.1746 14.2333C20.3186 15.0404 20.4728 15.8475 20.591 16.6545C20.9046 18.7314 19.4755 20.6385 17.3884 20.9675C17.3267 20.9778 17.2702 20.9984 17.2136 21.0138C12.8697 21.0087 8.52074 21.0087 4.16661 21.0087ZM10.6901 19.7698C12.7155 19.7698 14.7409 19.7749 16.7612 19.7698C18.3394 19.7646 19.5012 18.5514 19.3881 17.0041C19.3521 16.4746 19.2236 15.9503 19.1311 15.4259C18.6993 12.9841 18.2623 10.5423 17.8408 8.10046C17.5991 6.70735 16.5864 5.81802 15.1728 5.81802C13.6563 5.81802 12.1346 5.81802 10.6181 5.81802C9.08107 5.81802 7.53888 5.79231 6.00182 5.8283C5.01996 5.85399 4.28998 6.35779 3.82218 7.2317C3.56514 7.71492 3.52916 8.24955 3.43149 8.7739C2.99453 11.2208 2.56271 13.6678 2.1309 16.1199C2.03323 16.6648 1.915 17.2046 2.04352 17.7649C2.31596 18.9576 3.35438 19.7698 4.6344 19.7698C6.65469 19.7749 8.66982 19.7698 10.6901 19.7698ZM10.6747 4.57398C11.564 4.60481 12.3403 3.844 12.366 2.91868C12.3917 2.02934 11.6565 1.25825 10.7261 1.23769C9.84704 1.21712 9.05537 1.86999 9.02967 2.87756C9.00911 3.76689 9.6774 4.53285 10.6747 4.57398Z" fill="black"/>
<path d="M13.7746 13.5855C13.6667 13.5855 13.569 13.5907 13.4765 13.5855C13.1372 13.5701 12.8801 13.3028 12.8751 12.9789C12.8699 12.6551 13.1321 12.3723 13.4611 12.3569C13.7952 12.3466 14.1293 12.3466 14.4635 12.3569C14.7514 12.3672 15.0033 12.5831 15.029 12.8607C15.0752 13.421 15.0752 13.9813 14.7565 14.4851C14.3658 15.102 13.8004 15.4413 13.0704 15.4464C12.3455 15.4516 11.7698 15.1226 11.374 14.5057C11.1632 14.1767 11.0706 13.8066 11.0706 13.4159C11.0706 12.9995 11.0655 12.5831 11.0706 12.1667C11.0912 10.9844 12.0268 10.0796 13.1629 10.1464C13.7438 10.1773 14.2271 10.4292 14.5972 10.8764C14.8234 11.154 14.7976 11.519 14.5509 11.7452C14.299 11.9714 13.9289 11.9662 13.6873 11.704C13.4611 11.4624 13.204 11.3236 12.8699 11.411C12.5871 11.483 12.3455 11.7297 12.3353 12.0176C12.3199 12.5368 12.3147 13.056 12.3353 13.5753C12.3507 13.9351 12.6797 14.2024 13.0447 14.2075C13.42 14.2127 13.7233 13.9659 13.7746 13.5855Z" fill="black"/>
<path d="M7.5749 13.4776C7.5749 13.9557 7.58004 14.3875 7.5749 14.8244C7.56976 15.246 7.20991 15.5184 6.80894 15.4259C6.52621 15.3591 6.34115 15.1175 6.34115 14.7833C6.33601 13.9762 6.34115 13.1692 6.34115 12.3621C6.34115 11.8429 6.34115 11.3237 6.34115 10.8045C6.34115 10.4086 6.59819 10.131 6.95802 10.131C7.31274 10.131 7.5749 10.4086 7.5749 10.8045C7.58004 11.2209 7.5749 11.6372 7.5749 12.1051C7.65715 12.0279 7.70855 11.9817 7.75482 11.9302C8.2586 11.4111 8.76239 10.8919 9.26619 10.3675C9.43582 10.1876 9.63632 10.0899 9.88821 10.1465C10.3714 10.2544 10.5359 10.8199 10.1915 11.1952C9.77511 11.6424 9.34843 12.0742 8.92175 12.506C8.83436 12.5934 8.72641 12.6602 8.61847 12.7425C8.71612 12.8453 8.76239 12.9019 8.81381 12.9533C9.27131 13.4262 9.72885 13.894 10.1812 14.367C10.3663 14.5623 10.428 14.7936 10.3303 15.0455C10.2378 15.2871 10.0578 15.4156 9.80081 15.4362C9.57977 15.4568 9.41012 15.3591 9.2559 15.1997C8.75212 14.6754 8.24833 14.1562 7.74453 13.6369C7.70855 13.601 7.65715 13.5547 7.5749 13.4776Z" fill="black"/>
</svg>
