<svg width="20" height="17" viewBox="0 0 20 17" fill="none" xmlns="http://www.w3.org/2000/svg">
<path d="M15.7015 13.6232C16.1068 13.9639 16.5005 14.2929 16.8883 14.6219C18.6391 12.4834 19.3265 8.99348 17.8518 5.88548C16.289 2.60123 13.0811 1.13243 10.7193 1.0913C10.7193 1.57307 10.7134 2.05484 10.7251 2.5366C10.7251 2.57773 10.8309 2.64236 10.8896 2.64824C12.2292 2.78924 13.4277 3.27688 14.4853 4.10529C14.7614 4.32268 14.8143 4.58119 14.638 4.82794C14.45 5.0982 14.1504 5.12758 13.8566 4.89258C13.2632 4.42843 12.6052 4.08179 11.8826 3.86441C8.46905 2.84799 4.92042 5.10408 4.42102 8.62922C4.18014 10.3448 4.62078 11.8841 5.71945 13.2236C6.04258 13.6173 6.02496 13.8464 5.6372 14.1696C5.0438 14.669 4.45041 15.1742 3.85701 15.6736C3.53387 15.9439 3.27536 15.9204 3.00509 15.5972C1.40704 13.6878 0.649136 11.4787 0.760754 8.99348C0.960522 4.69282 4.09789 1.06781 8.3398 0.192396C13.3514 -0.841646 18.3512 2.39561 19.4381 7.4248C20.0903 10.4564 19.3794 13.1884 17.417 15.5914C17.1585 15.9086 16.8824 15.9263 16.5651 15.656C15.96 15.1448 15.3548 14.6337 14.7497 14.1226C14.4207 13.8464 14.3913 13.5879 14.6733 13.2589C15.6603 12.078 16.1362 10.7149 16.054 9.17561C16.0305 8.7056 15.913 8.23558 15.8248 7.77144C15.7543 7.41305 16.0187 7.10753 16.383 7.14866C16.6415 7.17804 16.759 7.34254 16.8236 7.57756C17.1996 8.92885 17.1761 10.2684 16.7472 11.6021C16.5064 12.3424 16.1597 13.0004 15.7015 13.6232ZM1.78892 8.98173C2.27656 8.98173 2.72895 8.97585 3.18135 8.9876C3.34585 8.99348 3.37523 8.92297 3.38698 8.78197C3.45749 7.98881 3.65724 7.21916 4.02739 6.51413C4.30352 5.98536 4.64428 5.49185 4.93805 5.0042C4.59727 4.66343 4.23301 4.29918 3.86288 3.92904C2.62908 5.36259 1.92993 7.03116 1.78892 8.98173ZM9.70285 1.0678C7.75815 1.2088 6.08371 1.90796 4.64428 3.1535C5.02029 3.52952 5.38456 3.89378 5.7547 4.26392C7.25288 3.16525 7.59951 3.02424 9.57946 2.65411C9.62648 2.64824 9.69697 2.57773 9.69697 2.5366C9.70872 2.05484 9.70285 1.57895 9.70285 1.0678ZM3.36348 10.0099C2.83471 10.0099 2.32357 10.0099 1.7948 10.0099C1.9123 11.7372 2.4822 13.2648 3.52799 14.6454C3.93925 14.2988 4.32702 13.9698 4.73241 13.629C3.9275 12.548 3.47511 11.3436 3.36348 10.0099Z" fill="white"/>
<path d="M10.3896 12.5597C9.43197 12.5597 8.79156 12.1132 8.55069 11.4376C8.30392 10.7502 8.50369 9.96876 9.09709 9.53986C10.3544 8.63508 11.6234 7.75968 12.8984 6.87839C13.762 6.28498 14.6374 5.70922 15.507 5.1217C15.695 4.99831 15.883 4.95719 16.0827 5.08057C16.2649 5.19221 16.3647 5.36259 16.3295 5.57996C16.3119 5.68571 16.259 5.79148 16.1944 5.87372C14.6609 7.85367 13.1216 9.83362 11.5823 11.8136C11.218 12.2836 10.7598 12.5597 10.3896 12.5597ZM13.4683 7.77729C13.4565 7.76554 13.4448 7.75379 13.433 7.74204C13.0511 8.00056 12.6692 8.25318 12.2932 8.51757C11.4354 9.11686 10.5776 9.71612 9.73161 10.333C9.37909 10.5915 9.36734 11.0263 9.6611 11.3318C9.95486 11.6432 10.3896 11.6373 10.6834 11.3083C10.8773 11.0909 11.0594 10.8618 11.2415 10.6327C11.9818 9.68087 12.7221 8.72907 13.4683 7.77729Z" fill="white"/>
<path d="M10.226 15.7206C11.6243 15.7206 13.0226 15.7206 14.4267 15.7206C14.744 15.7206 14.9261 15.8616 14.9673 16.1201C15.0201 16.4609 14.8263 16.7077 14.4737 16.7312C14.4385 16.7312 14.4032 16.7312 14.3621 16.7312C11.5949 16.7312 8.82177 16.7312 6.05455 16.7312C5.68442 16.7312 5.48465 16.5843 5.45527 16.2905C5.42003 15.9556 5.6139 15.7265 5.96055 15.7206C6.50107 15.7147 7.04747 15.7206 7.58798 15.7206C8.46927 15.7206 9.34468 15.7206 10.226 15.7206Z" fill="white"/>
<path d="M10.2135 14.8041C9.626 14.8041 9.04436 14.81 8.45684 14.8041C8.06907 14.7982 7.84582 14.4104 8.02205 14.0638C8.11019 13.8817 8.26882 13.7935 8.46859 13.7935C9.63189 13.7877 10.7952 13.7877 11.9585 13.7935C12.2757 13.7935 12.4637 14.0109 12.4579 14.3106C12.452 14.6043 12.2581 14.7923 11.9526 14.7982C11.3709 14.81 10.7893 14.8041 10.2135 14.8041Z" fill="white"/>
</svg>
