<svg width="19" height="19" viewBox="0 0 19 19" fill="none" xmlns="http://www.w3.org/2000/svg">
<path d="M0.75 13.4386C1.58611 10.315 3.15027 7.53421 4.84595 4.81923C5.42841 3.88448 6.05314 2.97793 6.66847 2.06667C7.27441 1.1648 8.1293 0.680992 9.20966 0.563568C9.98 0.479012 10.7456 0.375671 11.5113 0.277039C12.5024 0.145516 13.3479 0.727966 13.5546 1.70029C13.6485 2.15591 13.7378 2.62093 13.7941 3.08126C13.935 4.20859 12.9533 5.08227 11.8448 4.83332C11.2529 4.6971 10.6611 4.56088 10.0458 4.41527C10.027 4.48103 10.0082 4.54209 9.99409 4.60316C9.66528 5.86201 9.34118 7.11616 9.01237 8.37501C8.94192 8.64275 8.76813 8.77897 8.52856 8.76488C8.31719 8.75548 8.134 8.59577 8.11521 8.37971C8.10581 8.28107 8.1293 8.16833 8.15749 8.06969C8.51917 6.67462 8.88085 5.28425 9.24254 3.88918C9.25194 3.8516 9.26133 3.80933 9.27072 3.77175C9.34118 3.48053 9.60423 3.34431 9.89075 3.41946C10.6329 3.60735 11.3751 3.79054 12.1266 3.95494C12.5682 4.05358 12.9768 3.64963 12.9063 3.20339C12.8359 2.75716 12.7607 2.31562 12.6715 1.87408C12.5822 1.40906 12.1689 1.11783 11.6851 1.17419C11.206 1.22586 10.7316 1.29163 10.2571 1.35269C9.84848 1.40436 9.44452 1.44664 9.04056 1.5171C8.41583 1.62043 7.89914 1.92575 7.53745 2.44244C5.74313 5.00712 4.06153 7.64224 2.78389 10.5075C2.38463 11.4047 2.06992 12.3347 1.7411 13.2601C1.66595 13.4668 1.67065 13.7157 1.69414 13.9365C1.7411 14.4156 2.05112 14.735 2.46918 14.8994C2.88723 15.0638 3.32876 15.1672 3.76091 15.2752C4.62989 15.4866 5.466 15.7825 6.26921 16.163C7.4576 16.7313 8.70236 17.1024 10.0082 17.2621C11.8824 17.4876 13.7002 17.2433 15.4428 16.5059C15.9971 16.271 16.5232 15.9751 17.0587 15.7026C17.3687 15.5429 17.6881 15.6792 17.7586 16.0033C17.8008 16.1958 17.7069 16.379 17.5049 16.5012C16.8285 16.9051 16.1239 17.2433 15.3865 17.5205C14.3249 17.915 13.2352 18.1593 12.1031 18.2297C12.0562 18.2344 12.0139 18.2485 11.9669 18.2579C11.5442 18.2579 11.1214 18.2579 10.7034 18.2579C10.6517 18.2485 10.6 18.2344 10.5484 18.2297C8.94192 18.1264 7.41533 17.7131 5.9592 17.0273C5.08552 16.6186 4.18835 16.2898 3.24421 16.1019C2.75571 16.0033 2.27659 15.8717 1.84445 15.6087C1.35593 15.3128 0.998955 14.9088 0.839241 14.3545C0.811066 14.2512 0.782883 14.1432 0.754692 14.0351C0.75 13.8332 0.75 13.6359 0.75 13.4386Z" fill="white"/>
<path d="M15.1748 9.82644C15.7902 9.33795 16.4947 8.97625 17.298 8.81654C17.5986 8.75549 17.9133 8.732 18.2186 8.71321C18.5286 8.69442 18.74 8.87762 18.7494 9.14535C18.7588 9.4131 18.5615 9.60568 18.2515 9.61506C17.3027 9.64326 16.4712 9.96267 15.7338 10.5498C15.6587 10.6062 15.5929 10.6719 15.5271 10.7377C15.2923 10.9679 15.0668 10.9679 14.8132 10.7612C14.1367 10.1975 13.3805 9.79357 12.5162 9.60568C11.2762 9.33325 10.1911 9.66206 9.22817 10.4606C8.61285 10.9726 8.13372 11.5973 7.71569 12.2737C7.65931 12.3676 7.60294 12.4663 7.53718 12.5555C7.39156 12.7387 7.14732 12.7763 6.95473 12.6589C6.76214 12.5414 6.65881 12.2878 6.77624 12.0952C7.66871 10.5686 8.75846 9.2581 10.5528 8.75549C11.7036 8.43609 12.8168 8.60987 13.8831 9.10777C14.3152 9.31445 14.7286 9.57749 15.1748 9.82644Z" fill="white"/>
<path d="M12.6344 15.867C11.9579 15.8436 11.305 15.7215 10.6709 15.5007C10.4079 15.4114 10.2764 15.1672 10.3562 14.9182C10.4314 14.6787 10.685 14.5471 10.9527 14.6364C11.4225 14.7867 11.8969 14.9041 12.3948 14.9229C13.5785 14.9746 14.6072 14.6176 15.448 13.7627C15.6594 13.5513 15.9224 13.5278 16.1197 13.7063C16.3122 13.8848 16.3169 14.1619 16.115 14.378C15.4292 15.1108 14.579 15.557 13.5973 15.7449C13.2779 15.8107 12.9538 15.8295 12.6344 15.867Z" fill="white"/>
</svg>
