<svg width="25" height="24" viewBox="0 0 25 24" fill="none" xmlns="http://www.w3.org/2000/svg">
<path d="M18.5268 19.1412C18.6997 19.3243 18.8801 19.5249 19.0706 19.7154C20.2932 20.9388 21.5186 22.1594 22.7434 23.3815C23.0615 23.6989 23.4351 23.832 23.8742 23.6956C24.289 23.5665 24.5415 23.274 24.6205 22.8505C24.6969 22.4425 24.5355 22.1148 24.2476 21.8284C22.7588 20.3463 21.2733 18.8602 19.7873 17.3754C19.6501 17.2383 19.5129 17.1005 19.3752 16.964C18.8462 16.4391 18.2335 16.4297 17.7026 16.9485C16.6555 17.9719 15.4234 18.6724 14.0203 19.0824C9.16476 20.501 4.01046 17.2943 3.14853 12.3178C2.32235 7.54726 5.43051 3.11654 10.1975 2.26947C14.8796 1.43721 19.4616 4.70063 20.1905 9.38064C20.4641 11.1363 20.2371 12.8183 19.4934 14.4335C19.2482 14.9658 19.4184 15.536 19.8878 15.8298C20.3439 16.1142 20.9403 16.0217 21.2842 15.6076C21.3477 15.5306 21.4011 15.4421 21.4443 15.3516C24.1099 9.78933 21.3382 2.93348 15.5633 0.731961C9.56326 -1.55601 3.11474 1.73106 1.31381 7.65198C-0.542514 13.7539 3.23431 20.0917 9.49301 21.3488C12.7456 22.002 15.7037 21.2631 18.3402 19.2513C18.374 19.2257 18.4065 19.1986 18.441 19.1743C18.4544 19.1642 18.472 19.1615 18.5268 19.1412Z" fill="white"/>
</svg>
