<svg width="26" height="30" viewBox="0 0 26 30" fill="none" xmlns="http://www.w3.org/2000/svg">
<path d="M25.537 28.4643L23.3019 7.179C23.255 6.7334 22.8795 6.39505 22.4314 6.39505H18.2306V5.43721C18.2306 2.45152 15.8014 0.0222626 12.8159 0.0222626C9.83015 0.0222626 7.40103 2.45152 7.40103 5.43721V6.39505H3.20016C2.75212 6.39505 2.37655 6.7334 2.32965 7.179L0.0945956 28.4643C0.0687945 28.7109 0.14889 28.957 0.314691 29.1415C0.480716 29.3257 0.717188 29.4309 0.965103 29.4309H24.6662C24.9144 29.4309 25.1509 29.3257 25.3167 29.1415C25.4829 28.957 25.5628 28.7109 25.537 28.4643ZM9.15148 5.43722C9.15148 3.41677 10.7954 1.77281 12.8159 1.77281C14.8363 1.77281 16.4801 3.41677 16.4801 5.43722V6.39506H9.15147L9.15148 5.43722ZM1.93705 27.6804L3.98836 8.14558H7.40106V10.0745C7.40106 10.5578 7.79302 10.9498 8.27629 10.9498C8.75955 10.9498 9.15151 10.5578 9.15151 10.0745V8.14558H16.4802V10.0745C16.4802 10.5578 16.8721 10.9498 17.3554 10.9498C17.8387 10.9498 18.2306 10.5578 18.2306 10.0745V8.14558H21.6433L23.6946 27.6804H1.93705Z" fill="white"/>
</svg>
