<svg width="28" height="21" viewBox="0 0 28 21" fill="none" xmlns="http://www.w3.org/2000/svg">
<path d="M0.75 5.19821C0.862671 4.93767 1.07393 4.85317 1.34856 4.8602C1.7429 4.86725 2.13724 4.8602 2.53159 4.8602C2.54567 4.55036 2.53862 4.26869 2.57384 3.98702C2.71468 2.98004 3.63715 2.39557 4.60892 2.69837C4.66525 2.71245 4.72863 2.72654 4.78497 2.73357C4.80609 2.40965 4.79201 2.08572 4.85538 1.78293C5.03847 0.909745 5.86237 0.283021 6.68626 0.367524C7.67211 0.459062 8.36221 1.14916 8.39038 2.11389C8.41151 2.92371 8.39742 3.73351 8.39742 4.53628C8.39742 4.63487 8.39742 4.72641 8.39742 4.83908C9.00302 4.83908 9.58044 4.83908 10.1931 4.83908C10.1649 4.2194 10.2424 3.64197 10.8128 3.28284C11.3691 2.93779 11.9113 3.0082 12.4465 3.39551C13.0309 2.96596 13.6295 2.93779 14.2421 3.39551C14.8266 2.96596 15.4252 2.93779 16.0378 3.39551C16.5518 3.01525 17.1011 2.92371 17.6645 3.2758C18.2419 3.62789 18.3264 4.20532 18.2912 4.83908C18.8897 4.83908 19.4742 4.83908 20.0869 4.83908C20.0869 4.74049 20.0869 4.64191 20.0869 4.55036C20.0869 3.74056 20.0728 2.93075 20.0939 2.12798C20.108 1.34633 20.6079 0.684404 21.3192 0.459062C22.0726 0.219644 22.8543 0.444986 23.305 1.09283C23.4951 1.36042 23.5796 1.71251 23.6571 2.03643C23.7063 2.25473 23.6641 2.48711 23.6641 2.76174C24.3331 2.50823 24.9316 2.57865 25.4386 3.0575C25.9597 3.54338 25.9456 4.18419 25.9245 4.86725C26.2414 4.86725 26.5442 4.86725 26.847 4.86725C26.9878 4.86725 27.1287 4.8602 27.2695 4.87429C27.5512 4.89541 27.7131 5.05033 27.7202 5.32497C27.7272 6.21224 27.7272 7.0995 27.7202 7.98678C27.7202 8.28957 27.5301 8.45153 27.2061 8.45858C26.7977 8.46562 26.3822 8.45858 25.9316 8.45858C25.9316 8.63462 25.9245 8.79658 25.9316 8.95855C25.9809 10.2754 24.7837 11.0007 23.7627 10.5782C23.7486 10.5711 23.7275 10.5782 23.6711 10.5782C23.6711 10.7824 23.6782 10.9866 23.6711 11.1978C23.6148 12.5992 22.136 13.4019 20.946 12.6837C20.3685 12.3316 20.0939 11.7894 20.0869 11.1204C20.0798 10.3176 20.0869 9.52189 20.0869 8.71912C20.0869 8.64166 20.0869 8.5642 20.0869 8.4797C19.6362 8.4797 19.2066 8.4797 18.7489 8.4797C18.7419 8.55013 18.7348 8.62758 18.7278 8.70504C18.7278 9.1205 18.7137 9.52893 18.7278 9.94439C18.7489 10.5782 18.5517 11.1345 18.1644 11.6274C17.8969 11.9654 17.5518 12.2823 17.425 12.6696C17.2983 13.0569 17.3898 13.5216 17.3898 13.9512C17.3898 15.9018 17.3898 17.8524 17.3898 19.803C17.3898 19.9086 17.3898 20.0142 17.3898 20.141C17.0941 20.141 16.8054 20.141 16.4885 20.141C16.4885 20.0424 16.4885 19.9508 16.4885 19.8593C16.4885 17.4792 16.4885 15.099 16.4885 12.7189C16.4885 12.4654 16.5519 12.2612 16.7068 12.064C16.9814 11.7189 17.2349 11.3598 17.5025 11.0148C17.7208 10.726 17.8405 10.4092 17.8335 10.0359C17.8264 9.52893 17.8335 9.01489 17.8335 8.46562C17.7278 8.46562 17.6363 8.46562 17.5447 8.46562C16.404 8.46562 15.2632 8.45858 14.1154 8.47266C13.9816 8.47266 13.8267 8.53603 13.721 8.6135C13.4253 8.83179 13.0943 8.9163 12.7352 8.90926C12.4887 8.90221 12.2423 8.90926 12.0028 8.96559C12.4606 9.19798 12.9394 9.40218 13.3689 9.68386C13.8267 9.9796 14.1013 10.4585 14.3266 10.9514C14.5449 11.4373 14.6858 11.9372 14.6646 12.5147C14.4041 12.5147 14.1506 12.5288 13.9041 12.5006C13.8478 12.4935 13.7774 12.3597 13.7703 12.2752C13.6647 11.5077 13.3971 10.8105 12.7634 10.3458C12.4606 10.1275 12.0733 10.0219 11.7071 9.8951C11.1226 9.68386 11.0874 9.64865 11.0874 9.036C11.0874 8.88109 11.0804 8.71912 11.0874 8.5642C11.1015 8.19099 11.2634 8.02199 11.6437 8.01494C12.038 8.0079 12.4324 8.01494 12.8267 8.0079C13.1295 8.00086 13.3197 7.83889 13.3337 7.58539C13.3478 7.34596 13.1436 7.12767 12.8549 7.12063C11.9747 7.10655 11.1015 7.11359 10.2001 7.11359C10.1931 7.21217 10.1861 7.29668 10.1861 7.38117C10.1861 8.19099 10.1931 9.0008 10.1861 9.80357C10.179 10.2894 10.341 10.6908 10.6931 11.0288C11.0592 11.3809 11.4254 11.733 11.7705 12.1133C11.8831 12.24 11.9817 12.4302 11.9817 12.5992C11.9958 15.0568 11.9888 17.5214 11.9888 19.979C11.9888 20.0283 11.9747 20.0846 11.9676 20.148C11.686 20.148 11.4043 20.148 11.0874 20.148C11.0874 20.0424 11.0874 19.9438 11.0874 19.8452C11.0874 17.5496 11.0874 15.261 11.0944 12.9653C11.0944 12.7752 11.0452 12.6344 10.9043 12.5076C10.6086 12.233 10.3339 11.9372 10.0452 11.6556C9.53116 11.1556 9.29173 10.55 9.29173 9.83878C9.29173 9.39513 9.29173 8.94447 9.29173 8.48674C8.98894 8.48674 8.70726 8.48674 8.39038 8.48674C8.39038 8.57829 8.39038 8.67687 8.39038 8.76842C8.39038 9.57823 8.40446 10.388 8.38334 11.1908C8.34109 12.5992 6.87639 13.416 5.67224 12.7048C5.1441 12.3949 4.85539 11.9161 4.80609 11.3105C4.78497 11.0781 4.80609 10.8387 4.80609 10.5993C3.1231 10.8458 2.63721 10.388 2.53159 8.47266C2.15132 8.47266 1.77107 8.46562 1.39081 8.47266C1.10913 8.4797 0.897888 8.40225 0.75 8.15578C0.75 7.16992 0.75 6.18407 0.75 5.19821ZM5.7004 6.64883C5.7004 7.00797 5.7004 7.3671 5.7004 7.72623C5.7004 8.85996 5.69336 9.99369 5.7004 11.1274C5.7004 11.6908 6.11587 12.0851 6.65105 12.0499C7.15102 12.0217 7.48903 11.6274 7.48903 11.057C7.48903 8.50787 7.48903 5.96578 7.48903 3.41663C7.48903 2.99413 7.49606 2.57162 7.48903 2.1491C7.48198 1.71955 7.20032 1.38154 6.80597 1.29C6.2215 1.14917 5.7004 1.56464 5.69336 2.19135C5.7004 3.67718 5.7004 5.163 5.7004 6.64883ZM22.7839 6.66291C22.7839 5.19117 22.7839 3.71239 22.7839 2.24065C22.7839 1.75476 22.5233 1.39563 22.1008 1.29704C21.4952 1.15621 20.9882 1.58576 20.9882 2.24769C20.9882 4.20532 20.9882 6.16294 20.9882 8.12057C20.9882 9.11347 20.9882 10.1064 20.9882 11.0993C20.9882 11.4936 21.1502 11.7964 21.5093 11.9724C22.1078 12.2541 22.7768 11.8246 22.7768 11.1415C22.7909 9.64865 22.7839 8.15578 22.7839 6.66291ZM4.79905 6.677C4.79905 5.86719 4.79905 5.06442 4.79905 4.25461C4.79905 3.93069 4.65821 3.6983 4.36246 3.56451C4.10896 3.45184 3.8484 3.49409 3.68645 3.6983C3.55264 3.86027 3.45406 4.09969 3.44702 4.3039C3.41885 5.13484 3.43294 5.97282 3.43294 6.80375C3.43294 7.55723 3.4259 8.3107 3.43294 9.06417C3.43998 9.52189 3.75687 9.83173 4.17937 9.79652C4.53146 9.76836 4.78497 9.4726 4.79201 9.06417C4.80609 8.26844 4.79905 7.47273 4.79905 6.677ZM25.0443 6.64883C25.0443 5.8531 25.0443 5.05033 25.0443 4.25461C25.0443 3.93069 24.9035 3.6983 24.6077 3.56451C24.3542 3.45184 24.0936 3.49409 23.9317 3.6983C23.7979 3.86027 23.6993 4.09969 23.6993 4.31094C23.6711 5.17004 23.6852 6.02915 23.6852 6.88825C23.6852 7.61356 23.6782 8.34591 23.6852 9.07121C23.6923 9.52893 24.0091 9.83878 24.4316 9.80357C24.7837 9.7754 25.0372 9.47963 25.0443 9.07121C25.0443 8.26141 25.0443 7.4516 25.0443 6.64883ZM20.0798 7.55018C20.0798 6.94458 20.0798 6.36715 20.0798 5.77564C19.4812 5.77564 18.8968 5.77564 18.2982 5.77564C18.2489 6.33195 18.0025 6.7615 17.4884 6.98683C16.9673 7.21922 16.4814 7.0995 16.0448 6.77558C15.4815 7.17696 14.9322 7.21922 14.3618 6.85304C14.3126 6.81783 14.214 6.81783 14.1647 6.84599C14.1295 6.86009 14.1224 6.96571 14.1365 7.015C14.1788 7.19105 14.2351 7.36709 14.2844 7.55018C16.1998 7.55018 18.1292 7.55018 20.0798 7.55018ZM8.41855 5.78269C8.41855 6.39533 8.41855 6.97276 8.41855 7.55018C8.72134 7.55018 8.99597 7.55018 9.26357 7.55018C9.27765 7.51497 9.28469 7.50089 9.28469 7.48681C9.28469 7.24035 9.28469 6.99388 9.29173 6.75446C9.29877 6.39533 9.46777 6.22632 9.8269 6.21224C9.96775 6.20519 10.1015 6.21224 10.2565 6.21224C10.2283 6.05028 10.2072 5.92352 10.186 5.78269C9.58749 5.78269 9.01006 5.78269 8.41855 5.78269ZM11.9888 5.07147C11.9888 4.85316 11.9958 4.63487 11.9888 4.41657C11.9747 4.15602 11.8197 3.99406 11.5874 3.97293C11.3409 3.95181 11.1297 4.09264 11.1156 4.36024C11.0874 4.83908 11.0944 5.32497 11.1156 5.80381C11.1297 6.05731 11.3268 6.20519 11.5592 6.19815C11.8057 6.19111 11.9747 6.0221 11.9888 5.75452C11.9958 5.52918 11.9888 5.30384 11.9888 5.07147ZM17.3969 5.09258C17.3969 4.88838 17.3969 4.6912 17.3969 4.48699C17.3969 4.47291 17.3969 4.45178 17.3969 4.4377C17.3687 4.14194 17.1856 3.96589 16.9251 3.97998C16.6716 3.98702 16.5096 4.16306 16.5025 4.45178C16.4955 4.87429 16.4955 5.2968 16.5025 5.71931C16.5096 6.0221 16.6786 6.20519 16.9391 6.21224C17.1927 6.21928 17.3757 6.03619 17.3969 5.73339C17.4039 5.5151 17.3969 5.30384 17.3969 5.09258ZM13.7844 5.0785C13.7844 4.85317 13.7985 4.62078 13.7774 4.39544C13.7562 4.1349 13.5943 3.97998 13.3619 3.97293C13.1154 3.96589 12.9183 4.11378 12.9042 4.38136C12.8831 4.84612 12.8831 5.31088 12.9042 5.77564C12.9183 6.04324 13.1084 6.20519 13.3478 6.19815C13.5872 6.19111 13.7633 6.02915 13.7774 5.76156C13.7985 5.53623 13.7844 5.31088 13.7844 5.0785ZM15.5942 5.10668C15.5942 4.88133 15.6082 4.64895 15.5942 4.42361C15.573 4.1349 15.397 3.97293 15.1435 3.97293C14.89 3.97293 14.7139 4.14194 14.7069 4.43065C14.6928 4.8602 14.6928 5.28975 14.7069 5.71931C14.7139 6.0221 14.897 6.19815 15.1576 6.19815C15.404 6.19815 15.5801 6.0221 15.6012 5.73339C15.6012 5.52918 15.5942 5.31793 15.5942 5.10668ZM2.53159 7.55018C2.53159 6.95162 2.53159 6.3742 2.53159 5.78269C2.23582 5.78269 1.95415 5.78269 1.66544 5.78269C1.66544 6.38123 1.66544 6.96571 1.66544 7.55018C1.9612 7.55018 2.24287 7.55018 2.53159 7.55018ZM25.9527 7.54315C26.2555 7.54315 26.5372 7.54315 26.8188 7.54315C26.8188 6.94459 26.8188 6.36012 26.8188 5.77564C26.5231 5.77564 26.2414 5.77564 25.9527 5.77564C25.9527 6.3742 25.9527 6.94459 25.9527 7.54315Z" fill="white"/>
</svg>
