<svg width="19" height="15" viewBox="0 0 19 15" fill="none" xmlns="http://www.w3.org/2000/svg">
<path d="M18.2663 1.757C17.587 2.05496 16.8632 2.25246 16.1086 2.34836C16.8849 1.88486 17.4775 1.15648 17.756 0.278564C17.0322 0.710106 16.2331 1.01492 15.3814 1.18503C14.6941 0.453228 13.7146 0 12.646 0C10.5728 0 8.90369 1.68279 8.90369 3.74574C8.90369 4.04256 8.92881 4.32797 8.99046 4.59969C5.87719 4.44785 3.1224 2.95572 1.27179 0.682701C0.948708 1.24325 0.759195 1.88486 0.759195 2.57555C0.759195 3.87246 1.42706 5.02209 2.42257 5.68768C1.82092 5.67626 1.23069 5.50159 0.730654 5.22645C0.730654 5.23787 0.730654 5.2527 0.730654 5.26756C0.730654 7.08733 2.0287 8.59887 3.7309 8.94707C3.42608 9.03041 3.09386 9.07037 2.74908 9.07037C2.50934 9.07037 2.26731 9.05667 2.04012 9.00644C2.52532 10.4894 3.90214 11.5797 5.53926 11.6151C4.26519 12.6118 2.64748 13.2123 0.896192 13.2123C0.589089 13.2123 0.294545 13.1986 0 13.1609C1.65881 14.2306 3.62472 14.8414 5.74476 14.8414C12.6357 14.8414 16.4032 9.13315 16.4032 4.18527C16.4032 4.01973 16.3975 3.8599 16.3895 3.70122C17.1327 3.17377 17.7572 2.51505 18.2663 1.757Z" fill="white"/>
</svg>
