<svg width="30" height="35" viewBox="0 0 30 35" fill="none" xmlns="http://www.w3.org/2000/svg">
<path d="M15.0033 34.1809C11.8707 34.1316 8.66563 33.7538 5.60392 32.5656C4.28465 32.054 3.04899 31.3967 2.07285 30.337C1.34507 29.546 0.964089 28.6265 0.992714 27.5378C1.09507 23.7807 2.44572 20.5491 5.07578 17.8549C5.62974 17.2875 6.40788 17.2533 6.93943 17.7575C7.48508 18.2745 7.4871 19.0548 6.9108 19.6456C5.15434 21.4407 4.072 23.5698 3.69633 26.05C3.6265 26.5102 3.61906 26.9802 3.56748 27.4448C3.50407 28.0185 3.75419 28.452 4.15678 28.8224C4.94047 29.5417 5.88639 29.9784 6.87516 30.3285C10.0292 31.4459 13.2962 31.7168 16.6115 31.5734C18.9348 31.4728 21.2292 31.1505 23.4129 30.3167C24.2298 30.0041 25.0104 29.5727 25.7597 29.1178C26.4857 28.6778 26.7936 28.0142 26.7196 27.115C26.4834 24.2506 25.4344 21.7662 23.4172 19.7025C23.0843 19.3609 22.8386 18.9959 22.8999 18.5003C22.9641 17.979 23.2488 17.6087 23.7467 17.4299C24.2655 17.2436 24.7237 17.3764 25.109 17.7575C26.8355 19.4658 28.0445 21.4836 28.7284 23.8118C29.0835 25.0224 29.2523 26.2598 29.2921 27.5208C29.3316 28.787 28.8142 29.7975 27.9145 30.64C26.7369 31.7435 25.3027 32.3922 23.7931 32.8911C20.9802 33.8213 18.0772 34.1498 15.0033 34.1809Z" fill="white"/>
<path d="M6.12209 9.80958C6.11232 4.89101 10.1539 0.848022 15.0899 0.836253C20.1465 0.824481 24.1557 4.83747 24.1567 9.91127C24.1577 14.7506 20.069 18.7882 15.1706 18.7872C10.171 18.785 6.13167 14.7785 6.12209 9.80958ZM8.69857 9.78281C8.69857 13.3248 11.5667 16.2139 15.0908 16.2203C18.6895 16.2267 21.5791 13.3687 21.5811 9.79994C21.5833 6.26541 18.685 3.3999 15.1091 3.40097C11.6013 3.40205 8.69972 6.29112 8.69857 9.78281Z" fill="white"/>
</svg>
