<svg width="21" height="20" viewBox="0 0 21 20" fill="none" xmlns="http://www.w3.org/2000/svg">
<path d="M10.8291 9.5213C10.7526 9.77653 10.6824 10.0318 10.6058 10.2934C10.4016 11.0017 9.77628 11.4994 9.04244 11.5122C7.60032 11.5249 6.16459 11.5185 4.72246 11.5122C4.60761 11.5122 4.47361 11.4484 4.39065 11.3718C3.98226 10.9825 3.58664 10.5805 3.19101 10.1785C2.99958 9.9871 2.98681 9.80844 3.13996 9.66168C3.28673 9.5213 3.4654 9.54043 3.65684 9.73185C3.98864 10.0637 4.31408 10.4019 4.65865 10.7209C4.7416 10.7975 4.8756 10.8613 4.98409 10.8613C6.28582 10.8741 7.59394 10.8677 8.89567 10.8677C9.50826 10.8677 9.83368 10.6125 10.006 10.0254C10.1783 9.43833 10.3506 8.85127 10.5229 8.2642C10.5739 8.09193 10.6441 7.95153 10.8483 7.94517C11.0652 7.93879 11.1482 8.07917 11.1992 8.2642C11.3715 8.8704 11.5502 9.47024 11.7225 10.0701C11.8693 10.5805 12.2202 10.8613 12.7498 10.8613C14.1983 10.8677 15.6468 10.8677 17.0953 10.8613C17.1847 10.8613 17.2932 10.8103 17.3633 10.7464C17.7143 10.4082 18.0525 10.0637 18.3971 9.7191C18.5885 9.53405 18.7736 9.5149 18.914 9.66168C19.0607 9.80844 19.0416 9.99346 18.8501 10.1849C18.4609 10.5805 18.0716 10.9825 17.6633 11.359C17.5675 11.4484 17.4144 11.5122 17.2868 11.5122C15.7681 11.5249 14.2494 11.5249 12.7307 11.5186C11.9522 11.5186 11.3269 11.0272 11.1099 10.2806C11.0397 10.0318 10.9631 9.78291 10.8929 9.52766C10.8674 9.5213 10.8483 9.5213 10.8291 9.5213Z" fill="white"/>
<path d="M17.5038 13.0309C17.1337 13.1585 16.8019 13.2797 16.4574 13.4009C16.4892 14.1922 16.1702 14.8686 15.749 15.5067C15.5959 15.7428 15.4108 15.8002 15.2322 15.6854C15.0599 15.5641 15.0726 15.3918 15.2066 15.1366C15.4045 14.7665 15.5959 14.39 15.7363 14.0008C15.8129 13.7902 15.7937 13.5286 15.7682 13.2988C15.7363 12.9862 15.7937 12.8841 16.0872 12.7948C16.4382 12.6927 16.7955 12.6033 17.121 12.4502C17.357 12.3417 17.5421 12.1247 17.7591 11.978C17.8675 11.9078 18.0207 11.8504 18.1356 11.8695C18.3015 11.895 18.3717 12.0546 18.3397 12.2268C18.059 13.7072 17.7016 15.1557 17.0444 16.5213C16.7062 17.2296 16.4063 17.957 16.1 18.6845C16.0681 18.761 16.0681 18.8568 16.0617 18.9397C16.0553 19.1886 16.0681 19.4311 16.0553 19.6799C16.0489 19.8649 15.9341 19.9734 15.749 19.9798C15.5767 19.9862 15.4364 19.8969 15.43 19.7246C15.4236 19.2205 15.3407 18.7227 15.5704 18.225C16.0107 17.2742 16.4509 16.3235 16.8275 15.3472C17.0954 14.6516 17.2613 13.9242 17.4719 13.2032C17.4975 13.1585 17.4975 13.1074 17.5038 13.0309Z" fill="white"/>
<path d="M4.41612 13.0181C4.62669 13.803 4.77984 14.5432 5.02232 15.2515C5.38603 16.3107 5.84548 17.3317 6.19006 18.3973C6.32405 18.8121 6.26661 19.2907 6.26025 19.7374C6.26025 19.8203 6.06242 19.9607 5.96034 19.9607C5.85822 19.9607 5.74975 19.8203 5.65405 19.7246C5.62214 19.6927 5.6349 19.6161 5.64128 19.5651C5.7051 18.978 5.55833 18.4356 5.34136 17.8996C5.00956 17.0828 4.67773 16.2661 4.38421 15.4365C4.02688 14.4283 3.84182 13.3818 3.69505 12.3226C3.66953 12.1311 3.67591 11.9397 3.8865 11.8631C4.09707 11.7866 4.21192 11.9142 4.33955 12.0737C4.46079 12.2269 4.62669 12.3481 4.79258 12.4502C4.96488 12.5587 5.1627 12.6353 5.35414 12.7054C5.92843 12.9224 5.88375 12.9224 5.9093 13.5158C5.92843 13.8987 6.08158 14.2816 6.21557 14.6516C6.28576 14.8558 6.4389 15.0345 6.54739 15.226C6.64948 15.4046 6.61758 15.596 6.46443 15.6854C6.29214 15.7875 6.13262 15.7556 6.02415 15.596C5.59661 14.9835 5.25842 14.3262 5.25842 13.5541C5.25842 13.4137 5.23289 13.3435 5.08611 13.2925C4.88832 13.235 4.69688 13.1393 4.41612 13.0181Z" fill="white"/>
<path d="M8.56986 1.14935C8.46138 1.57687 8.34014 2.05545 8.19975 2.52127C8.1806 2.59146 8.07213 2.66165 7.98918 2.69356C6.98736 3.05727 6.15143 3.66986 5.39847 4.3973C5.20065 4.58873 4.99646 4.67168 4.72207 4.67806C3.78406 4.71636 2.87157 4.87588 2.04841 5.35445C1.76127 5.52036 1.53155 5.7437 1.38478 6.05C1.28268 6.26695 1.09763 6.33714 0.918958 6.2478C0.746671 6.15847 0.702009 5.97981 0.804098 5.75646C1.09125 5.14389 1.6145 4.79292 2.20794 4.53769C2.98643 4.20587 3.80959 4.07826 4.63912 4.01444C4.76037 4.00167 4.90075 3.94425 4.99008 3.8613C5.74305 3.16576 6.55982 2.57231 7.51059 2.16393C7.58718 2.13203 7.65737 2.02993 7.68289 1.94059C7.77222 1.62792 7.84241 1.30887 7.92537 0.996194C7.97642 0.804764 8.1168 0.72181 8.30823 0.760094C8.49328 0.798379 8.56347 0.919625 8.56986 1.14935Z" fill="white"/>
<path d="M13.4584 0.753716C13.6498 0.753716 13.7455 0.86219 13.7902 1.03448C13.8668 1.33439 13.9306 1.64068 14.0199 1.93421C14.0455 2.01716 14.1157 2.12563 14.1922 2.15116C15.2132 2.53402 16.0874 3.14024 16.8914 3.87405C16.9744 3.95063 17.1084 4.00167 17.2232 4.01444C18.1293 4.09101 19.0227 4.24416 19.8331 4.68444C20.2925 4.93331 20.669 5.26513 20.8923 5.74371C21.0008 5.9798 20.9561 6.17123 20.7775 6.25419C20.5924 6.34353 20.4265 6.26694 20.3053 6.02447C20.0756 5.55866 19.6672 5.30341 19.2141 5.11198C18.5377 4.82484 17.8294 4.69721 17.102 4.67806C16.8659 4.67168 16.6808 4.60787 16.5085 4.43559C15.7046 3.6571 14.8048 3.03814 13.7264 2.69355C13.6243 2.66166 13.5095 2.54679 13.4775 2.44469C13.3499 2.02993 13.2478 1.60239 13.1521 1.17487C13.101 0.938759 13.2415 0.760094 13.4584 0.753716Z" fill="white"/>
<path d="M11.1864 16.298C11.1864 16.9552 11.1864 17.5359 11.1864 18.1166C11.1864 18.1868 11.1928 18.257 11.1864 18.3335C11.1737 18.5313 11.078 18.6653 10.8674 18.6781C10.676 18.6909 10.5356 18.5441 10.5356 18.3208C10.5292 17.8422 10.5356 17.3636 10.5356 16.8914C10.5356 16.7191 10.5356 16.5405 10.5356 16.3235C10.0251 16.2406 9.521 16.1321 9.01051 16.081C8.58298 16.0427 8.14908 16.0747 7.72154 16.0747C7.42163 16.0747 7.28763 15.9661 7.28125 15.7556C7.28125 15.5386 7.42163 15.4365 7.71516 15.4302C8.7106 15.3919 9.69328 15.4685 10.676 15.6982C10.944 15.762 11.263 15.6854 11.5374 15.6089C12.3797 15.3727 13.2411 15.4365 14.0962 15.4302C14.3004 15.4302 14.428 15.5323 14.4472 15.7428C14.4599 15.9343 14.3259 16.0682 14.0962 16.0747C13.7389 16.081 13.3752 16.0491 13.0242 16.081C12.4052 16.1321 11.8054 16.2214 11.1864 16.298Z" fill="white"/>
<path d="M8.55731 13.1394C8.3595 13.1394 8.16168 13.1457 7.95749 13.1394C7.72777 13.133 7.59375 13.0117 7.59375 12.8139C7.59375 12.6161 7.72139 12.4949 7.95749 12.4885C8.69768 12.4693 9.44426 12.4438 10.159 12.6736C10.8417 12.8969 11.4734 12.6353 12.1243 12.565C12.6731 12.5076 13.2346 12.5012 13.7898 12.4949C13.994 12.4949 14.1216 12.648 14.1024 12.8394C14.0833 13.0373 13.9621 13.133 13.7706 13.1394C13.6685 13.1457 13.5664 13.1457 13.458 13.1394C12.7369 13.0819 12.035 13.2287 11.3331 13.3754C11.1927 13.401 11.1735 13.4712 11.1735 13.586C11.1799 13.9497 11.1799 14.3198 11.1735 14.6836C11.1735 14.9452 11.0459 15.0983 10.8481 15.0983C10.6503 15.0983 10.5227 14.9452 10.5163 14.69C10.5163 14.3262 10.5099 13.9561 10.5163 13.5924C10.5163 13.4775 10.5035 13.401 10.3631 13.3818C9.76332 13.2861 9.16351 13.184 8.56369 13.0819C8.57007 13.0947 8.56369 13.1138 8.55731 13.1394Z" fill="white"/>
<path d="M10.8607 3.5869C11.2946 2.73185 11.6967 1.92145 12.105 1.11105C12.271 0.785618 12.4177 0.696286 12.6219 0.791996C12.8325 0.894093 12.8516 1.07914 12.6857 1.40458C12.271 2.22773 11.8498 3.05089 11.4414 3.87405C11.3138 4.12929 11.1606 4.32711 10.8544 4.32711C10.5544 4.32711 10.3885 4.13567 10.2609 3.88681C9.83338 3.02536 9.39948 2.17031 8.96556 1.30887C8.8507 1.07277 8.87622 0.913243 9.04853 0.811146C9.23355 0.696286 9.41861 0.772854 9.54622 1.01533C9.93549 1.78106 10.3183 2.54679 10.7076 3.31251C10.7522 3.39547 10.7969 3.46566 10.8607 3.5869Z" fill="white"/>
<path d="M9.55285 5.95429C9.55285 6.184 9.36779 6.318 9.11893 6.27334C8.41701 6.13932 7.71509 5.99894 7.01319 5.85856C6.66222 5.78837 6.31125 5.71818 5.9603 5.64799C5.7242 5.59693 5.60937 5.4438 5.65401 5.24598C5.69231 5.06092 5.85183 4.96522 6.08155 5.00988C7.1408 5.22045 8.20006 5.43104 9.25931 5.64161C9.43799 5.67352 9.5337 5.78837 9.55285 5.95429Z" fill="white"/>
<path d="M12.0795 6.33076C12.0029 6.22228 11.8816 6.12019 11.8498 5.99256C11.8051 5.80114 11.9327 5.67989 12.1178 5.64159C12.5581 5.55227 13.0047 5.46294 13.4514 5.3736C14.0576 5.25237 14.6638 5.13113 15.2764 5.00988C15.5316 4.95884 15.6848 5.04179 15.7294 5.23321C15.7741 5.4438 15.6656 5.59055 15.4104 5.64159C14.383 5.85218 13.3557 6.05637 12.3284 6.26058C12.2645 6.27332 12.2007 6.27972 12.1433 6.29249C12.1178 6.30523 12.0986 6.318 12.0795 6.33076Z" fill="white"/>
<path d="M11.1801 19.3354C11.1801 19.514 11.0206 19.6608 10.8419 19.6544C10.6697 19.648 10.5293 19.5013 10.5293 19.329C10.5293 19.1503 10.6888 19.0035 10.8675 19.0099C11.0398 19.0227 11.1801 19.1694 11.1801 19.3354Z" fill="white"/>
</svg>
